<svg preserveAspectRatio="none" width="100%" height="100%" overflow="visible" style="display: block;" viewBox="0 0 137.438 166.775" fill="none" xmlns="http://www.w3.org/2000/svg">
<g id="freepik--Bag--inject-72">
<path id="Vector" d="M124.481 9.744L125.349 2.28882e-06L46.333 45.367L55.02 49.021L58.401 54.887L137.417 9.513L124.481 9.744ZM69.769 44.275C68.509 44.975 67.585 44.464 67.704 43.127C67.8296 42.3626 68.1177 41.634 68.5488 40.9904C68.9799 40.3468 69.544 39.8031 70.203 39.396C71.463 38.696 72.387 39.186 72.303 40.544C72.1743 41.3117 71.8812 42.0425 71.4438 42.6865C71.0065 43.3304 70.4352 43.8723 69.769 44.275ZM106.82 23.198C105.56 23.898 104.629 23.394 104.72 22.05C104.847 21.2862 105.136 20.5583 105.567 19.9149C105.998 19.2716 106.561 18.7275 107.219 18.319C108.486 17.619 109.417 18.109 109.319 19.467C109.196 20.2312 108.908 20.9596 108.477 21.6024C108.046 22.2452 107.48 22.7871 106.82 23.191V23.198Z" fill="var(--fill-0, #263238)"/>
<path id="Vector_2" d="M124.481 9.744L137.417 9.52001L119.42 19.859L125.349 2.28882e-06L124.481 9.744Z" fill="var(--fill-0, #37474F)"/>
<path id="Vector_3" opacity="0.15" d="M124.481 9.744L123.949 17.248L119.42 19.859L125.349 2.28882e-06L124.481 9.744Z" fill="var(--fill-0, black)"/>
<path id="Vector_4" d="M58.429 54.887L34.041 166.775L127.841 112.798L137.438 9.534L58.429 54.887ZM81.228 52.787C80.017 53.487 79.051 52.899 79.051 51.513C79.0908 50.757 79.3087 50.0212 79.6871 49.3655C80.0654 48.7098 80.5934 48.1528 81.228 47.74C82.432 47.04 83.405 47.614 83.405 49.014C83.3584 49.7668 83.1343 50.4979 82.7511 51.1476C82.3678 51.7973 81.8363 52.347 81.2 52.752L81.228 52.787ZM117.929 31.542C116.725 32.242 115.745 31.654 115.745 30.268C115.786 29.5115 116.005 28.7755 116.385 28.1198C116.764 27.4641 117.294 26.9074 117.929 26.495C119.126 25.795 120.106 26.369 120.106 27.769C120.066 28.525 119.848 29.2608 119.47 29.9166C119.092 30.5723 118.564 31.1292 117.929 31.542Z" fill="var(--fill-0, #455A64)"/>
<path id="Vector_5" d="M58.401 54.887L34.041 166.761L0 141.316L46.333 45.367L55.013 49.021L58.401 54.887Z" fill="var(--fill-0, #37474F)"/>
<path id="Vector_6" opacity="0.15" d="M58.401 54.887L34.041 166.761L0 141.316L46.333 45.367L55.013 49.021L58.401 54.887Z" fill="var(--fill-0, black)"/>
<path id="Vector_7" d="M0 141.316L23.604 139.475L34.041 166.761L0 141.316Z" fill="var(--fill-0, #263238)"/>
<path id="Vector_8" d="M23.604 139.475L55.02 49.028L58.401 54.887L34.041 166.761L23.604 139.475Z" fill="var(--fill-0, #37474F)"/>
</g>
</svg>
