<svg preserveAspectRatio="none" width="100%" height="100%" overflow="visible" style="display: block;" viewBox="0 0 120.848 193.193" fill="none" xmlns="http://www.w3.org/2000/svg">
<g id="freepik--bag--inject-72">
<path id="Vector" d="M105.672 4.977V0.00700684L26.572 45.668L40.698 48.062L41.713 52.542L40.229 193.193L119.329 147.525L120.848 6.867L105.672 4.977ZM53.872 45.878C52.668 46.578 51.688 45.99 51.688 44.597C51.7291 43.8415 51.9484 43.1064 52.328 42.4519C52.7076 41.7973 53.2367 41.2419 53.872 40.831C55.076 40.131 56.049 40.705 56.049 42.105C56.0131 42.8579 55.8005 43.5917 55.4284 44.2472C55.0563 44.9027 54.5351 45.4613 53.907 45.878H53.872ZM90.692 24.521C89.488 25.221 88.515 24.633 88.515 23.24C88.5559 22.4843 88.7743 21.7488 89.1525 21.0933C89.5308 20.4378 90.0582 19.8806 90.692 19.467C91.896 18.767 92.869 19.348 92.869 20.748C92.8337 21.501 92.6213 22.2351 92.2491 22.8906C91.877 23.5462 91.3555 24.1047 90.727 24.521H90.692Z" fill="var(--fill-0, #FF6B57)"/>
<path id="Vector_2" opacity="0.3" d="M105.672 4.977V0.00700684L26.572 45.668L40.698 48.062L41.713 52.542L40.229 193.193L119.329 147.525L120.848 6.867L105.672 4.977ZM53.872 45.878C52.668 46.578 51.688 45.99 51.688 44.597C51.7291 43.8415 51.9484 43.1064 52.328 42.4519C52.7076 41.7973 53.2367 41.2419 53.872 40.831C55.076 40.131 56.049 40.705 56.049 42.105C56.0131 42.8579 55.8005 43.5917 55.4284 44.2472C55.0563 44.9027 54.5351 45.4613 53.907 45.878H53.872ZM90.692 24.521C89.488 25.221 88.515 24.633 88.515 23.24C88.5559 22.4843 88.7743 21.7488 89.1525 21.0933C89.5308 20.4378 90.0582 19.8806 90.692 19.467C91.896 18.767 92.869 19.348 92.869 20.748C92.8337 21.501 92.6213 22.2351 92.2491 22.8906C91.877 23.5462 91.3555 24.1047 90.727 24.521H90.692Z" fill="var(--fill-0, black)"/>
<path id="Vector_3" d="M41.713 52.535L40.229 193.193L119.329 147.525L120.848 6.867L41.713 52.535ZM63.609 53.935C62.412 54.635 61.432 54.047 61.432 52.661C61.4734 51.9054 61.6921 51.1702 62.0703 50.5147C62.4485 49.8593 62.9756 49.302 63.609 48.888C64.813 48.188 65.793 48.769 65.793 50.162C65.7536 50.9189 65.535 51.6556 65.1553 52.3115C64.7756 52.9674 64.2457 53.5238 63.609 53.935ZM100.429 32.578C99.225 33.278 98.252 32.69 98.252 31.297C98.2929 30.5413 98.5113 29.8058 98.8895 29.1503C99.2678 28.4948 99.7952 27.9376 100.429 27.524C101.64 26.824 102.606 27.405 102.606 28.805C102.57 29.5618 102.353 30.2989 101.974 30.9551C101.596 31.6114 101.066 32.1678 100.429 32.578Z" fill="var(--fill-0, #FF6B57)"/>
<path id="Vector_4" d="M0 167.65L22.624 163.842L40.194 193.186L0 167.65Z" fill="var(--fill-0, #FF6B57)"/>
<path id="Vector_5" opacity="0.3" d="M0 167.65L22.624 163.842L40.194 193.186L0 167.65Z" fill="var(--fill-0, black)"/>
<path id="Vector_6" d="M22.624 163.842L40.698 48.055L41.713 52.535L40.194 193.186L22.624 163.842Z" fill="var(--fill-0, #FF6B57)"/>
<path id="Vector_7" opacity="0.1" d="M22.624 163.842L40.698 48.055L41.713 52.535L40.194 193.186L22.624 163.842Z" fill="var(--fill-0, black)"/>
<path id="Vector_8" d="M26.579 45.668L40.698 48.055L22.624 163.842L0 167.65L26.579 45.668Z" fill="var(--fill-0, #FF6B57)"/>
<path id="Vector_9" opacity="0.2" d="M26.579 45.668L40.698 48.055L22.624 163.842L0 167.65L26.579 45.668Z" fill="var(--fill-0, black)"/>
<path id="Vector_10" opacity="0.5" d="M105.672 0L100.709 18.473L120.806 6.87401L105.672 4.97V0Z" fill="var(--fill-0, #FF6B57)"/>
<path id="Vector_11" opacity="0.5" d="M105.672 4.97V15.61L120.806 6.87401L105.672 4.97Z" fill="var(--fill-0, #FF6B57)"/>
</g>
</svg>
