<svg preserveAspectRatio="none" width="100%" height="100%" overflow="visible" style="display: block;" viewBox="0 0 116.27 181.209" fill="none" xmlns="http://www.w3.org/2000/svg">
<g id="freepik--bag--inject-72">
<path id="Vector" d="M116.27 137.186L88.452 7.02801L80.472 6.188L76.258 0L79.87 116.165L116.27 137.186Z" fill="var(--fill-0, #FF6B57)"/>
<path id="Vector_2" opacity="0.4" d="M116.27 137.186L88.452 7.02801L80.472 6.188L76.258 0L79.87 116.165L116.27 137.186Z" fill="var(--fill-0, white)"/>
<path id="Vector_3" opacity="0.2" d="M80.472 6.188L80.304 11.732L75.453 14.532L76.258 0.00700684L80.472 6.188Z" fill="var(--fill-0, #FF6B57)"/>
<path id="Vector_4" d="M0 44.03L3.612 160.188L79.856 116.165L76.251 0.00700684L0 44.03ZM22.757 46.494C21.553 47.194 20.58 46.606 20.58 45.213C20.6209 44.4573 20.8393 43.7218 21.2175 43.0663C21.5958 42.4108 22.1232 41.8536 22.757 41.44C23.961 40.74 24.941 41.321 24.941 42.721C24.9023 43.4772 24.6849 44.2135 24.3064 44.8694C23.928 45.5253 23.3994 46.0821 22.764 46.494H22.757ZM59.577 25.137C58.373 25.837 57.4 25.249 57.4 23.856C57.4409 23.1012 57.6593 22.3668 58.0376 21.7124C58.4159 21.058 58.9433 20.5021 59.577 20.09C60.781 19.39 61.761 19.964 61.754 21.364C61.7167 22.1197 61.5005 22.8558 61.1233 23.5118C60.746 24.1677 60.2185 24.7247 59.584 25.137H59.577Z" fill="var(--fill-0, #FF6B57)"/>
<path id="Vector_5" opacity="0.2" d="M0 44.03L3.612 160.188L79.856 116.165L76.251 0.00700684L0 44.03ZM22.757 46.494C21.553 47.194 20.58 46.606 20.58 45.213C20.6209 44.4573 20.8393 43.7218 21.2175 43.0663C21.5958 42.4108 22.1232 41.8536 22.757 41.44C23.961 40.74 24.941 41.321 24.941 42.721C24.9023 43.4772 24.6849 44.2135 24.3064 44.8694C23.928 45.5253 23.3994 46.0821 22.764 46.494H22.757ZM59.577 25.137C58.373 25.837 57.4 25.249 57.4 23.856C57.4409 23.1012 57.6593 22.3668 58.0376 21.7124C58.4159 21.058 58.9433 20.5021 59.577 20.09C60.781 19.39 61.761 19.964 61.754 21.364C61.7167 22.1197 61.5005 22.8558 61.1233 23.5118C60.746 24.1677 60.2185 24.7247 59.584 25.137H59.577Z" fill="var(--fill-0, white)"/>
<path id="Vector_6" d="M0.00699615 44.023L8.743 45.045L12.201 51.051L40.019 181.209L3.612 160.195L0.00699615 44.023Z" fill="var(--fill-0, #FF6B57)"/>
<path id="Vector_7" opacity="0.55" d="M0.00699615 44.023L8.743 45.045L12.201 51.051L40.019 181.209L3.612 160.195L0.00699615 44.023Z" fill="var(--fill-0, white)"/>
<path id="Vector_8" opacity="0.2" d="M21.812 154.105L8.743 45.045L0.00699615 44.023L3.612 160.195L21.812 154.105Z" fill="var(--fill-0, #FF6B57)"/>
<path id="Vector_9" opacity="0.4" d="M40.019 181.209L21.812 154.105L3.612 160.195L40.019 181.209Z" fill="var(--fill-0, #FF6B57)"/>
<path id="Vector_10" d="M88.452 7.02801L12.201 51.051L40.019 181.209L116.27 137.186L88.452 7.02801ZM36.743 53.879C36.5219 54.0355 36.2626 54.1293 35.9926 54.1507C35.7225 54.172 35.4517 54.1201 35.2087 54.0004C34.9657 53.8807 34.7596 53.6977 34.6119 53.4705C34.4643 53.2434 34.3807 52.9807 34.37 52.71C34.2882 52.0348 34.3954 51.3501 34.6796 50.7321C34.9639 50.1142 35.414 49.5873 35.98 49.21C37.079 48.566 38.143 49.098 38.353 50.4C38.4348 51.0723 38.3275 51.754 38.0431 52.3686C37.7587 52.9832 37.3084 53.5063 36.743 53.879ZM74.081 32.459C73.052 33.089 71.932 32.564 71.589 31.29C71.4234 30.6559 71.453 29.9865 71.6741 29.3695C71.8952 28.7525 72.2974 28.2167 72.828 27.832C73.857 27.195 74.977 27.713 75.327 29.001C75.4929 29.6358 75.4626 30.3059 75.2402 30.9232C75.0178 31.5405 74.6136 32.0759 74.081 32.459Z" fill="var(--fill-0, #FF6B57)"/>
<path id="Vector_11" opacity="0.7" d="M88.452 7.02801L12.201 51.051L40.019 181.209L116.27 137.186L88.452 7.02801ZM36.743 53.879C36.5219 54.0355 36.2626 54.1293 35.9926 54.1507C35.7225 54.172 35.4517 54.1201 35.2087 54.0004C34.9657 53.8807 34.7596 53.6977 34.6119 53.4705C34.4643 53.2434 34.3807 52.9807 34.37 52.71C34.2882 52.0348 34.3954 51.3501 34.6796 50.7321C34.9639 50.1142 35.414 49.5873 35.98 49.21C37.079 48.566 38.143 49.098 38.353 50.4C38.4348 51.0723 38.3275 51.754 38.0431 52.3686C37.7587 52.9832 37.3084 53.5063 36.743 53.879ZM74.081 32.459C73.052 33.089 71.932 32.564 71.589 31.29C71.4234 30.6559 71.453 29.9865 71.6741 29.3695C71.8952 28.7525 72.2974 28.2167 72.828 27.832C73.857 27.195 74.977 27.713 75.327 29.001C75.4929 29.6358 75.4626 30.3059 75.2402 30.9232C75.0178 31.5405 74.6136 32.0759 74.081 32.459Z" fill="var(--fill-0, white)"/>
</g>
</svg>
