<svg preserveAspectRatio="none" width="100%" height="100%" overflow="visible" style="display: block;" viewBox="0 0 84.8848 78.5547" fill="none" xmlns="http://www.w3.org/2000/svg">
<g id="freepik--Cord--inject-72">
<path id="Vector" d="M47.1996 78.5544C47.0549 78.5538 46.914 78.5084 46.7961 78.4244C46.6783 78.3404 46.5894 78.222 46.5416 78.0854L31.7086 35.7704C29.8411 30.4378 29.8932 24.6206 31.8561 19.3223C33.819 14.0241 37.5695 9.57703 42.4607 6.74837C44.9953 5.28581 47.8212 4.39981 50.7371 4.15342C53.6531 3.90703 56.5876 4.3063 59.3317 5.32283C62.0759 6.33935 64.5623 7.94814 66.614 10.0348C68.6658 12.1214 70.2325 14.6345 71.2027 17.3954L84.8456 56.2804C84.9069 56.4558 84.896 56.6484 84.8152 56.8158C84.7345 56.9832 84.5906 57.1116 84.4152 57.1729C84.2397 57.2341 84.0471 57.2232 83.8797 57.1425C83.7123 57.0617 83.5839 56.9178 83.5226 56.7424L69.8796 17.8574C68.9775 15.291 67.521 12.9549 65.6137 11.0153C63.7063 9.07568 61.3949 7.5802 58.844 6.63522C56.2931 5.69024 53.5653 5.31898 50.8546 5.54784C48.144 5.77671 45.517 6.60007 43.1607 7.95937C38.5536 10.6271 35.0208 14.8178 33.1707 19.8097C31.3206 24.8017 31.269 30.2825 33.0246 35.3084L47.8647 77.6234C47.8955 77.7107 47.9088 77.8032 47.9036 77.8957C47.8985 77.9881 47.8751 78.0786 47.8347 78.162C47.7943 78.2453 47.7378 78.3198 47.6685 78.3812C47.5991 78.4425 47.5183 78.4895 47.4306 78.5194C47.3565 78.5452 47.2781 78.557 47.1996 78.5544Z" fill="var(--fill-0, #F0F0F0)"/>
<path id="Vector_2" d="M33.5777 70.0284C33.4088 70.0303 33.245 69.9711 33.1164 69.8618C32.9877 69.7524 32.903 69.6003 32.8777 69.4334L27.9777 37.1424C27.0359 31.1314 27.9426 24.9761 30.5778 19.492C33.2129 14.008 37.4521 9.45399 42.7337 6.43338C45.0018 5.12462 47.5549 4.38886 50.1717 4.2899C52.7885 4.19093 55.3899 4.73175 57.7504 5.86546C60.1109 6.99917 62.1593 8.69155 63.7179 10.7959C65.2765 12.9002 66.2983 15.3529 66.6947 17.9414L71.1256 47.1244C71.1394 47.2163 71.135 47.31 71.1126 47.4002C71.0901 47.4904 71.0501 47.5753 70.9949 47.6501C70.9396 47.7248 70.8702 47.788 70.7905 47.8359C70.7109 47.8838 70.6226 47.9156 70.5306 47.9294C70.4387 47.9432 70.345 47.9387 70.2548 47.9163C70.1646 47.8938 70.0797 47.8538 70.0049 47.7986C69.9302 47.7433 69.867 47.6739 69.8191 47.5943C69.7712 47.5146 69.7394 47.4263 69.7256 47.3344L65.3016 18.1514C64.9386 15.789 64.0049 13.5507 62.5816 11.6306C61.1582 9.71048 59.2882 8.16638 57.1334 7.1321C54.9786 6.09781 52.6042 5.60454 50.2158 5.69502C47.8273 5.78551 45.497 6.45702 43.4266 7.65137C38.3961 10.532 34.3579 14.8711 31.8457 20.0954C29.3336 25.3197 28.4656 31.1833 29.3567 36.9114L34.2567 69.2024C34.2706 69.2934 34.2664 69.3863 34.2443 69.4757C34.2223 69.5651 34.1829 69.6492 34.1282 69.7234C34.0736 69.7975 34.0049 69.8601 33.926 69.9077C33.8472 69.9552 33.7597 69.9867 33.6687 70.0004L33.5777 70.0284Z" fill="var(--fill-0, #E0E0E0)"/>
<path id="Vector_3" d="M65.3367 38.7734L63.9787 39.5574L62.7256 19.2574C62.5785 17.0051 61.8606 14.8274 60.6395 12.9292C59.4185 11.031 57.7344 9.47471 55.7459 8.40695C53.7575 7.33918 51.5299 6.79503 49.2731 6.82572C47.0163 6.85641 44.8044 7.46093 42.8457 8.58237C37.711 11.5225 33.5044 15.8443 30.704 21.0565C27.9037 26.2686 26.622 32.162 27.0047 38.0664L28.3417 60.1234L26.9837 60.9074L25.5837 38.1294C25.1844 31.9623 26.5227 25.8069 29.4467 20.3623C32.3706 14.9178 36.7629 10.4025 42.1247 7.32938C44.2905 6.08789 46.7369 5.41843 49.2331 5.38414C51.7293 5.34984 54.1931 5.95182 56.3922 7.13334C58.5914 8.31485 60.4534 10.037 61.8027 12.1373C63.1521 14.2377 63.9443 16.6471 64.1047 19.1384L65.3367 38.7734Z" fill="var(--fill-0, #F0F0F0)"/>
<path id="Vector_4" d="M18.7867 60.5294H18.6676C18.5771 60.5133 18.4906 60.4796 18.4131 60.4301C18.3355 60.3806 18.2685 60.3163 18.2159 60.2409C18.1632 60.1655 18.1259 60.0804 18.1062 59.9906C18.0864 59.9008 18.0845 59.8079 18.1006 59.7174L21.7196 38.6614C22.8218 32.1951 25.3383 26.052 29.0895 20.6708C32.8406 15.2897 37.7339 10.8034 43.4197 7.53237C45.2369 6.47995 47.3164 5.96733 49.4146 6.05461C51.5127 6.14189 53.5425 6.82545 55.2661 8.02516C56.9896 9.22487 58.3354 10.891 59.1458 12.8283C59.9562 14.7656 60.1976 16.8938 59.8417 18.9634L56.4747 38.5634C56.444 38.749 56.3409 38.9149 56.188 39.0245C56.035 39.1341 55.8448 39.1785 55.6591 39.1479C55.4735 39.1172 55.3076 39.0141 55.198 38.8612C55.0884 38.7082 55.044 38.518 55.0747 38.3324L58.4417 18.7114C58.7523 16.9052 58.542 15.0479 57.8353 13.357C57.1287 11.666 55.955 10.2113 54.4515 9.16328C52.9481 8.11522 51.1772 7.51714 49.3462 7.43905C47.5152 7.36097 45.6998 7.80611 44.1127 8.72237C38.6108 11.8962 33.8764 16.2441 30.2467 21.4564C26.6169 26.6687 24.1811 32.6172 23.1127 38.8784L19.4937 59.9344C19.4682 60.1025 19.3824 60.2556 19.2523 60.3651C19.1222 60.4746 18.9567 60.533 18.7867 60.5294Z" fill="var(--fill-0, #E0E0E0)"/>
<path id="Vector_5" d="M56.9926 9.17738L51.6096 28.5674L49.8737 29.5684L55.6417 8.79938C55.8947 7.8923 55.8718 6.9304 55.5758 6.03641C55.2799 5.14241 54.7243 4.35687 53.9799 3.78001C53.2355 3.20316 52.3362 2.86115 51.3966 2.79763C50.4571 2.73411 49.5199 2.95196 48.7047 3.42338C32.5328 12.7194 20.6861 28.0254 15.7417 46.0114L14.6497 49.9384L12.8997 50.9114L14.3696 45.6124C19.4134 27.2835 31.4885 11.6865 47.9697 2.21237C49.0258 1.60103 50.2402 1.31834 51.4578 1.40037C52.6753 1.48241 53.8408 1.92546 54.8054 2.67295C55.77 3.42044 56.4899 4.43845 56.8733 5.597C57.2566 6.75555 57.286 8.00207 56.9577 9.17738H56.9926Z" fill="var(--fill-0, #F0F0F0)"/>
<path id="Vector_6" d="M0.698644 49.8544C0.564516 49.854 0.433316 49.8151 0.320649 49.7424C0.164909 49.6419 0.0553453 49.4839 0.0159795 49.3028C-0.0233862 49.1217 0.010656 48.9324 0.110647 48.7764L4.05165 42.6794C15.3031 25.2976 30.5116 10.828 48.4317 0.455371C49.1003 0.0724861 49.8779 -0.075146 50.6403 0.0360826C51.4027 0.147311 52.1058 0.510981 52.6371 1.06893C53.1685 1.62688 53.4974 2.34687 53.5713 3.11379C53.6452 3.88072 53.4597 4.65026 53.0447 5.29937L38.2676 28.1894C38.1629 28.3348 38.0063 28.4345 37.8302 28.4679C37.6541 28.5014 37.4719 28.466 37.3211 28.369C37.1704 28.2721 37.0625 28.121 37.0198 27.947C36.9771 27.7729 37.0028 27.5891 37.0916 27.4334L51.8686 4.54337C52.1158 4.1582 52.2265 3.70125 52.1831 3.24569C52.1397 2.79013 51.9446 2.36232 51.6292 2.03077C51.3138 1.69921 50.8962 1.4831 50.4434 1.41703C49.9906 1.35096 49.5287 1.43876 49.1317 1.66637C31.4089 11.9287 16.3685 26.2423 5.24165 43.4354L1.28665 49.5114C1.22592 49.6139 1.14005 49.6991 1.03715 49.7592C0.934256 49.8192 0.817741 49.852 0.698644 49.8544Z" fill="var(--fill-0, #E0E0E0)"/>
</g>
</svg>
