<svg preserveAspectRatio="none" width="100%" height="100%" overflow="visible" style="display: block;" viewBox="0 0 33.1453 36.7373" fill="none" xmlns="http://www.w3.org/2000/svg">
<g id="freepik--Fingers--inject-72">
<path id="Vector" d="M3.46499 36.6413C7.08399 35.5633 8.14799 33.2743 8.14799 33.2743C8.14799 33.2743 9.66699 35.1503 12.866 34.0373C14.8279 33.2988 16.4382 31.8461 17.374 29.9703C17.374 29.9703 19.005 31.6293 21.854 30.6703C24.703 29.7113 26.005 26.6383 26.005 26.6383C26.7716 26.8888 27.5918 26.9267 28.3783 26.748C29.1647 26.5692 29.888 26.1805 30.471 25.6233C32.522 23.6843 32.382 22.1233 32.928 18.7143C33.474 15.3053 33.019 14.1993 31.248 10.8533C29.344 7.35329 26.656 2.99229 24.948 2.45329C24.4622 2.29998 23.9433 2.28423 23.4491 2.40779C22.9549 2.53135 22.5045 2.78939 22.148 3.15329C21.7342 2.39258 21.2262 1.68702 20.636 1.05329C19.607 0.0242913 17.71 0.178287 16.52 1.95629C15.33 3.73429 15.008 5.45629 15.456 6.85629C13.51 4.16129 11.48 4.05629 9.905 5.86229C8.33 7.66829 7.25898 11.0563 8.22498 16.0823C6.12498 15.1373 3.47199 17.0483 2.55499 19.2953C1.63799 21.5423 0.0349971 26.6383 0.0349971 26.6383C0.0349971 26.6383 -0.161007 37.7123 3.46499 36.6413Z" fill="var(--fill-0, #FFA8A7)"/>
<path id="Vector_2" d="M32.914 18.6723C33.0234 18.0191 33.0935 17.3599 33.124 16.6983C32.8065 17.8816 32.0573 18.9031 31.024 19.5613C29.883 20.1633 28.147 19.6943 27.902 18.4273C27.848 19.8873 27.2832 21.2821 26.306 22.3683C25.459 23.3973 24.206 24.3213 22.904 24.0063C21.378 23.6423 20.755 21.8643 20.377 20.3453C20.0199 22.1744 19.2462 23.8966 18.116 25.3783C17.5458 26.1141 16.8064 26.7013 15.9606 27.09C15.1148 27.4788 14.1877 27.6576 13.258 27.6113C11.417 27.4223 9.70899 25.8123 9.75799 23.9573C9.76761 25.7133 9.22389 27.4278 8.20399 28.8573C7.13299 30.2573 5.404 31.3493 3.696 30.6633C2.88623 30.3488 2.17881 29.8172 1.65149 29.1269C1.12417 28.4366 0.797374 27.6143 0.706998 26.7503C0.713287 26.0979 0.680563 25.4458 0.608999 24.7973C0.272999 25.8263 0.0420006 26.5543 0.0420006 26.5543C0.0420006 26.5543 -0.182002 37.7543 3.43 36.6623C7.042 35.5703 8.11301 33.2953 8.11301 33.2953C8.11301 33.2953 9.632 35.1713 12.831 34.0583C14.7929 33.3198 16.4032 31.8671 17.339 29.9913C17.339 29.9913 18.97 31.6503 21.819 30.6913C24.668 29.7323 25.97 26.6593 25.97 26.6593C26.7366 26.9098 27.5568 26.9477 28.3433 26.769C29.1297 26.5902 29.853 26.2016 30.436 25.6443C32.508 23.6493 32.368 22.0883 32.914 18.6723Z" fill="var(--fill-0, #F28F8F)"/>
<path id="Vector_3" d="M22.26 2.69129C24.7752 6.22375 26.7695 10.0994 28.182 14.1993C28.735 16.2993 28.343 18.5113 27.916 20.5903C27.5126 22.6633 26.8665 24.6815 25.991 26.6033C26.3122 25.6076 26.5717 24.593 26.768 23.5653C27.3 20.5833 28.168 17.3913 27.468 14.4023C26.187 10.4613 23.87 6.89129 21.98 3.20229L22.26 2.69129Z" fill="var(--fill-0, #B16668)"/>
<path id="Vector_4" d="M15.484 6.77229C17.6547 10.2867 19.3051 14.0969 20.384 18.0843C21.035 21.2063 19.775 24.3353 18.718 27.2193C18.3235 28.1809 17.8676 29.1162 17.353 30.0193C17.717 29.0603 18.053 28.1013 18.368 27.1213C19.138 24.3213 20.251 21.1503 19.635 18.2803C19.257 16.5863 18.312 14.1643 17.759 12.4843C17.1039 10.5489 16.3421 8.65134 15.477 6.80029L15.484 6.77229Z" fill="var(--fill-0, #B16668)"/>
<path id="Vector_5" d="M8.25299 15.9773C11.053 17.7553 10.353 21.6613 10.262 24.4823C10.0616 27.5102 9.35161 30.4826 8.16199 33.2743C8.82706 30.3589 9.28322 27.3997 9.527 24.4193C9.611 21.6193 10.556 18.1193 8.281 15.9773H8.25299Z" fill="var(--fill-0, #B16668)"/>
<path id="Vector_6" d="M31.234 10.8183C30.1122 8.84815 28.8757 6.94554 27.531 5.12028C26.264 3.41928 24.437 1.34028 22.365 3.25828L22.12 3.51028L21.952 3.20929C20.958 1.43829 19.579 -0.36072 17.514 1.27728C16.163 2.57228 15.26 4.77728 15.82 6.63928L16.52 8.73928C15.12 6.78628 12.922 3.22328 10.374 5.89728C7.97299 8.57128 8.008 12.5683 8.603 15.9353L8.722 16.5653L8.13401 16.3063C6.03401 15.4663 3.822 17.3073 2.954 19.1063C2.569 19.9953 1.862 22.0743 1.505 22.9983C0.4106 25.5532 0.0237526 28.3554 0.385002 31.1113C0.462797 32.0363 0.600753 32.9552 0.798 33.8623C0.314937 32.0592 0.0470721 30.2053 0 28.3393C0.00585277 26.4579 0.371765 24.5951 1.078 22.8513C1.421 21.8713 2.07899 19.8063 2.44299 18.8753C3.03738 17.5174 4.10096 16.419 5.439 15.7813C5.89849 15.5529 6.40106 15.4242 6.91377 15.4037C7.42648 15.3832 7.93774 15.4713 8.414 15.6623L7.93801 16.0333C7.23801 12.4633 7.23799 8.21428 9.82099 5.33728C11.83 3.13928 14.385 4.40629 15.792 6.53429L15.169 6.84928C14.539 4.65128 15.526 2.28528 17.115 0.766282C19.537 -1.10272 21.315 0.766286 22.428 2.95729L22.008 2.90828C24.381 0.808281 26.446 2.85928 27.811 4.92428C29.0914 6.8061 30.2421 8.773 31.255 10.8113L31.234 10.8183Z" fill="var(--fill-0, #B16668)"/>
</g>
</svg>
