<svg preserveAspectRatio="none" width="100%" height="100%" overflow="visible" style="display: block;" viewBox="0 0 105.891 109.136" fill="none" xmlns="http://www.w3.org/2000/svg">
<g id="freepik--Hand--inject-72">
<path id="Vector" d="M45.227 27.0327C36.323 33.4517 32.872 34.7327 26.565 43.0907C20.258 51.4487 16.065 56.6637 12.908 61.4167C9.751 66.1697 7.847 74.4647 4.94901 81.1147C2.84901 86.0147 0 91.3417 0 92.3917C0 93.9527 1.505 95.4157 5.467 95.1007C6.63913 95.0362 7.7716 94.6538 8.743 93.9947C8.92419 94.9073 9.20591 95.7971 9.583 96.6477C10.633 99.1957 14 104.439 15.799 105.559C17.598 106.679 19.999 109.997 23.59 108.926C27.181 107.855 28.273 105.559 28.273 105.559C28.273 105.559 29.792 107.435 32.991 106.322C34.9529 105.583 36.5632 104.13 37.499 102.255C37.499 102.255 39.13 103.914 41.979 102.955C44.828 101.996 46.13 98.9227 46.13 98.9227C46.8966 99.1732 47.7168 99.2111 48.5033 99.0324C49.2897 98.8537 50.013 98.465 50.596 97.9077C52.647 95.9687 52.507 94.4077 53.053 90.9987C53.599 87.5897 53.144 86.4837 51.373 83.1377C51.373 83.1377 52.213 79.4907 53.137 75.1157C54.334 69.4527 52.794 64.9097 54.194 62.8797C54.894 61.8437 58.359 59.3797 61.474 57.8117C66.402 55.2567 102.004 37.0147 102.004 37.0147C102.004 37.0147 110.901 31.4147 101.766 13.1167C93.667 -3.11629 80.766 0.299714 80.766 0.299714C80.766 0.299714 50.631 23.1337 45.227 27.0327Z" fill="var(--fill-0, #FFA8A7)"/>
<path id="Vector_2" d="M105.007 21.4117C104.797 25.5487 103.39 29.4547 98.203 33.3117C91.644 38.2117 60.305 54.0947 56.588 55.2567C53.886 56.0967 50.407 51.4277 50.855 54.8577C51.303 58.2877 53.97 61.7667 53.578 65.2737C53.5577 64.4186 53.7707 63.574 54.194 62.8307C54.894 61.7947 58.359 59.3307 61.474 57.7627C66.402 55.2567 102.004 37.0147 102.004 37.0147C102.004 37.0147 108.122 33.1577 105.007 21.4117Z" fill="var(--fill-0, #F28F8F)"/>
<path id="Vector_3" d="M44.604 96.1927C45.2886 93.7777 45.5584 91.264 45.402 88.7587C45.1719 85.0223 44.1658 81.3748 42.448 78.0487C41.545 76.2847 40.348 74.5137 38.5 73.7787C36.652 73.0437 34.104 73.8907 33.705 75.8367C31.724 74.8847 29.246 75.9487 27.909 77.6917C26.572 79.4347 26.11 81.6817 25.732 83.8447C24.64 83.5857 23.541 84.3067 22.841 85.1887C22.141 86.0707 21.672 87.1207 20.909 87.9467C20.7885 88.0924 20.6278 88.1995 20.447 88.2547C20.069 88.3387 19.747 87.9887 19.565 87.6457C19.3151 87.0828 19.1813 86.4753 19.1716 85.8594C19.162 85.2436 19.2768 84.6322 19.509 84.0617C19.9749 82.925 20.5641 81.8429 21.266 80.8347C22.197 79.3437 24.801 73.1347 23.835 71.2867C22.197 75.3677 20.174 76.4737 19.845 77.5027C17.409 85.2027 14.245 89.3187 8.806 93.9947C8.98825 94.9079 9.27236 95.7978 9.653 96.6477C10.696 99.1957 14.063 104.439 15.862 105.559C17.661 106.679 20.062 109.997 23.66 108.926C27.258 107.855 28.336 105.559 28.336 105.559C28.336 105.559 29.855 107.435 33.054 106.322C35.0177 105.586 36.629 104.133 37.562 102.255C38.0643 102.684 38.6615 102.987 39.3042 103.139C39.947 103.291 40.6167 103.288 41.258 103.13C42.7113 100.996 43.839 98.6582 44.604 96.1927Z" fill="var(--fill-0, #F28F8F)"/>
<path id="Vector_4" d="M38.304 62.0747C38.192 61.9207 38.066 62.0747 38.115 62.2007C38.885 64.5317 39.648 66.8837 39.599 69.3687C39.5846 70.4639 39.3907 71.5493 39.025 72.5817C38.8483 73.0661 38.6305 73.5345 38.374 73.9817C38.0036 74.4613 37.6911 74.9829 37.443 75.5357C37.324 75.9627 37.814 76.1727 38.143 76.0747C38.696 75.9067 39.06 75.1367 39.333 74.6747C39.6107 74.1901 39.845 73.6817 40.033 73.1557C40.4425 72.0313 40.6786 70.8511 40.733 69.6557C40.8485 66.9206 39.9875 64.2335 38.304 62.0747Z" fill="var(--fill-0, #F28F8F)"/>
<path id="Vector_5" d="M17.71 69.5227C19.11 72.0637 20.72 75.0667 19.957 78.1327C18.0698 84.508 14.1333 90.0831 8.75699 93.9947C10.4931 92.3844 12.1032 90.6433 13.573 88.7867C15.7575 86.0104 17.4892 82.906 18.704 79.5887C19.1775 78.5445 19.4551 77.4222 19.523 76.2777C19.523 73.9397 18.508 71.7137 17.738 69.5227H17.71Z" fill="var(--fill-0, #B16668)"/>
<path id="Vector_6" d="M23.513 61.7457C25.508 67.2547 24.647 73.5477 20.013 77.5027L19.516 76.9147C24.157 73.3237 25.207 67.1637 23.506 61.7457H23.513Z" fill="var(--fill-0, #B16668)"/>
</g>
</svg>
