<svg preserveAspectRatio="none" width="100%" height="100%" overflow="visible" style="display: block;" viewBox="0 0 50.0994 66.325" fill="none" xmlns="http://www.w3.org/2000/svg">
<path id="freepik--Logo--inject-72" d="M49.2879 19.166C46.7609 7.09098 38.8369 0 29.5549 0C25.739 0.0647014 22.008 1.13692 18.7399 3.108C5.34891 10.843 -2.6801 30.562 0.819903 47.159C3.3539 59.227 11.2779 66.325 20.5599 66.325C24.3758 66.2603 28.1068 65.1881 31.3749 63.217C44.7379 55.482 52.7669 35.763 49.2879 19.166ZM42.7499 42.924C39.7119 50.386 34.9099 56.301 29.2399 59.57C26.6146 61.1766 23.6092 62.056 20.5319 62.118C12.9439 62.118 6.9519 56.056 4.9079 46.298C3.3959 39.081 4.25689 30.947 7.32989 23.394C10.4029 15.841 15.1699 10.024 20.8399 6.74799C23.4696 5.1464 26.4765 4.26968 29.5549 4.20699C37.1429 4.20699 43.1279 10.269 45.1719 20.027C46.6839 27.244 45.8229 35.371 42.7499 42.924ZM22.1419 19.341C15.9819 22.897 12.2929 31.941 13.8889 39.599C15.4849 47.257 21.7779 50.54 27.9379 46.984C34.0979 43.428 37.7939 34.384 36.1909 26.726C34.5879 19.068 28.3019 15.785 22.1419 19.341Z" fill="var(--fill-0, white)"/>
</svg>
