<svg preserveAspectRatio="none" width="100%" height="100%" overflow="visible" style="display: block;" viewBox="0 0 292.501 297.231" fill="none" xmlns="http://www.w3.org/2000/svg">
<g id="freepik--stars--inject-72">
<path id="Vector" d="M14.338 165.492L14.758 168.53L17.502 169.93C17.5537 169.956 17.5972 169.995 17.6277 170.044C17.6581 170.093 17.6743 170.149 17.6743 170.207C17.6743 170.264 17.6581 170.321 17.6277 170.37C17.5972 170.419 17.5537 170.458 17.502 170.483L14.702 171.82L14.24 174.858C14.2298 174.915 14.2044 174.968 14.1665 175.011C14.1286 175.054 14.0795 175.086 14.0247 175.103C13.97 175.12 13.9115 175.122 13.8556 175.109C13.7998 175.095 13.7487 175.067 13.708 175.026L11.608 172.807L8.58395 173.304C8.52653 173.313 8.46774 173.306 8.41409 173.284C8.36044 173.261 8.31401 173.225 8.27996 173.178C8.2459 173.131 8.22554 173.075 8.22113 173.017C8.21671 172.959 8.22842 172.901 8.25495 172.849L9.71095 170.147L8.31095 167.417C8.28572 167.365 8.2753 167.307 8.28085 167.25C8.2864 167.192 8.30769 167.137 8.3424 167.091C8.37711 167.045 8.42389 167.009 8.47761 166.987C8.53133 166.966 8.58992 166.96 8.64695 166.969L11.664 167.515L13.806 165.317C13.846 165.274 13.8977 165.243 13.9548 165.228C14.0119 165.214 14.0721 165.216 14.1281 165.234C14.1841 165.252 14.2337 165.287 14.2709 165.332C14.3081 165.378 14.3314 165.434 14.338 165.492Z" fill="var(--fill-0, #FF6B57)"/>
<path id="Vector_2" opacity="0.6" d="M14.338 165.492L14.758 168.53L17.502 169.93C17.5537 169.956 17.5972 169.995 17.6277 170.044C17.6581 170.093 17.6743 170.149 17.6743 170.207C17.6743 170.264 17.6581 170.321 17.6277 170.37C17.5972 170.419 17.5537 170.458 17.502 170.483L14.702 171.82L14.24 174.858C14.2298 174.915 14.2044 174.968 14.1665 175.011C14.1286 175.054 14.0795 175.086 14.0247 175.103C13.97 175.12 13.9115 175.122 13.8556 175.109C13.7998 175.095 13.7487 175.067 13.708 175.026L11.608 172.807L8.58395 173.304C8.52653 173.313 8.46774 173.306 8.41409 173.284C8.36044 173.261 8.31401 173.225 8.27996 173.178C8.2459 173.131 8.22554 173.075 8.22113 173.017C8.21671 172.959 8.22842 172.901 8.25495 172.849L9.71095 170.147L8.31095 167.417C8.28572 167.365 8.2753 167.307 8.28085 167.25C8.2864 167.192 8.30769 167.137 8.3424 167.091C8.37711 167.045 8.42389 167.009 8.47761 166.987C8.53133 166.966 8.58992 166.96 8.64695 166.969L11.664 167.515L13.806 165.317C13.846 165.274 13.8977 165.243 13.9548 165.228C14.0119 165.214 14.0721 165.216 14.1281 165.234C14.1841 165.252 14.2337 165.287 14.2709 165.332C14.3081 165.378 14.3314 165.434 14.338 165.492Z" fill="var(--fill-0, white)"/>
<path id="Vector_3" d="M7.68095 85.1672L10.649 87.6172L14.338 86.5322C14.4078 86.5133 14.4815 86.514 14.5509 86.5343C14.6203 86.5547 14.6827 86.5938 14.7313 86.6474C14.7798 86.7011 14.8126 86.7671 14.826 86.8382C14.8393 86.9092 14.8327 86.9827 14.807 87.0502L13.407 90.6202L15.563 93.7982C15.6031 93.8585 15.6258 93.9286 15.6285 94.0009C15.6312 94.0733 15.6138 94.1449 15.5783 94.208C15.5428 94.271 15.4905 94.323 15.4272 94.3582C15.364 94.3934 15.2923 94.4103 15.22 94.4072L11.391 94.1832L9.03195 97.2072C8.98981 97.2713 8.92949 97.3214 8.85872 97.3509C8.78795 97.3805 8.70996 97.3883 8.63475 97.3732C8.55954 97.3582 8.49053 97.321 8.43658 97.2665C8.38263 97.212 8.3462 97.1426 8.33195 97.0672L7.35895 93.3572L3.74695 92.0482C3.67584 92.0257 3.6128 91.983 3.5655 91.9253C3.51821 91.8676 3.48869 91.7975 3.48053 91.7233C3.47237 91.6492 3.48593 91.5742 3.51956 91.5077C3.55319 91.4411 3.60544 91.3857 3.66995 91.3482L6.90395 89.2482L7.02995 85.4122C7.03602 85.3397 7.06254 85.2703 7.10645 85.2122C7.15036 85.1541 7.20985 85.1096 7.27801 85.084C7.34617 85.0583 7.42022 85.0525 7.49154 85.0672C7.56286 85.082 7.62854 85.1167 7.68095 85.1672Z" fill="var(--fill-0, #FF6B57)"/>
<path id="Vector_4" opacity="0.6" d="M7.68095 85.1672L10.649 87.6172L14.338 86.5322C14.4078 86.5133 14.4815 86.514 14.5509 86.5343C14.6203 86.5547 14.6827 86.5938 14.7313 86.6474C14.7798 86.7011 14.8126 86.7671 14.826 86.8382C14.8393 86.9092 14.8327 86.9827 14.807 87.0502L13.407 90.6202L15.563 93.7982C15.6031 93.8585 15.6258 93.9286 15.6285 94.0009C15.6312 94.0733 15.6138 94.1449 15.5783 94.208C15.5428 94.271 15.4905 94.323 15.4272 94.3582C15.364 94.3934 15.2923 94.4103 15.22 94.4072L11.391 94.1832L9.03195 97.2072C8.98981 97.2713 8.92949 97.3214 8.85872 97.3509C8.78795 97.3805 8.70996 97.3883 8.63475 97.3732C8.55954 97.3582 8.49053 97.321 8.43658 97.2665C8.38263 97.212 8.3462 97.1426 8.33195 97.0672L7.35895 93.3572L3.74695 92.0482C3.67584 92.0257 3.6128 91.983 3.5655 91.9253C3.51821 91.8676 3.48869 91.7975 3.48053 91.7233C3.47237 91.6492 3.48593 91.5742 3.51956 91.5077C3.55319 91.4411 3.60544 91.3857 3.66995 91.3482L6.90395 89.2482L7.02995 85.4122C7.03602 85.3397 7.06254 85.2703 7.10645 85.2122C7.15036 85.1541 7.20985 85.1096 7.27801 85.084C7.34617 85.0583 7.42022 85.0525 7.49154 85.0672C7.56286 85.082 7.62854 85.1167 7.68095 85.1672Z" fill="var(--fill-0, white)"/>
<path id="Vector_5" d="M25.685 10.6732L27.645 12.2832L30.081 11.5832C30.127 11.5711 30.1756 11.5719 30.2213 11.5855C30.2669 11.5992 30.3079 11.6251 30.3398 11.6606C30.3716 11.6961 30.3931 11.7396 30.4017 11.7865C30.4104 11.8334 30.406 11.8817 30.389 11.9262L29.465 14.2852L30.865 16.3852C30.8932 16.4242 30.9097 16.4705 30.9124 16.5185C30.9152 16.5666 30.9041 16.6144 30.8806 16.6564C30.857 16.6984 30.8219 16.7327 30.7795 16.7554C30.737 16.778 30.6889 16.788 30.641 16.7842L28.114 16.6372L26.553 18.6322C26.5245 18.6709 26.4855 18.7006 26.4407 18.7179C26.3958 18.7352 26.347 18.7393 26.2999 18.7297C26.2528 18.7202 26.2095 18.6973 26.1749 18.6639C26.1404 18.6305 26.1161 18.588 26.105 18.5412L25.468 16.0912L23.088 15.2302C23.0438 15.2135 23.0051 15.1851 22.9759 15.148C22.9468 15.1109 22.9283 15.0665 22.9226 15.0196C22.9168 14.9728 22.924 14.9253 22.9432 14.8822C22.9625 14.8391 22.9932 14.8021 23.032 14.7752L25.132 13.3752L25.216 10.8412C25.2045 10.7821 25.2145 10.7208 25.2443 10.6685C25.2741 10.6162 25.3217 10.5762 25.3784 10.5559C25.435 10.5356 25.4971 10.5363 25.5534 10.5578C25.6096 10.5793 25.6563 10.6203 25.685 10.6732Z" fill="var(--fill-0, #FF6B57)"/>
<path id="Vector_6" opacity="0.6" d="M25.685 10.6732L27.645 12.2832L30.081 11.5832C30.127 11.5711 30.1756 11.5719 30.2213 11.5855C30.2669 11.5992 30.3079 11.6251 30.3398 11.6606C30.3716 11.6961 30.3931 11.7396 30.4017 11.7865C30.4104 11.8334 30.406 11.8817 30.389 11.9262L29.465 14.2852L30.865 16.3852C30.8932 16.4242 30.9097 16.4705 30.9124 16.5185C30.9152 16.5666 30.9041 16.6144 30.8806 16.6564C30.857 16.6984 30.8219 16.7327 30.7795 16.7554C30.737 16.778 30.6889 16.788 30.641 16.7842L28.114 16.6372L26.553 18.6322C26.5245 18.6709 26.4855 18.7006 26.4407 18.7179C26.3958 18.7352 26.347 18.7393 26.2999 18.7297C26.2528 18.7202 26.2095 18.6973 26.1749 18.6639C26.1404 18.6305 26.1161 18.588 26.105 18.5412L25.468 16.0912L23.088 15.2302C23.0438 15.2135 23.0051 15.1851 22.9759 15.148C22.9468 15.1109 22.9283 15.0665 22.9226 15.0196C22.9168 14.9728 22.924 14.9253 22.9432 14.8822C22.9625 14.8391 22.9932 14.8021 23.032 14.7752L25.132 13.3752L25.216 10.8412C25.2045 10.7821 25.2145 10.7208 25.2443 10.6685C25.2741 10.6162 25.3217 10.5762 25.3784 10.5559C25.435 10.5356 25.4971 10.5363 25.5534 10.5578C25.6096 10.5793 25.6563 10.6203 25.685 10.6732Z" fill="var(--fill-0, white)"/>
<path id="Vector_7" d="M271.35 161.922L272.337 164.617L275.137 165.317C275.189 165.331 275.237 165.359 275.274 165.398C275.312 165.437 275.337 165.486 275.349 165.539C275.361 165.591 275.357 165.646 275.34 165.697C275.322 165.749 275.291 165.794 275.249 165.828L272.981 167.599L273.163 170.469C273.165 170.523 273.153 170.577 273.127 170.624C273.101 170.672 273.062 170.711 273.015 170.738C272.968 170.765 272.914 170.778 272.86 170.776C272.806 170.775 272.753 170.758 272.708 170.728L270.328 169.118L267.633 170.217C267.583 170.238 267.527 170.245 267.473 170.235C267.419 170.226 267.369 170.202 267.329 170.165C267.288 170.128 267.259 170.081 267.245 170.028C267.231 169.975 267.232 169.919 267.248 169.867L268.032 167.067L266.205 164.855C266.169 164.814 266.145 164.763 266.137 164.708C266.129 164.653 266.137 164.597 266.16 164.547C266.183 164.497 266.22 164.454 266.266 164.425C266.313 164.395 266.367 164.379 266.422 164.379L269.292 164.274L270.832 161.852C270.863 161.808 270.905 161.773 270.955 161.751C271.004 161.73 271.059 161.722 271.112 161.729C271.166 161.737 271.216 161.758 271.258 161.792C271.3 161.826 271.332 161.871 271.35 161.922Z" fill="var(--fill-0, #FF6B57)"/>
<path id="Vector_8" opacity="0.6" d="M271.35 161.922L272.337 164.617L275.137 165.317C275.189 165.331 275.237 165.359 275.274 165.398C275.312 165.437 275.337 165.486 275.349 165.539C275.361 165.591 275.357 165.646 275.34 165.697C275.322 165.749 275.291 165.794 275.249 165.828L272.981 167.599L273.163 170.469C273.165 170.523 273.153 170.577 273.127 170.624C273.101 170.672 273.062 170.711 273.015 170.738C272.968 170.765 272.914 170.778 272.86 170.776C272.806 170.775 272.753 170.758 272.708 170.728L270.328 169.118L267.633 170.217C267.583 170.238 267.527 170.245 267.473 170.235C267.419 170.226 267.369 170.202 267.329 170.165C267.288 170.128 267.259 170.081 267.245 170.028C267.231 169.975 267.232 169.919 267.248 169.867L268.032 167.067L266.205 164.855C266.169 164.814 266.145 164.763 266.137 164.708C266.129 164.653 266.137 164.597 266.16 164.547C266.183 164.497 266.22 164.454 266.266 164.425C266.313 164.395 266.367 164.379 266.422 164.379L269.292 164.274L270.832 161.852C270.863 161.808 270.905 161.773 270.955 161.751C271.004 161.73 271.059 161.722 271.112 161.729C271.166 161.737 271.216 161.758 271.258 161.792C271.3 161.826 271.332 161.871 271.35 161.922Z" fill="var(--fill-0, white)"/>
<path id="Vector_9" d="M15.479 183.923L15.703 185.561L17.187 186.317C17.215 186.331 17.2386 186.353 17.2551 186.379C17.2716 186.406 17.2803 186.436 17.2803 186.468C17.2803 186.499 17.2716 186.53 17.2551 186.556C17.2386 186.583 17.215 186.604 17.187 186.618L15.696 187.318L15.451 188.956C15.4462 188.987 15.4329 189.016 15.4125 189.04C15.3921 189.064 15.3655 189.081 15.3357 189.091C15.3059 189.1 15.274 189.101 15.2436 189.093C15.2133 189.086 15.1857 189.07 15.164 189.047L14.016 187.85L12.385 188.116C12.3544 188.123 12.3224 188.121 12.293 188.11C12.2635 188.099 12.238 188.08 12.2194 188.055C12.2008 188.029 12.19 187.999 12.1883 187.968C12.1866 187.937 12.1942 187.905 12.21 187.878L12.994 186.415L12.238 184.952C12.2245 184.924 12.2191 184.893 12.2222 184.862C12.2254 184.831 12.2371 184.802 12.2559 184.777C12.2748 184.753 12.3001 184.734 12.329 184.723C12.358 184.711 12.3894 184.709 12.42 184.714L14.044 185.001L15.213 183.825C15.2347 183.806 15.2613 183.793 15.2899 183.788C15.3185 183.782 15.3479 183.785 15.3752 183.795C15.4025 183.805 15.4265 183.822 15.4448 183.845C15.4631 183.867 15.4749 183.894 15.479 183.923Z" fill="var(--fill-0, #FF6B57)"/>
<path id="Vector_10" opacity="0.6" d="M15.479 183.923L15.703 185.561L17.187 186.317C17.215 186.331 17.2386 186.353 17.2551 186.379C17.2716 186.406 17.2803 186.436 17.2803 186.468C17.2803 186.499 17.2716 186.53 17.2551 186.556C17.2386 186.583 17.215 186.604 17.187 186.618L15.696 187.318L15.451 188.956C15.4462 188.987 15.4329 189.016 15.4125 189.04C15.3921 189.064 15.3655 189.081 15.3357 189.091C15.3059 189.1 15.274 189.101 15.2436 189.093C15.2133 189.086 15.1857 189.07 15.164 189.047L14.016 187.85L12.385 188.116C12.3544 188.123 12.3224 188.121 12.293 188.11C12.2635 188.099 12.238 188.08 12.2194 188.055C12.2008 188.029 12.19 187.999 12.1883 187.968C12.1866 187.937 12.1942 187.905 12.21 187.878L12.994 186.415L12.238 184.952C12.2245 184.924 12.2191 184.893 12.2222 184.862C12.2254 184.831 12.2371 184.802 12.2559 184.777C12.2748 184.753 12.3001 184.734 12.329 184.723C12.358 184.711 12.3894 184.709 12.42 184.714L14.044 185.001L15.213 183.825C15.2347 183.806 15.2613 183.793 15.2899 183.788C15.3185 183.782 15.3479 183.785 15.3752 183.795C15.4025 183.805 15.4265 183.822 15.4448 183.845C15.4631 183.867 15.4749 183.894 15.479 183.923Z" fill="var(--fill-0, white)"/>
<path id="Vector_11" d="M131.854 292.822L133.338 293.256L134.542 292.283C134.564 292.265 134.591 292.253 134.619 292.249C134.648 292.245 134.676 292.25 134.703 292.261C134.729 292.273 134.751 292.292 134.767 292.315C134.784 292.339 134.793 292.367 134.794 292.395L134.843 293.949L136.138 294.817C136.165 294.83 136.187 294.849 136.203 294.874C136.219 294.899 136.228 294.928 136.228 294.957C136.228 294.987 136.219 295.016 136.203 295.04C136.187 295.065 136.165 295.085 136.138 295.097L134.675 295.615L134.276 297.113C134.269 297.142 134.254 297.167 134.233 297.188C134.212 297.208 134.186 297.222 134.157 297.228C134.129 297.234 134.099 297.231 134.072 297.221C134.044 297.211 134.02 297.193 134.003 297.169L133.058 295.944L131.511 296.021C131.482 296.023 131.454 296.017 131.428 296.004C131.403 295.991 131.382 295.97 131.367 295.946C131.352 295.921 131.345 295.893 131.346 295.864C131.346 295.835 131.355 295.807 131.371 295.783L132.246 294.502L131.693 293.06C131.675 293.035 131.666 293.004 131.665 292.973C131.665 292.942 131.674 292.912 131.692 292.886C131.709 292.86 131.734 292.84 131.763 292.829C131.792 292.818 131.824 292.815 131.854 292.822Z" fill="var(--fill-0, #FF6B57)"/>
<path id="Vector_12" opacity="0.6" d="M131.854 292.822L133.338 293.256L134.542 292.283C134.564 292.265 134.591 292.253 134.619 292.249C134.648 292.245 134.676 292.25 134.703 292.261C134.729 292.273 134.751 292.292 134.767 292.315C134.784 292.339 134.793 292.367 134.794 292.395L134.843 293.949L136.138 294.817C136.165 294.83 136.187 294.849 136.203 294.874C136.219 294.899 136.228 294.928 136.228 294.957C136.228 294.987 136.219 295.016 136.203 295.04C136.187 295.065 136.165 295.085 136.138 295.097L134.675 295.615L134.276 297.113C134.269 297.142 134.254 297.167 134.233 297.188C134.212 297.208 134.186 297.222 134.157 297.228C134.129 297.234 134.099 297.231 134.072 297.221C134.044 297.211 134.02 297.193 134.003 297.169L133.058 295.944L131.511 296.021C131.482 296.023 131.454 296.017 131.428 296.004C131.403 295.991 131.382 295.97 131.367 295.946C131.352 295.921 131.345 295.893 131.346 295.864C131.346 295.835 131.355 295.807 131.371 295.783L132.246 294.502L131.693 293.06C131.675 293.035 131.666 293.004 131.665 292.973C131.665 292.942 131.674 292.912 131.692 292.886C131.709 292.86 131.734 292.84 131.763 292.829C131.792 292.818 131.824 292.815 131.854 292.822Z" fill="var(--fill-0, white)"/>
<path id="Vector_13" d="M284.776 31.6172L284.958 33.1572L286.323 33.8572C286.35 33.8695 286.372 33.8892 286.388 33.9141C286.404 33.9389 286.413 33.9677 286.413 33.9972C286.413 34.0267 286.404 34.0556 286.388 34.0804C286.372 34.1052 286.35 34.1249 286.323 34.1372L284.923 34.7812L284.657 36.3072C284.652 36.3362 284.639 36.3632 284.619 36.3852C284.599 36.4072 284.574 36.4234 284.546 36.4321C284.518 36.4407 284.488 36.4415 284.459 36.4343C284.431 36.4271 284.405 36.4122 284.384 36.3912L283.334 35.2502L281.801 35.4672C281.772 35.4713 281.743 35.4671 281.716 35.4553C281.69 35.4434 281.667 35.4243 281.651 35.4002C281.635 35.376 281.626 35.3478 281.626 35.3188C281.625 35.2898 281.632 35.2612 281.647 35.2362L282.403 33.8852L281.703 32.4852C281.689 32.4593 281.683 32.4299 281.685 32.4005C281.687 32.3711 281.697 32.3429 281.715 32.3193C281.733 32.2957 281.757 32.2777 281.785 32.2674C281.812 32.2571 281.842 32.255 281.871 32.2612L283.39 32.5622L284.538 31.4912C284.561 31.4783 284.588 31.4715 284.614 31.4712C284.641 31.471 284.667 31.4775 284.691 31.49C284.715 31.5025 284.735 31.5206 284.75 31.5428C284.764 31.5651 284.773 31.5906 284.776 31.6172Z" fill="var(--fill-0, #FF6B57)"/>
<path id="Vector_14" opacity="0.6" d="M284.776 31.6172L284.958 33.1572L286.323 33.8572C286.35 33.8695 286.372 33.8892 286.388 33.9141C286.404 33.9389 286.413 33.9677 286.413 33.9972C286.413 34.0267 286.404 34.0556 286.388 34.0804C286.372 34.1052 286.35 34.1249 286.323 34.1372L284.923 34.7812L284.657 36.3072C284.652 36.3362 284.639 36.3632 284.619 36.3852C284.599 36.4072 284.574 36.4234 284.546 36.4321C284.518 36.4407 284.488 36.4415 284.459 36.4343C284.431 36.4271 284.405 36.4122 284.384 36.3912L283.334 35.2502L281.801 35.4672C281.772 35.4713 281.743 35.4671 281.716 35.4553C281.69 35.4434 281.667 35.4243 281.651 35.4002C281.635 35.376 281.626 35.3478 281.626 35.3188C281.625 35.2898 281.632 35.2612 281.647 35.2362L282.403 33.8852L281.703 32.4852C281.689 32.4593 281.683 32.4299 281.685 32.4005C281.687 32.3711 281.697 32.3429 281.715 32.3193C281.733 32.2957 281.757 32.2777 281.785 32.2674C281.812 32.2571 281.842 32.255 281.871 32.2612L283.39 32.5622L284.538 31.4912C284.561 31.4783 284.588 31.4715 284.614 31.4712C284.641 31.471 284.667 31.4775 284.691 31.49C284.715 31.5025 284.735 31.5206 284.75 31.5428C284.764 31.5651 284.773 31.5906 284.776 31.6172Z" fill="var(--fill-0, white)"/>
<path id="Vector_15" d="M34.995 245.257L35.093 247.588L37.074 248.827C37.1104 248.851 37.1395 248.884 37.1583 248.924C37.177 248.963 37.1846 249.007 37.1803 249.05C37.176 249.093 37.1599 249.135 37.1337 249.169C37.1075 249.204 37.0724 249.231 37.032 249.247L34.848 250.066L34.281 252.327C34.2688 252.369 34.2456 252.406 34.2136 252.436C34.1817 252.465 34.1424 252.485 34.0998 252.494C34.0573 252.503 34.0132 252.5 33.9724 252.485C33.9315 252.47 33.8954 252.445 33.868 252.411L32.419 250.591L30.088 250.752C30.0439 250.756 29.9995 250.748 29.9602 250.728C29.9208 250.707 29.8881 250.676 29.866 250.638C29.8439 250.599 29.8332 250.555 29.8354 250.511C29.8375 250.467 29.8523 250.424 29.8779 250.388L31.138 248.442L30.263 246.279C30.2447 246.239 30.2386 246.194 30.2454 246.15C30.2521 246.106 30.2714 246.064 30.301 246.031C30.3306 245.998 30.3692 245.974 30.4121 245.962C30.455 245.95 30.5005 245.951 30.543 245.964L32.79 246.587L34.638 245.117C34.6691 245.096 34.7051 245.082 34.7427 245.078C34.7803 245.073 34.8185 245.078 34.8537 245.092C34.889 245.106 34.9203 245.128 34.945 245.157C34.9696 245.186 34.9868 245.22 34.995 245.257Z" fill="var(--fill-0, #FF6B57)"/>
<path id="Vector_16" opacity="0.6" d="M34.995 245.257L35.093 247.588L37.074 248.827C37.1104 248.851 37.1395 248.884 37.1583 248.924C37.177 248.963 37.1846 249.007 37.1803 249.05C37.176 249.093 37.1599 249.135 37.1337 249.169C37.1075 249.204 37.0724 249.231 37.032 249.247L34.848 250.066L34.281 252.327C34.2688 252.369 34.2456 252.406 34.2136 252.436C34.1817 252.465 34.1424 252.485 34.0998 252.494C34.0573 252.503 34.0132 252.5 33.9724 252.485C33.9315 252.47 33.8954 252.445 33.868 252.411L32.419 250.591L30.088 250.752C30.0439 250.756 29.9995 250.748 29.9602 250.728C29.9208 250.707 29.8881 250.676 29.866 250.638C29.8439 250.599 29.8332 250.555 29.8354 250.511C29.8375 250.467 29.8523 250.424 29.8779 250.388L31.138 248.442L30.263 246.279C30.2447 246.239 30.2386 246.194 30.2454 246.15C30.2521 246.106 30.2714 246.064 30.301 246.031C30.3306 245.998 30.3692 245.974 30.4121 245.962C30.455 245.95 30.5005 245.951 30.543 245.964L32.79 246.587L34.638 245.117C34.6691 245.096 34.7051 245.082 34.7427 245.078C34.7803 245.073 34.8185 245.078 34.8537 245.092C34.889 245.106 34.9203 245.128 34.945 245.157C34.9696 245.186 34.9868 245.22 34.995 245.257Z" fill="var(--fill-0, white)"/>
<path id="Vector_17" d="M272.638 84.9782L272.393 83.4522L270.993 82.7522C270.966 82.74 270.943 82.7202 270.928 82.6954C270.912 82.6706 270.903 82.6417 270.903 82.6122C270.903 82.5828 270.912 82.5539 270.928 82.5291C270.943 82.5043 270.966 82.4845 270.993 82.4722L272.393 81.7722L272.596 80.2392C272.599 80.2096 272.61 80.1815 272.628 80.1581C272.647 80.1347 272.671 80.1172 272.699 80.1075C272.728 80.0979 272.758 80.0967 272.787 80.1039C272.816 80.1111 272.842 80.1265 272.862 80.1482L273.954 81.2402L275.48 80.9532C275.508 80.9496 275.537 80.9536 275.563 80.9647C275.589 80.9757 275.612 80.9936 275.629 81.0163C275.646 81.0391 275.657 81.066 275.66 81.0943C275.664 81.1225 275.659 81.1512 275.648 81.1772L274.948 82.5772L275.69 83.9352C275.703 83.9616 275.709 83.9911 275.706 84.0204C275.704 84.0498 275.693 84.0779 275.676 84.1017C275.659 84.1255 275.635 84.1442 275.608 84.1555C275.581 84.1669 275.551 84.1706 275.522 84.1662L273.996 83.9282L272.932 85.0482C272.914 85.0757 272.888 85.0969 272.857 85.109C272.826 85.1211 272.793 85.1234 272.761 85.1158C272.728 85.1082 272.7 85.0909 272.678 85.0663C272.656 85.0417 272.642 85.011 272.638 84.9782Z" fill="var(--fill-0, #FF6B57)"/>
<path id="Vector_18" opacity="0.6" d="M272.638 84.9782L272.393 83.4522L270.993 82.7522C270.966 82.74 270.943 82.7202 270.928 82.6954C270.912 82.6706 270.903 82.6417 270.903 82.6122C270.903 82.5828 270.912 82.5539 270.928 82.5291C270.943 82.5043 270.966 82.4845 270.993 82.4722L272.393 81.7722L272.596 80.2392C272.599 80.2096 272.61 80.1815 272.628 80.1581C272.647 80.1347 272.671 80.1172 272.699 80.1075C272.728 80.0979 272.758 80.0967 272.787 80.1039C272.816 80.1111 272.842 80.1265 272.862 80.1482L273.954 81.2402L275.48 80.9532C275.508 80.9496 275.537 80.9536 275.563 80.9647C275.589 80.9757 275.612 80.9936 275.629 81.0163C275.646 81.0391 275.657 81.066 275.66 81.0943C275.664 81.1225 275.659 81.1512 275.648 81.1772L274.948 82.5772L275.69 83.9352C275.703 83.9616 275.709 83.9911 275.706 84.0204C275.704 84.0498 275.693 84.0779 275.676 84.1017C275.659 84.1255 275.635 84.1442 275.608 84.1555C275.581 84.1669 275.551 84.1706 275.522 84.1662L273.996 83.9282L272.932 85.0482C272.914 85.0757 272.888 85.0969 272.857 85.109C272.826 85.1211 272.793 85.1234 272.761 85.1158C272.728 85.1082 272.7 85.0909 272.678 85.0663C272.656 85.0417 272.642 85.011 272.638 84.9782Z" fill="var(--fill-0, white)"/>
<path id="Vector_19" d="M286.365 111.648L286.12 110.115L284.72 109.45C284.693 109.438 284.67 109.418 284.654 109.393C284.639 109.369 284.63 109.34 284.63 109.31C284.63 109.281 284.639 109.252 284.654 109.227C284.67 109.202 284.693 109.183 284.72 109.17L286.12 108.47L286.316 106.937C286.321 106.909 286.334 106.883 286.352 106.861C286.371 106.839 286.395 106.823 286.422 106.814C286.449 106.804 286.478 106.803 286.507 106.808C286.535 106.814 286.561 106.827 286.582 106.846L287.681 107.938L289.2 107.658C289.229 107.652 289.259 107.654 289.286 107.664C289.314 107.675 289.338 107.693 289.356 107.716C289.374 107.74 289.384 107.768 289.386 107.798C289.388 107.827 289.382 107.856 289.368 107.882L288.668 109.282L289.41 110.64C289.425 110.666 289.433 110.695 289.432 110.725C289.431 110.755 289.422 110.784 289.405 110.808C289.388 110.833 289.364 110.852 289.336 110.863C289.309 110.874 289.278 110.877 289.249 110.871L287.716 110.633L286.638 111.732C286.619 111.756 286.593 111.774 286.563 111.783C286.534 111.791 286.502 111.791 286.473 111.782C286.444 111.773 286.418 111.756 286.399 111.732C286.379 111.708 286.368 111.679 286.365 111.648Z" fill="var(--fill-0, #FF6B57)"/>
<path id="Vector_20" opacity="0.6" d="M286.365 111.648L286.12 110.115L284.72 109.45C284.693 109.438 284.67 109.418 284.654 109.393C284.639 109.369 284.63 109.34 284.63 109.31C284.63 109.281 284.639 109.252 284.654 109.227C284.67 109.202 284.693 109.183 284.72 109.17L286.12 108.47L286.316 106.937C286.321 106.909 286.334 106.883 286.352 106.861C286.371 106.839 286.395 106.823 286.422 106.814C286.449 106.804 286.478 106.803 286.507 106.808C286.535 106.814 286.561 106.827 286.582 106.846L287.681 107.938L289.2 107.658C289.229 107.652 289.259 107.654 289.286 107.664C289.314 107.675 289.338 107.693 289.356 107.716C289.374 107.74 289.384 107.768 289.386 107.798C289.388 107.827 289.382 107.856 289.368 107.882L288.668 109.282L289.41 110.64C289.425 110.666 289.433 110.695 289.432 110.725C289.431 110.755 289.422 110.784 289.405 110.808C289.388 110.833 289.364 110.852 289.336 110.863C289.309 110.874 289.278 110.877 289.249 110.871L287.716 110.633L286.638 111.732C286.619 111.756 286.593 111.774 286.563 111.783C286.534 111.791 286.502 111.791 286.473 111.782C286.444 111.773 286.418 111.756 286.399 111.732C286.379 111.708 286.368 111.679 286.365 111.648Z" fill="var(--fill-0, white)"/>
<path id="Vector_21" d="M256.09 150.428L257.616 150.687L258.694 149.574C258.714 149.553 258.74 149.537 258.769 149.53C258.798 149.523 258.828 149.524 258.856 149.534C258.885 149.543 258.909 149.561 258.928 149.584C258.946 149.607 258.957 149.636 258.96 149.665L259.184 151.191L260.584 151.891C260.609 151.905 260.629 151.926 260.644 151.95C260.658 151.975 260.665 152.003 260.665 152.031C260.665 152.06 260.658 152.088 260.644 152.112C260.629 152.137 260.609 152.157 260.584 152.171L259.184 152.871L258.967 154.404C258.964 154.434 258.953 154.462 258.935 154.485C258.916 154.509 258.892 154.526 258.863 154.536C258.835 154.546 258.805 154.547 258.776 154.54C258.747 154.532 258.721 154.517 258.701 154.495L257.616 153.389L256.09 153.648C256.062 153.653 256.033 153.65 256.006 153.639C255.98 153.628 255.957 153.609 255.94 153.586C255.923 153.563 255.913 153.535 255.911 153.507C255.909 153.478 255.916 153.45 255.929 153.424L256.629 152.024L255.929 150.624C255.922 150.6 255.921 150.575 255.926 150.551C255.931 150.526 255.942 150.503 255.958 150.484C255.974 150.465 255.994 150.45 256.017 150.44C256.04 150.43 256.065 150.426 256.09 150.428Z" fill="var(--fill-0, #FF6B57)"/>
<path id="Vector_22" opacity="0.6" d="M256.09 150.428L257.616 150.687L258.694 149.574C258.714 149.553 258.74 149.537 258.769 149.53C258.798 149.523 258.828 149.524 258.856 149.534C258.885 149.543 258.909 149.561 258.928 149.584C258.946 149.607 258.957 149.636 258.96 149.665L259.184 151.191L260.584 151.891C260.609 151.905 260.629 151.926 260.644 151.95C260.658 151.975 260.665 152.003 260.665 152.031C260.665 152.06 260.658 152.088 260.644 152.112C260.629 152.137 260.609 152.157 260.584 152.171L259.184 152.871L258.967 154.404C258.964 154.434 258.953 154.462 258.935 154.485C258.916 154.509 258.892 154.526 258.863 154.536C258.835 154.546 258.805 154.547 258.776 154.54C258.747 154.532 258.721 154.517 258.701 154.495L257.616 153.389L256.09 153.648C256.062 153.653 256.033 153.65 256.006 153.639C255.98 153.628 255.957 153.609 255.94 153.586C255.923 153.563 255.913 153.535 255.911 153.507C255.909 153.478 255.916 153.45 255.929 153.424L256.629 152.024L255.929 150.624C255.922 150.6 255.921 150.575 255.926 150.551C255.931 150.526 255.942 150.503 255.958 150.484C255.974 150.465 255.994 150.45 256.017 150.44C256.04 150.43 256.065 150.426 256.09 150.428Z" fill="var(--fill-0, white)"/>
<path id="Vector_23" d="M259.982 25.6042L260.521 26.3462H261.438C261.455 26.3452 261.473 26.3492 261.488 26.3579C261.503 26.3665 261.516 26.3793 261.524 26.3948C261.532 26.4104 261.536 26.4279 261.534 26.4454C261.532 26.4628 261.526 26.4794 261.515 26.4932L260.983 27.2352L261.291 28.1032C261.297 28.1192 261.298 28.1365 261.295 28.1531C261.292 28.1698 261.284 28.1853 261.272 28.1976C261.26 28.21 261.245 28.2189 261.229 28.2233C261.213 28.2276 261.195 28.2273 261.179 28.2222L260.304 27.9422L259.604 28.5022C259.591 28.5126 259.575 28.5191 259.558 28.521C259.541 28.5228 259.524 28.5199 259.509 28.5127C259.494 28.5054 259.481 28.494 259.471 28.4798C259.462 28.4656 259.457 28.4491 259.457 28.4322V27.4872L258.638 26.9692C258.623 26.9615 258.611 26.9499 258.602 26.9357C258.594 26.9216 258.589 26.9053 258.589 26.8887C258.589 26.8722 258.594 26.8559 258.602 26.8417C258.611 26.8275 258.623 26.816 258.638 26.8082L259.513 26.5142L259.765 25.6392C259.76 25.6105 259.767 25.581 259.784 25.5574C259.801 25.5338 259.827 25.5179 259.856 25.5132C259.885 25.5086 259.914 25.5156 259.938 25.5326C259.961 25.5497 259.977 25.5755 259.982 25.6042Z" fill="var(--fill-0, #FF6B57)"/>
<path id="Vector_24" opacity="0.6" d="M259.982 25.6042L260.521 26.3462H261.438C261.455 26.3452 261.473 26.3492 261.488 26.3579C261.503 26.3665 261.516 26.3793 261.524 26.3948C261.532 26.4104 261.536 26.4279 261.534 26.4454C261.532 26.4628 261.526 26.4794 261.515 26.4932L260.983 27.2352L261.291 28.1032C261.297 28.1192 261.298 28.1365 261.295 28.1531C261.292 28.1698 261.284 28.1853 261.272 28.1976C261.26 28.21 261.245 28.2189 261.229 28.2233C261.213 28.2276 261.195 28.2273 261.179 28.2222L260.304 27.9422L259.604 28.5022C259.591 28.5126 259.575 28.5191 259.558 28.521C259.541 28.5228 259.524 28.5199 259.509 28.5127C259.494 28.5054 259.481 28.494 259.471 28.4798C259.462 28.4656 259.457 28.4491 259.457 28.4322V27.4872L258.638 26.9692C258.623 26.9615 258.611 26.9499 258.602 26.9357C258.594 26.9216 258.589 26.9053 258.589 26.8887C258.589 26.8722 258.594 26.8559 258.602 26.8417C258.611 26.8275 258.623 26.816 258.638 26.8082L259.513 26.5142L259.765 25.6392C259.76 25.6105 259.767 25.581 259.784 25.5574C259.801 25.5338 259.827 25.5179 259.856 25.5132C259.885 25.5086 259.914 25.5156 259.938 25.5326C259.961 25.5497 259.977 25.5755 259.982 25.6042Z" fill="var(--fill-0, white)"/>
<path id="Vector_25" d="M106.843 0.817235L108.243 1.05524L109.23 0.0402349C109.249 0.0222374 109.272 0.00964587 109.298 0.0037614C109.323 -0.00212307 109.35 -0.00108744 109.375 0.0067628C109.4 0.014613 109.422 0.0289925 109.44 0.048414C109.458 0.0678354 109.47 0.091595 109.475 0.117235L109.678 1.51724L110.945 2.14023C110.968 2.15281 110.988 2.17149 111.002 2.19429C111.015 2.2171 111.022 2.24317 111.022 2.26974C111.022 2.2963 111.015 2.32238 111.002 2.34518C110.988 2.36798 110.968 2.38666 110.945 2.39923L109.678 3.02224L109.482 4.42224C109.478 4.44845 109.466 4.47301 109.449 4.49331C109.432 4.5136 109.41 4.52887 109.385 4.53749C109.359 4.54611 109.332 4.54775 109.306 4.54225C109.28 4.53674 109.256 4.5243 109.237 4.50624L108.25 3.49124L106.85 3.73623C106.823 3.74025 106.796 3.73692 106.772 3.72663C106.747 3.71633 106.725 3.69945 106.709 3.67782C106.694 3.65619 106.684 3.63063 106.682 3.60391C106.679 3.57719 106.684 3.55033 106.696 3.52623L107.354 2.27324L106.696 1.02723C106.685 1.00371 106.68 0.977607 106.682 0.951593C106.684 0.92558 106.693 0.900597 106.708 0.879215C106.723 0.857834 106.743 0.840823 106.767 0.82993C106.791 0.819037 106.817 0.814656 106.843 0.817235Z" fill="var(--fill-0, #FF6B57)"/>
<path id="Vector_26" opacity="0.6" d="M106.843 0.817235L108.243 1.05524L109.23 0.0402349C109.249 0.0222374 109.272 0.00964587 109.298 0.0037614C109.323 -0.00212307 109.35 -0.00108744 109.375 0.0067628C109.4 0.014613 109.422 0.0289925 109.44 0.048414C109.458 0.0678354 109.47 0.091595 109.475 0.117235L109.678 1.51724L110.945 2.14023C110.968 2.15281 110.988 2.17149 111.002 2.19429C111.015 2.2171 111.022 2.24317 111.022 2.26974C111.022 2.2963 111.015 2.32238 111.002 2.34518C110.988 2.36798 110.968 2.38666 110.945 2.39923L109.678 3.02224L109.482 4.42224C109.478 4.44845 109.466 4.47301 109.449 4.49331C109.432 4.5136 109.41 4.52887 109.385 4.53749C109.359 4.54611 109.332 4.54775 109.306 4.54225C109.28 4.53674 109.256 4.5243 109.237 4.50624L108.25 3.49124L106.85 3.73623C106.823 3.74025 106.796 3.73692 106.772 3.72663C106.747 3.71633 106.725 3.69945 106.709 3.67782C106.694 3.65619 106.684 3.63063 106.682 3.60391C106.679 3.57719 106.684 3.55033 106.696 3.52623L107.354 2.27324L106.696 1.02723C106.685 1.00371 106.68 0.977607 106.682 0.951593C106.684 0.92558 106.693 0.900597 106.708 0.879215C106.723 0.857834 106.743 0.840823 106.767 0.82993C106.791 0.819037 106.817 0.814656 106.843 0.817235Z" fill="var(--fill-0, white)"/>
<path id="Vector_27" d="M239.913 111.473L240.816 111.627L241.46 110.969C241.472 110.957 241.487 110.949 241.503 110.945C241.519 110.941 241.536 110.942 241.552 110.947C241.568 110.952 241.582 110.961 241.593 110.974C241.604 110.986 241.611 111.002 241.614 111.018L241.747 111.928L242.573 112.334C242.588 112.342 242.6 112.354 242.608 112.368C242.617 112.382 242.622 112.398 242.622 112.415C242.622 112.431 242.617 112.448 242.608 112.462C242.6 112.476 242.588 112.488 242.573 112.495L241.754 112.908L241.621 113.811C241.618 113.828 241.61 113.844 241.599 113.857C241.588 113.87 241.573 113.88 241.557 113.886C241.54 113.892 241.523 113.893 241.506 113.89C241.489 113.886 241.473 113.879 241.46 113.867L240.823 113.209L239.92 113.363C239.903 113.367 239.885 113.365 239.869 113.359C239.853 113.353 239.839 113.342 239.828 113.328C239.818 113.314 239.812 113.297 239.811 113.28C239.81 113.263 239.814 113.245 239.822 113.23L240.242 112.418L239.815 111.606C239.807 111.591 239.803 111.574 239.804 111.556C239.805 111.539 239.811 111.522 239.821 111.508C239.832 111.494 239.846 111.484 239.862 111.477C239.878 111.471 239.896 111.47 239.913 111.473Z" fill="var(--fill-0, #FF6B57)"/>
<path id="Vector_28" opacity="0.6" d="M239.913 111.473L240.816 111.627L241.46 110.969C241.472 110.957 241.487 110.949 241.503 110.945C241.519 110.941 241.536 110.942 241.552 110.947C241.568 110.952 241.582 110.961 241.593 110.974C241.604 110.986 241.611 111.002 241.614 111.018L241.747 111.928L242.573 112.334C242.588 112.342 242.6 112.354 242.608 112.368C242.617 112.382 242.622 112.398 242.622 112.415C242.622 112.431 242.617 112.448 242.608 112.462C242.6 112.476 242.588 112.488 242.573 112.495L241.754 112.908L241.621 113.811C241.618 113.828 241.61 113.844 241.599 113.857C241.588 113.87 241.573 113.88 241.557 113.886C241.54 113.892 241.523 113.893 241.506 113.89C241.489 113.886 241.473 113.879 241.46 113.867L240.823 113.209L239.92 113.363C239.903 113.367 239.885 113.365 239.869 113.359C239.853 113.353 239.839 113.342 239.828 113.328C239.818 113.314 239.812 113.297 239.811 113.28C239.81 113.263 239.814 113.245 239.822 113.23L240.242 112.418L239.815 111.606C239.807 111.591 239.803 111.574 239.804 111.556C239.805 111.539 239.811 111.522 239.821 111.508C239.832 111.494 239.846 111.484 239.862 111.477C239.878 111.471 239.896 111.47 239.913 111.473Z" fill="var(--fill-0, white)"/>
<path id="Vector_29" d="M200.79 269.68L201.679 269.47L202.015 268.616C202.023 268.602 202.034 268.589 202.048 268.581C202.063 268.572 202.079 268.568 202.095 268.568C202.112 268.568 202.128 268.572 202.142 268.581C202.157 268.589 202.168 268.602 202.176 268.616L202.659 269.4L203.569 269.449C203.586 269.451 203.602 269.457 203.616 269.467C203.63 269.477 203.641 269.491 203.648 269.506C203.655 269.522 203.658 269.539 203.656 269.556C203.655 269.573 203.649 269.589 203.639 269.603L203.037 270.303L203.275 271.192C203.281 271.209 203.282 271.228 203.277 271.245C203.273 271.263 203.263 271.279 203.25 271.291C203.236 271.303 203.219 271.31 203.201 271.313C203.183 271.315 203.165 271.312 203.149 271.304L202.302 270.947L201.532 271.444C201.517 271.453 201.5 271.457 201.483 271.457C201.466 271.457 201.449 271.453 201.434 271.444C201.419 271.436 201.407 271.424 201.398 271.409C201.39 271.394 201.385 271.377 201.385 271.36L201.462 270.443L200.762 269.862C200.738 269.859 200.716 269.845 200.702 269.826C200.687 269.806 200.681 269.781 200.685 269.757C200.689 269.733 200.702 269.711 200.722 269.697C200.741 269.683 200.766 269.677 200.79 269.68Z" fill="var(--fill-0, #FF6B57)"/>
<path id="Vector_30" opacity="0.6" d="M200.79 269.68L201.679 269.47L202.015 268.616C202.023 268.602 202.034 268.589 202.048 268.581C202.063 268.572 202.079 268.568 202.095 268.568C202.112 268.568 202.128 268.572 202.142 268.581C202.157 268.589 202.168 268.602 202.176 268.616L202.659 269.4L203.569 269.449C203.586 269.451 203.602 269.457 203.616 269.467C203.63 269.477 203.641 269.491 203.648 269.506C203.655 269.522 203.658 269.539 203.656 269.556C203.655 269.573 203.649 269.589 203.639 269.603L203.037 270.303L203.275 271.192C203.281 271.209 203.282 271.228 203.277 271.245C203.273 271.263 203.263 271.279 203.25 271.291C203.236 271.303 203.219 271.31 203.201 271.313C203.183 271.315 203.165 271.312 203.149 271.304L202.302 270.947L201.532 271.444C201.517 271.453 201.5 271.457 201.483 271.457C201.466 271.457 201.449 271.453 201.434 271.444C201.419 271.436 201.407 271.424 201.398 271.409C201.39 271.394 201.385 271.377 201.385 271.36L201.462 270.443L200.762 269.862C200.738 269.859 200.716 269.845 200.702 269.826C200.687 269.806 200.681 269.781 200.685 269.757C200.689 269.733 200.702 269.711 200.722 269.697C200.741 269.683 200.766 269.677 200.79 269.68Z" fill="var(--fill-0, white)"/>
<path id="Vector_31" d="M282.13 41.8302L282.676 42.5722H283.593C283.61 42.5712 283.628 42.5752 283.643 42.5839C283.658 42.5925 283.671 42.6053 283.679 42.6208C283.687 42.6364 283.691 42.6539 283.689 42.6714C283.687 42.6888 283.681 42.7054 283.67 42.7192L283.138 43.4612L283.446 44.3222C283.452 44.3382 283.453 44.3555 283.45 44.3721C283.447 44.3888 283.439 44.4043 283.427 44.4166C283.415 44.429 283.4 44.4379 283.384 44.4423C283.368 44.4466 283.35 44.4463 283.334 44.4412L282.459 44.1682L281.759 44.7282C281.746 44.7386 281.73 44.7451 281.713 44.747C281.696 44.7488 281.679 44.7459 281.664 44.7387C281.649 44.7314 281.636 44.72 281.626 44.7058C281.617 44.6916 281.612 44.6751 281.612 44.6582V43.7412L280.856 43.2232C280.841 43.2145 280.829 43.2022 280.821 43.1875C280.813 43.1728 280.808 43.1561 280.808 43.1392C280.808 43.1223 280.813 43.1057 280.821 43.091C280.829 43.0763 280.841 43.0639 280.856 43.0552L281.724 42.7682L281.983 41.8862C281.986 41.8705 281.992 41.8558 282.002 41.8434C282.012 41.8311 282.025 41.8216 282.04 41.816C282.055 41.8103 282.071 41.8086 282.087 41.8111C282.103 41.8136 282.118 41.8202 282.13 41.8302Z" fill="var(--fill-0, #FF6B57)"/>
<path id="Vector_32" opacity="0.6" d="M282.13 41.8302L282.676 42.5722H283.593C283.61 42.5712 283.628 42.5752 283.643 42.5839C283.658 42.5925 283.671 42.6053 283.679 42.6208C283.687 42.6364 283.691 42.6539 283.689 42.6714C283.687 42.6888 283.681 42.7054 283.67 42.7192L283.138 43.4612L283.446 44.3222C283.452 44.3382 283.453 44.3555 283.45 44.3721C283.447 44.3888 283.439 44.4043 283.427 44.4166C283.415 44.429 283.4 44.4379 283.384 44.4423C283.368 44.4466 283.35 44.4463 283.334 44.4412L282.459 44.1682L281.759 44.7282C281.746 44.7386 281.73 44.7451 281.713 44.747C281.696 44.7488 281.679 44.7459 281.664 44.7387C281.649 44.7314 281.636 44.72 281.626 44.7058C281.617 44.6916 281.612 44.6751 281.612 44.6582V43.7412L280.856 43.2232C280.841 43.2145 280.829 43.2022 280.821 43.1875C280.813 43.1728 280.808 43.1561 280.808 43.1392C280.808 43.1223 280.813 43.1057 280.821 43.091C280.829 43.0763 280.841 43.0639 280.856 43.0552L281.724 42.7682L281.983 41.8862C281.986 41.8705 281.992 41.8558 282.002 41.8434C282.012 41.8311 282.025 41.8216 282.04 41.816C282.055 41.8103 282.071 41.8086 282.087 41.8111C282.103 41.8136 282.118 41.8202 282.13 41.8302Z" fill="var(--fill-0, white)"/>
<path id="Vector_33" d="M229.602 74.6252L228.111 74.2122L226.928 75.2132C226.905 75.2309 226.878 75.2422 226.849 75.2458C226.821 75.2494 226.792 75.2453 226.765 75.2338C226.739 75.2224 226.716 75.204 226.699 75.1807C226.682 75.1574 226.672 75.1299 226.669 75.1012L226.599 73.5542L225.283 72.7352C225.256 72.723 225.233 72.7032 225.217 72.6784C225.202 72.6536 225.193 72.6247 225.193 72.5952C225.193 72.5657 225.202 72.5369 225.217 72.5121C225.233 72.4872 225.256 72.4675 225.283 72.4552L226.732 71.9092L227.103 70.4042C227.11 70.3758 227.125 70.35 227.146 70.3297C227.167 70.3094 227.193 70.2955 227.222 70.2896C227.25 70.2837 227.28 70.2861 227.307 70.2965C227.335 70.3069 227.358 70.3248 227.376 70.3482L228.342 71.5522L229.889 71.4402C229.918 71.4398 229.946 71.447 229.971 71.4613C229.996 71.4756 230.017 71.4963 230.031 71.5213C230.046 71.5464 230.053 71.5748 230.053 71.6036C230.052 71.6325 230.044 71.6606 230.029 71.6852L229.238 72.9802L229.819 74.3802C229.851 74.409 229.871 74.4495 229.874 74.4928C229.876 74.5362 229.862 74.5787 229.833 74.6112C229.804 74.6437 229.764 74.6635 229.72 74.6661C229.677 74.6687 229.634 74.654 229.602 74.6252Z" fill="var(--fill-0, #FF6B57)"/>
<path id="Vector_34" opacity="0.6" d="M229.602 74.6252L228.111 74.2122L226.928 75.2132C226.905 75.2309 226.878 75.2422 226.849 75.2458C226.821 75.2494 226.792 75.2453 226.765 75.2338C226.739 75.2224 226.716 75.204 226.699 75.1807C226.682 75.1574 226.672 75.1299 226.669 75.1012L226.599 73.5542L225.283 72.7352C225.256 72.723 225.233 72.7032 225.217 72.6784C225.202 72.6536 225.193 72.6247 225.193 72.5952C225.193 72.5657 225.202 72.5369 225.217 72.5121C225.233 72.4872 225.256 72.4675 225.283 72.4552L226.732 71.9092L227.103 70.4042C227.11 70.3758 227.125 70.35 227.146 70.3297C227.167 70.3094 227.193 70.2955 227.222 70.2896C227.25 70.2837 227.28 70.2861 227.307 70.2965C227.335 70.3069 227.358 70.3248 227.376 70.3482L228.342 71.5522L229.889 71.4402C229.918 71.4398 229.946 71.447 229.971 71.4613C229.996 71.4756 230.017 71.4963 230.031 71.5213C230.046 71.5464 230.053 71.5748 230.053 71.6036C230.052 71.6325 230.044 71.6606 230.029 71.6852L229.238 72.9802L229.819 74.3802C229.851 74.409 229.871 74.4495 229.874 74.4928C229.876 74.5362 229.862 74.5787 229.833 74.6112C229.804 74.6437 229.764 74.6635 229.72 74.6661C229.677 74.6687 229.634 74.654 229.602 74.6252Z" fill="var(--fill-0, white)"/>
<path id="Vector_35" d="M221.09 68.3462L220.201 68.5702L219.886 69.4312C219.878 69.4459 219.867 69.4582 219.852 69.4667C219.838 69.4753 219.822 69.4798 219.805 69.4798C219.789 69.4798 219.773 69.4753 219.758 69.4667C219.744 69.4582 219.733 69.4459 219.725 69.4312L219.228 68.6542L218.311 68.6192C218.293 68.6187 218.276 68.6131 218.262 68.6031C218.247 68.5931 218.236 68.579 218.229 68.5627C218.223 68.5464 218.221 68.5285 218.224 68.5112C218.228 68.4939 218.236 68.4779 218.248 68.4652L218.829 67.7652L218.577 66.8832C218.574 66.8665 218.575 66.8493 218.58 66.8332C218.586 66.8171 218.595 66.8026 218.608 66.7913C218.621 66.78 218.636 66.7723 218.653 66.7687C218.67 66.7652 218.687 66.7661 218.703 66.7712L219.557 67.1142L220.32 66.6032C220.334 66.594 220.351 66.589 220.368 66.5887C220.385 66.5885 220.402 66.5929 220.416 66.6017C220.431 66.6104 220.443 66.6231 220.45 66.6382C220.458 66.6533 220.461 66.6703 220.46 66.6872L220.404 67.5972L221.104 68.1642C221.122 68.1728 221.136 68.1865 221.146 68.2036C221.156 68.2207 221.161 68.2404 221.159 68.26C221.158 68.2797 221.15 68.2984 221.138 68.3138C221.126 68.3292 221.109 68.3405 221.09 68.3462Z" fill="var(--fill-0, #FF6B57)"/>
<path id="Vector_36" opacity="0.6" d="M221.09 68.3462L220.201 68.5702L219.886 69.4312C219.878 69.4459 219.867 69.4582 219.852 69.4667C219.838 69.4753 219.822 69.4798 219.805 69.4798C219.789 69.4798 219.773 69.4753 219.758 69.4667C219.744 69.4582 219.733 69.4459 219.725 69.4312L219.228 68.6542L218.311 68.6192C218.293 68.6187 218.276 68.6131 218.262 68.6031C218.247 68.5931 218.236 68.579 218.229 68.5627C218.223 68.5464 218.221 68.5285 218.224 68.5112C218.228 68.4939 218.236 68.4779 218.248 68.4652L218.829 67.7652L218.577 66.8832C218.574 66.8665 218.575 66.8493 218.58 66.8332C218.586 66.8171 218.595 66.8026 218.608 66.7913C218.621 66.78 218.636 66.7723 218.653 66.7687C218.67 66.7652 218.687 66.7661 218.703 66.7712L219.557 67.1142L220.32 66.6032C220.334 66.594 220.351 66.589 220.368 66.5887C220.385 66.5885 220.402 66.5929 220.416 66.6017C220.431 66.6104 220.443 66.6231 220.45 66.6382C220.458 66.6533 220.461 66.6703 220.46 66.6872L220.404 67.5972L221.104 68.1642C221.122 68.1728 221.136 68.1865 221.146 68.2036C221.156 68.2207 221.161 68.2404 221.159 68.26C221.158 68.2797 221.15 68.2984 221.138 68.3138C221.126 68.3292 221.109 68.3405 221.09 68.3462Z" fill="var(--fill-0, white)"/>
<path id="Vector_37" d="M149.837 286.417L150.733 286.2L151.062 285.346C151.071 285.332 151.083 285.32 151.098 285.311C151.112 285.303 151.129 285.299 151.146 285.299C151.163 285.299 151.179 285.303 151.194 285.311C151.209 285.32 151.221 285.332 151.23 285.346L151.706 286.13L152.623 286.179C152.641 286.18 152.658 286.185 152.672 286.195C152.687 286.205 152.698 286.219 152.705 286.236C152.711 286.252 152.713 286.27 152.71 286.287C152.706 286.305 152.698 286.321 152.686 286.333L152.091 287.033L152.322 287.915C152.328 287.932 152.329 287.951 152.324 287.968C152.32 287.986 152.31 288.002 152.297 288.014C152.283 288.026 152.266 288.033 152.248 288.036C152.23 288.038 152.212 288.035 152.196 288.027L151.349 287.67L150.579 288.167C150.565 288.176 150.548 288.181 150.531 288.182C150.514 288.182 150.497 288.178 150.483 288.169C150.468 288.16 150.456 288.147 150.449 288.132C150.441 288.117 150.438 288.1 150.439 288.083L150.509 287.173L149.809 286.592C149.79 286.584 149.774 286.57 149.764 286.553C149.754 286.535 149.75 286.514 149.754 286.494C149.757 286.473 149.767 286.455 149.782 286.441C149.797 286.427 149.816 286.419 149.837 286.417Z" fill="var(--fill-0, #FF6B57)"/>
<path id="Vector_38" opacity="0.6" d="M149.837 286.417L150.733 286.2L151.062 285.346C151.071 285.332 151.083 285.32 151.098 285.311C151.112 285.303 151.129 285.299 151.146 285.299C151.163 285.299 151.179 285.303 151.194 285.311C151.209 285.32 151.221 285.332 151.23 285.346L151.706 286.13L152.623 286.179C152.641 286.18 152.658 286.185 152.672 286.195C152.687 286.205 152.698 286.219 152.705 286.236C152.711 286.252 152.713 286.27 152.71 286.287C152.706 286.305 152.698 286.321 152.686 286.333L152.091 287.033L152.322 287.915C152.328 287.932 152.329 287.951 152.324 287.968C152.32 287.986 152.31 288.002 152.297 288.014C152.283 288.026 152.266 288.033 152.248 288.036C152.23 288.038 152.212 288.035 152.196 288.027L151.349 287.67L150.579 288.167C150.565 288.176 150.548 288.181 150.531 288.182C150.514 288.182 150.497 288.178 150.483 288.169C150.468 288.16 150.456 288.147 150.449 288.132C150.441 288.117 150.438 288.1 150.439 288.083L150.509 287.173L149.809 286.592C149.79 286.584 149.774 286.57 149.764 286.553C149.754 286.535 149.75 286.514 149.754 286.494C149.757 286.473 149.767 286.455 149.782 286.441C149.797 286.427 149.816 286.419 149.837 286.417Z" fill="var(--fill-0, white)"/>
<path id="Vector_39" d="M30.648 94.6172L31.852 94.8272L32.706 93.9452C32.7223 93.9278 32.7432 93.9153 32.7664 93.9093C32.7895 93.9033 32.8139 93.904 32.8367 93.9114C32.8594 93.9187 32.8796 93.9324 32.8949 93.9508C32.9102 93.9692 32.9199 93.9915 32.923 94.0152L33.098 95.2262L34.197 95.7652C34.2175 95.7758 34.2348 95.7919 34.2468 95.8117C34.2589 95.8314 34.2652 95.8541 34.2652 95.8772C34.2652 95.9004 34.2589 95.9231 34.2468 95.9428C34.2348 95.9626 34.2175 95.9786 34.197 95.9892L33.098 96.5352L32.923 97.7462C32.919 97.7685 32.9091 97.7894 32.8942 97.8065C32.8794 97.8237 32.8603 97.8365 32.8388 97.8436C32.8173 97.8508 32.7942 97.852 32.7721 97.8472C32.75 97.8424 32.7295 97.8317 32.713 97.8162L31.838 96.9482L30.627 97.1512C30.6047 97.1554 30.5817 97.1532 30.5607 97.1448C30.5397 97.1364 30.5215 97.1222 30.5082 97.1038C30.495 97.0855 30.4873 97.0637 30.486 97.0411C30.4847 97.0185 30.4899 96.996 30.501 96.9762L31.068 95.8912L30.494 94.8062C30.4775 94.7837 30.469 94.7564 30.4697 94.7286C30.4704 94.7007 30.4804 94.6739 30.498 94.6523C30.5156 94.6307 30.5399 94.6155 30.567 94.6092C30.5941 94.6028 30.6226 94.6057 30.648 94.6172Z" fill="var(--fill-0, #FF6B57)"/>
<path id="Vector_40" opacity="0.6" d="M30.648 94.6172L31.852 94.8272L32.706 93.9452C32.7223 93.9278 32.7432 93.9153 32.7664 93.9093C32.7895 93.9033 32.8139 93.904 32.8367 93.9114C32.8594 93.9187 32.8796 93.9324 32.8949 93.9508C32.9102 93.9692 32.9199 93.9915 32.923 94.0152L33.098 95.2262L34.197 95.7652C34.2175 95.7758 34.2348 95.7919 34.2468 95.8117C34.2589 95.8314 34.2652 95.8541 34.2652 95.8772C34.2652 95.9004 34.2589 95.9231 34.2468 95.9428C34.2348 95.9626 34.2175 95.9786 34.197 95.9892L33.098 96.5352L32.923 97.7462C32.919 97.7685 32.9091 97.7894 32.8942 97.8065C32.8794 97.8237 32.8603 97.8365 32.8388 97.8436C32.8173 97.8508 32.7942 97.852 32.7721 97.8472C32.75 97.8424 32.7295 97.8317 32.713 97.8162L31.838 96.9482L30.627 97.1512C30.6047 97.1554 30.5817 97.1532 30.5607 97.1448C30.5397 97.1364 30.5215 97.1222 30.5082 97.1038C30.495 97.0855 30.4873 97.0637 30.486 97.0411C30.4847 97.0185 30.4899 96.996 30.501 96.9762L31.068 95.8912L30.494 94.8062C30.4775 94.7837 30.469 94.7564 30.4697 94.7286C30.4704 94.7007 30.4804 94.6739 30.498 94.6523C30.5156 94.6307 30.5399 94.6155 30.567 94.6092C30.5941 94.6028 30.6226 94.6057 30.648 94.6172Z" fill="var(--fill-0, white)"/>
<path id="Vector_41" d="M34.974 138.717L36.052 138.101L36.157 136.869C36.1587 136.846 36.1671 136.823 36.181 136.804C36.195 136.785 36.2139 136.771 36.2358 136.762C36.2577 136.753 36.2815 136.751 36.3047 136.755C36.3279 136.759 36.3495 136.769 36.367 136.785L37.284 137.618L38.495 137.338C38.5177 137.334 38.5412 137.335 38.5629 137.343C38.5847 137.351 38.6039 137.365 38.6184 137.383C38.6328 137.401 38.642 137.423 38.645 137.446C38.6479 137.469 38.6444 137.492 38.635 137.513L38.138 138.619L38.775 139.683C38.7865 139.703 38.7925 139.726 38.7921 139.749C38.7917 139.772 38.785 139.794 38.7727 139.814C38.7604 139.833 38.7431 139.849 38.7225 139.859C38.7019 139.87 38.6789 139.874 38.656 139.872L37.424 139.732L36.605 140.67C36.5891 140.688 36.5687 140.7 36.546 140.706C36.5234 140.713 36.4995 140.713 36.4769 140.706C36.4543 140.7 36.434 140.687 36.4183 140.669C36.4026 140.652 36.3921 140.63 36.388 140.607L36.129 139.417L34.988 138.934C34.9683 138.924 34.9516 138.91 34.9394 138.891C34.9273 138.873 34.9202 138.852 34.9188 138.83C34.9173 138.808 34.9217 138.786 34.9314 138.766C34.9411 138.746 34.9557 138.73 34.974 138.717Z" fill="var(--fill-0, #FF6B57)"/>
<path id="Vector_42" opacity="0.6" d="M34.974 138.717L36.052 138.101L36.157 136.869C36.1587 136.846 36.1671 136.823 36.181 136.804C36.195 136.785 36.2139 136.771 36.2358 136.762C36.2577 136.753 36.2815 136.751 36.3047 136.755C36.3279 136.759 36.3495 136.769 36.367 136.785L37.284 137.618L38.495 137.338C38.5177 137.334 38.5412 137.335 38.5629 137.343C38.5847 137.351 38.6039 137.365 38.6184 137.383C38.6328 137.401 38.642 137.423 38.645 137.446C38.6479 137.469 38.6444 137.492 38.635 137.513L38.138 138.619L38.775 139.683C38.7865 139.703 38.7925 139.726 38.7921 139.749C38.7917 139.772 38.785 139.794 38.7727 139.814C38.7604 139.833 38.7431 139.849 38.7225 139.859C38.7019 139.87 38.6789 139.874 38.656 139.872L37.424 139.732L36.605 140.67C36.5891 140.688 36.5687 140.7 36.546 140.706C36.5234 140.713 36.4995 140.713 36.4769 140.706C36.4543 140.7 36.434 140.687 36.4183 140.669C36.4026 140.652 36.3921 140.63 36.388 140.607L36.129 139.417L34.988 138.934C34.9683 138.924 34.9516 138.91 34.9394 138.891C34.9273 138.873 34.9202 138.852 34.9188 138.83C34.9173 138.808 34.9217 138.786 34.9314 138.766C34.9411 138.746 34.9557 138.73 34.974 138.717Z" fill="var(--fill-0, white)"/>
<path id="Vector_43" d="M115.628 32.4572L115.698 31.5402L114.998 30.9662C114.983 30.9585 114.971 30.9469 114.962 30.9327C114.954 30.9186 114.949 30.9023 114.949 30.8857C114.949 30.8692 114.954 30.8529 114.962 30.8387C114.971 30.8245 114.983 30.813 114.998 30.8052L115.894 30.5882L116.216 29.7272C116.223 29.7107 116.235 29.6965 116.249 29.6865C116.264 29.6766 116.282 29.6712 116.3 29.6712C116.318 29.6712 116.335 29.6766 116.35 29.6865C116.365 29.6965 116.377 29.7107 116.384 29.7272L116.867 30.5042L117.784 30.5462C117.802 30.5467 117.819 30.5524 117.833 30.5624C117.848 30.5724 117.859 30.5864 117.866 30.6027C117.872 30.619 117.874 30.6369 117.871 30.6542C117.867 30.6716 117.859 30.6875 117.847 30.7002L117.259 31.4002L117.497 32.2822C117.502 32.2985 117.502 32.3158 117.498 32.3323C117.494 32.3488 117.485 32.3637 117.472 32.3753C117.46 32.387 117.445 32.395 117.428 32.3983C117.411 32.4016 117.394 32.4002 117.378 32.3942L116.538 32.0372L115.775 32.5412C115.76 32.5498 115.743 32.5543 115.726 32.5544C115.709 32.5544 115.692 32.55 115.677 32.5415C115.662 32.533 115.65 32.5207 115.641 32.5059C115.633 32.4911 115.628 32.4744 115.628 32.4572Z" fill="var(--fill-0, #FF6B57)"/>
<path id="Vector_44" opacity="0.6" d="M115.628 32.4572L115.698 31.5402L114.998 30.9662C114.983 30.9585 114.971 30.9469 114.962 30.9327C114.954 30.9186 114.949 30.9023 114.949 30.8857C114.949 30.8692 114.954 30.8529 114.962 30.8387C114.971 30.8245 114.983 30.813 114.998 30.8052L115.894 30.5882L116.216 29.7272C116.223 29.7107 116.235 29.6965 116.249 29.6865C116.264 29.6766 116.282 29.6712 116.3 29.6712C116.318 29.6712 116.335 29.6766 116.35 29.6865C116.365 29.6965 116.377 29.7107 116.384 29.7272L116.867 30.5042L117.784 30.5462C117.802 30.5467 117.819 30.5524 117.833 30.5624C117.848 30.5724 117.859 30.5864 117.866 30.6027C117.872 30.619 117.874 30.6369 117.871 30.6542C117.867 30.6716 117.859 30.6875 117.847 30.7002L117.259 31.4002L117.497 32.2822C117.502 32.2985 117.502 32.3158 117.498 32.3323C117.494 32.3488 117.485 32.3637 117.472 32.3753C117.46 32.387 117.445 32.395 117.428 32.3983C117.411 32.4016 117.394 32.4002 117.378 32.3942L116.538 32.0372L115.775 32.5412C115.76 32.5498 115.743 32.5543 115.726 32.5544C115.709 32.5544 115.692 32.55 115.677 32.5415C115.662 32.533 115.65 32.5207 115.641 32.5059C115.633 32.4911 115.628 32.4744 115.628 32.4572Z" fill="var(--fill-0, white)"/>
<path id="Vector_45" d="M14.338 239.916L15.038 241.085L16.438 241.141C16.464 241.143 16.4891 241.152 16.5104 241.167C16.5318 241.182 16.5485 241.202 16.5587 241.226C16.5688 241.25 16.5721 241.277 16.5681 241.303C16.5641 241.328 16.553 241.352 16.536 241.372L15.654 242.429L16.025 243.759C16.0323 243.785 16.0324 243.812 16.025 243.837C16.0177 243.863 16.0033 243.885 15.9835 243.903C15.9637 243.921 15.9394 243.932 15.9133 243.936C15.8871 243.941 15.8603 243.938 15.836 243.927L14.555 243.416L13.407 244.179C13.3852 244.194 13.3599 244.202 13.3338 244.202C13.3077 244.203 13.2819 244.197 13.2593 244.184C13.2368 244.171 13.2183 244.151 13.2061 244.128C13.1938 244.105 13.1882 244.079 13.19 244.053L13.281 242.653L12.238 241.82C12.2176 241.804 12.2023 241.782 12.1938 241.757C12.1852 241.732 12.1838 241.706 12.1896 241.68C12.1955 241.655 12.2083 241.631 12.2268 241.613C12.2452 241.594 12.2685 241.581 12.294 241.575L13.631 241.239L14.114 239.944C14.1234 239.924 14.138 239.906 14.1562 239.893C14.1744 239.879 14.1958 239.871 14.2182 239.868C14.2406 239.865 14.2634 239.868 14.2843 239.877C14.3053 239.885 14.3237 239.899 14.338 239.916Z" fill="var(--fill-0, #FF6B57)"/>
<path id="Vector_46" opacity="0.6" d="M14.338 239.916L15.038 241.085L16.438 241.141C16.464 241.143 16.4891 241.152 16.5104 241.167C16.5318 241.182 16.5485 241.202 16.5587 241.226C16.5688 241.25 16.5721 241.277 16.5681 241.303C16.5641 241.328 16.553 241.352 16.536 241.372L15.654 242.429L16.025 243.759C16.0323 243.785 16.0324 243.812 16.025 243.837C16.0177 243.863 16.0033 243.885 15.9835 243.903C15.9637 243.921 15.9394 243.932 15.9133 243.936C15.8871 243.941 15.8603 243.938 15.836 243.927L14.555 243.416L13.407 244.179C13.3852 244.194 13.3599 244.202 13.3338 244.202C13.3077 244.203 13.2819 244.197 13.2593 244.184C13.2368 244.171 13.2183 244.151 13.2061 244.128C13.1938 244.105 13.1882 244.079 13.19 244.053L13.281 242.653L12.238 241.82C12.2176 241.804 12.2023 241.782 12.1938 241.757C12.1852 241.732 12.1838 241.706 12.1896 241.68C12.1955 241.655 12.2083 241.631 12.2268 241.613C12.2452 241.594 12.2685 241.581 12.294 241.575L13.631 241.239L14.114 239.944C14.1234 239.924 14.138 239.906 14.1562 239.893C14.1744 239.879 14.1958 239.871 14.2182 239.868C14.2406 239.865 14.2634 239.868 14.2843 239.877C14.3053 239.885 14.3237 239.899 14.338 239.916Z" fill="var(--fill-0, white)"/>
<path id="Vector_47" d="M252.499 168.271L253.269 168.901L254.221 168.621C254.239 168.616 254.258 168.615 254.276 168.62C254.294 168.625 254.311 168.635 254.323 168.649C254.336 168.663 254.344 168.681 254.347 168.699C254.35 168.718 254.348 168.737 254.34 168.754L253.983 169.678L254.536 170.504C254.547 170.52 254.553 170.538 254.554 170.557C254.555 170.576 254.55 170.594 254.54 170.611C254.531 170.627 254.517 170.64 254.5 170.649C254.483 170.657 254.464 170.66 254.445 170.658L253.458 170.602L252.849 171.386C252.838 171.402 252.823 171.413 252.805 171.42C252.788 171.427 252.769 171.429 252.75 171.425C252.732 171.421 252.715 171.412 252.701 171.399C252.688 171.386 252.678 171.37 252.674 171.351L252.422 170.385L251.484 170.049C251.468 170.041 251.454 170.029 251.445 170.013C251.435 169.998 251.43 169.98 251.43 169.962C251.43 169.944 251.435 169.926 251.445 169.91C251.454 169.895 251.468 169.882 251.484 169.874L252.324 169.335V168.341C252.325 168.322 252.332 168.303 252.344 168.287C252.356 168.271 252.371 168.259 252.39 168.252C252.408 168.244 252.428 168.242 252.447 168.246C252.466 168.249 252.484 168.258 252.499 168.271Z" fill="var(--fill-0, #FF6B57)"/>
<path id="Vector_48" opacity="0.6" d="M252.499 168.271L253.269 168.901L254.221 168.621C254.239 168.616 254.258 168.615 254.276 168.62C254.294 168.625 254.311 168.635 254.323 168.649C254.336 168.663 254.344 168.681 254.347 168.699C254.35 168.718 254.348 168.737 254.34 168.754L253.983 169.678L254.536 170.504C254.547 170.52 254.553 170.538 254.554 170.557C254.555 170.576 254.55 170.594 254.54 170.611C254.531 170.627 254.517 170.64 254.5 170.649C254.483 170.657 254.464 170.66 254.445 170.658L253.458 170.602L252.849 171.386C252.838 171.402 252.823 171.413 252.805 171.42C252.788 171.427 252.769 171.429 252.75 171.425C252.732 171.421 252.715 171.412 252.701 171.399C252.688 171.386 252.678 171.37 252.674 171.351L252.422 170.385L251.484 170.049C251.468 170.041 251.454 170.029 251.445 170.013C251.435 169.998 251.43 169.98 251.43 169.962C251.43 169.944 251.435 169.926 251.445 169.91C251.454 169.895 251.468 169.882 251.484 169.874L252.324 169.335V168.341C252.325 168.322 252.332 168.303 252.344 168.287C252.356 168.271 252.371 168.259 252.39 168.252C252.408 168.244 252.428 168.242 252.447 168.246C252.466 168.249 252.484 168.258 252.499 168.271Z" fill="var(--fill-0, white)"/>
<path id="Vector_49" d="M291.384 92.3562C291.507 92.2223 291.677 92.1415 291.859 92.1311C292.041 92.1206 292.219 92.1813 292.357 92.3002C292.455 92.4291 292.506 92.5882 292.5 92.7503C292.494 92.9124 292.433 93.0674 292.325 93.1889C292.218 93.3104 292.071 93.3909 291.911 93.4164C291.751 93.442 291.587 93.4112 291.447 93.3292C291.312 93.2071 291.23 93.0372 291.218 92.8555C291.206 92.6739 291.266 92.4948 291.384 92.3562Z" fill="var(--fill-0, #E0E0E0)"/>
<path id="Vector_50" d="M278.343 89.1992C278.466 89.0653 278.636 88.9846 278.818 88.9741C279 88.9637 279.178 89.0243 279.316 89.1432C279.421 89.2343 279.497 89.3549 279.534 89.4894C279.57 89.6238 279.566 89.7662 279.521 89.8981C279.476 90.0301 279.393 90.1457 279.282 90.23C279.171 90.3144 279.038 90.3638 278.899 90.3718C278.759 90.3798 278.621 90.3461 278.501 90.275C278.381 90.2039 278.285 90.0986 278.226 89.9727C278.166 89.8467 278.145 89.7059 278.166 89.5681C278.187 89.4303 278.249 89.3018 278.343 89.1992Z" fill="var(--fill-0, #E0E0E0)"/>
<path id="Vector_51" d="M260.661 160.956C260.661 161.151 260.603 161.342 260.495 161.505C260.386 161.667 260.232 161.793 260.052 161.868C259.871 161.943 259.673 161.962 259.481 161.924C259.29 161.886 259.114 161.792 258.976 161.654C258.838 161.516 258.744 161.34 258.706 161.149C258.668 160.957 258.687 160.759 258.762 160.579C258.837 160.398 258.963 160.244 259.126 160.136C259.288 160.027 259.479 159.969 259.674 159.969C259.936 159.969 260.187 160.073 260.372 160.258C260.557 160.443 260.661 160.694 260.661 160.956Z" fill="var(--fill-0, #E0E0E0)"/>
<path id="Vector_52" d="M6.41395 178.295C6.27266 178.45 6.08876 178.558 5.88554 178.608C5.68232 178.658 5.46893 178.646 5.27238 178.574C5.07584 178.503 4.90497 178.374 4.78144 178.206C4.6579 178.037 4.58724 177.835 4.57841 177.626C4.56957 177.417 4.62297 177.21 4.73182 177.031C4.84068 176.853 5.0001 176.71 5.1899 176.622C5.3797 176.534 5.59135 176.505 5.79803 176.537C6.00472 176.569 6.19715 176.662 6.35095 176.804C6.55496 176.995 6.67589 177.258 6.68768 177.537C6.69946 177.816 6.60115 178.088 6.41395 178.295Z" fill="var(--fill-0, #E0E0E0)"/>
<path id="Vector_53" d="M22.528 254.406C22.3758 254.541 22.1872 254.628 21.9858 254.656C21.7843 254.684 21.5792 254.651 21.3962 254.562C21.2133 254.474 21.0607 254.333 20.9578 254.157C20.8548 253.982 20.8061 253.78 20.8179 253.577C20.8296 253.374 20.9011 253.179 21.0236 253.017C21.146 252.855 21.3138 252.732 21.5057 252.665C21.6977 252.598 21.9052 252.589 22.102 252.64C22.2989 252.691 22.4764 252.799 22.612 252.95C22.7927 253.155 22.8853 253.423 22.8696 253.696C22.8538 253.968 22.7311 254.224 22.528 254.406Z" fill="var(--fill-0, #E0E0E0)"/>
<path id="Vector_54" d="M0.813955 231.04C0.714107 231.123 0.586768 231.166 0.457138 231.159C0.327508 231.153 0.205033 231.098 0.113955 231.005C0.0334382 230.904 -0.00680878 230.776 0.000943052 230.647C0.00869488 230.518 0.0639001 230.396 0.155956 230.305C0.258064 230.212 0.392865 230.164 0.530704 230.171C0.668543 230.177 0.79813 230.238 0.890955 230.34C0.983781 230.442 1.03224 230.577 1.02568 230.715C1.01912 230.853 0.958064 230.982 0.855956 231.075L0.813955 231.04Z" fill="var(--fill-0, #E0E0E0)"/>
<path id="Vector_55" d="M7.54795 251.487C7.44811 251.57 7.32077 251.613 7.19114 251.606C7.06151 251.6 6.93903 251.545 6.84795 251.452C6.75716 251.349 6.71068 251.214 6.71854 251.076C6.72639 250.939 6.78796 250.81 6.88996 250.717C6.94051 250.671 6.99963 250.636 7.06393 250.613C7.12823 250.589 7.19645 250.579 7.2647 250.582C7.33296 250.586 7.3999 250.602 7.46171 250.632C7.52352 250.661 7.57899 250.702 7.62496 250.752C7.67092 250.803 7.70647 250.862 7.72959 250.926C7.7527 250.99 7.76293 251.059 7.75968 251.127C7.75643 251.195 7.73977 251.262 7.71065 251.324C7.68153 251.386 7.64051 251.441 7.58996 251.487H7.54795Z" fill="var(--fill-0, #E0E0E0)"/>
<path id="Vector_56" d="M25.356 234.848C25.2553 234.93 25.1274 234.971 24.9978 234.964C24.8681 234.956 24.7461 234.9 24.656 234.806C24.61 234.756 24.5744 234.697 24.5513 234.632C24.5282 234.568 24.518 234.5 24.5212 234.431C24.5245 234.363 24.5411 234.296 24.5703 234.234C24.5994 234.173 24.6404 234.117 24.691 234.071C24.7415 234.025 24.8006 233.99 24.8649 233.967C24.9292 233.943 24.9975 233.933 25.0657 233.936C25.134 233.94 25.2009 233.956 25.2627 233.986C25.3245 234.015 25.38 234.056 25.426 234.106C25.4712 234.159 25.5054 234.22 25.5265 234.287C25.5475 234.353 25.555 234.423 25.5485 234.492C25.5419 234.561 25.5215 234.629 25.4884 234.69C25.4554 234.751 25.4103 234.805 25.356 234.848Z" fill="var(--fill-0, #E0E0E0)"/>
<path id="Vector_57" d="M25.839 195.83C25.7879 195.881 25.723 195.915 25.6525 195.929C25.582 195.942 25.5091 195.935 25.4428 195.907C25.3766 195.879 25.32 195.833 25.2802 195.773C25.2404 195.713 25.2192 195.643 25.2192 195.571C25.2192 195.499 25.2404 195.429 25.2802 195.369C25.32 195.31 25.3766 195.263 25.4428 195.235C25.5091 195.208 25.582 195.2 25.6525 195.214C25.723 195.228 25.7879 195.262 25.839 195.312C25.8741 195.346 25.9021 195.386 25.9213 195.43C25.9404 195.475 25.9503 195.523 25.9503 195.571C25.9503 195.62 25.9404 195.668 25.9213 195.712C25.9021 195.757 25.8741 195.797 25.839 195.83Z" fill="var(--fill-0, #E0E0E0)"/>
<path id="Vector_58" d="M263.538 56.2642C263.647 56.1566 263.785 56.0836 263.936 56.0544C264.086 56.0253 264.242 56.0413 264.383 56.1004C264.525 56.1595 264.646 56.2591 264.731 56.3866C264.815 56.5142 264.861 56.664 264.861 56.8172C264.861 56.9705 264.815 57.1203 264.731 57.2479C264.646 57.3754 264.525 57.475 264.383 57.5341C264.242 57.5932 264.086 57.6092 263.936 57.58C263.785 57.5509 263.647 57.4779 263.538 57.3702C263.465 57.298 263.407 57.2119 263.367 57.1169C263.327 57.022 263.307 56.9201 263.307 56.8172C263.307 56.7143 263.327 56.6125 263.367 56.5175C263.407 56.4226 263.465 56.3365 263.538 56.2642Z" fill="var(--fill-0, #E0E0E0)"/>
<path id="Vector_59" d="M274.913 99.9792C274.977 99.9237 275.06 99.8934 275.145 99.8941C275.229 99.8948 275.311 99.9263 275.375 99.9829C275.438 100.039 275.479 100.117 275.489 100.201C275.499 100.286 275.479 100.371 275.431 100.441C275.367 100.497 275.284 100.527 275.199 100.526C275.114 100.526 275.033 100.494 274.969 100.438C274.906 100.381 274.865 100.303 274.855 100.219C274.844 100.135 274.865 100.049 274.913 99.9792Z" fill="var(--fill-0, #E0E0E0)"/>
<path id="Vector_60" d="M284.23 99.9092C284.279 99.8596 284.341 99.8256 284.409 99.8115C284.477 99.7974 284.548 99.8039 284.612 99.8302C284.677 99.8565 284.732 99.9014 284.77 99.9591C284.809 100.017 284.83 100.085 284.83 100.154C284.83 100.224 284.809 100.292 284.77 100.349C284.732 100.407 284.677 100.452 284.612 100.478C284.548 100.505 284.477 100.511 284.409 100.497C284.341 100.483 284.279 100.449 284.23 100.399C284.166 100.334 284.13 100.246 284.13 100.154C284.13 100.063 284.166 99.9747 284.23 99.9092Z" fill="var(--fill-0, #E0E0E0)"/>
<path id="Vector_61" d="M133.338 12.9692C133.53 12.9506 133.723 12.9894 133.892 13.0806C134.062 13.1718 134.201 13.3113 134.291 13.4815C134.382 13.6516 134.419 13.8448 134.4 14.0365C134.38 14.2282 134.304 14.4097 134.181 14.5581C134.059 14.7066 133.894 14.8152 133.71 14.8702C133.525 14.9252 133.328 14.9241 133.144 14.8672C132.96 14.8102 132.797 14.6999 132.676 14.5502C132.555 14.4005 132.48 14.2181 132.463 14.0262C132.45 13.8993 132.463 13.7711 132.5 13.6491C132.538 13.5271 132.599 13.4137 132.68 13.3154C132.762 13.2171 132.862 13.1359 132.974 13.0765C133.087 13.0171 133.211 12.9806 133.338 12.9692Z" fill="var(--fill-0, #E0E0E0)"/>
<path id="Vector_62" d="M267.542 177.728C267.542 177.821 267.505 177.91 267.439 177.976C267.374 178.041 267.285 178.078 267.192 178.078C267.099 178.078 267.01 178.041 266.944 177.976C266.879 177.91 266.842 177.821 266.842 177.728C266.842 177.635 266.879 177.546 266.944 177.481C267.01 177.415 267.099 177.378 267.192 177.378C267.285 177.378 267.374 177.415 267.439 177.481C267.505 177.546 267.542 177.635 267.542 177.728Z" fill="var(--fill-0, #E0E0E0)"/>
<path id="Vector_63" d="M255.6 252.299L258.232 253.454L260.675 251.949C260.721 251.92 260.774 251.904 260.828 251.903C260.882 251.903 260.936 251.918 260.982 251.946C261.028 251.975 261.065 252.016 261.089 252.065C261.113 252.114 261.122 252.168 261.116 252.222L260.829 255.085L263.02 256.94C263.062 256.976 263.093 257.022 263.109 257.074C263.126 257.126 263.128 257.182 263.115 257.235C263.102 257.288 263.074 257.336 263.035 257.374C262.996 257.413 262.947 257.439 262.894 257.451L260.094 258.053L259.009 260.713C258.988 260.764 258.953 260.807 258.909 260.839C258.864 260.871 258.812 260.889 258.757 260.893C258.703 260.897 258.648 260.885 258.6 260.86C258.552 260.834 258.512 260.795 258.484 260.748L257.042 258.263L254.179 258.046C254.124 258.044 254.071 258.025 254.026 257.994C253.982 257.962 253.947 257.918 253.926 257.867C253.906 257.817 253.9 257.761 253.91 257.707C253.92 257.653 253.945 257.603 253.983 257.563L255.894 255.421L255.194 252.621C255.182 252.568 255.185 252.513 255.203 252.462C255.221 252.411 255.253 252.366 255.295 252.332C255.338 252.298 255.389 252.277 255.443 252.272C255.497 252.266 255.551 252.275 255.6 252.299Z" fill="var(--fill-0, #FF6B57)"/>
<path id="Vector_64" opacity="0.6" d="M255.6 252.299L258.232 253.454L260.675 251.949C260.721 251.92 260.774 251.904 260.828 251.903C260.882 251.903 260.936 251.918 260.982 251.946C261.028 251.975 261.065 252.016 261.089 252.065C261.113 252.114 261.122 252.168 261.116 252.222L260.829 255.085L263.02 256.94C263.062 256.976 263.093 257.022 263.109 257.074C263.126 257.126 263.128 257.182 263.115 257.235C263.102 257.288 263.074 257.336 263.035 257.374C262.996 257.413 262.947 257.439 262.894 257.451L260.094 258.053L259.009 260.713C258.988 260.764 258.953 260.807 258.909 260.839C258.864 260.871 258.812 260.889 258.757 260.893C258.703 260.897 258.648 260.885 258.6 260.86C258.552 260.834 258.512 260.795 258.484 260.748L257.042 258.263L254.179 258.046C254.124 258.044 254.071 258.025 254.026 257.994C253.982 257.962 253.947 257.918 253.926 257.867C253.906 257.817 253.9 257.761 253.91 257.707C253.92 257.653 253.945 257.603 253.983 257.563L255.894 255.421L255.194 252.621C255.182 252.568 255.185 252.513 255.203 252.462C255.221 252.411 255.253 252.366 255.295 252.332C255.338 252.298 255.389 252.277 255.443 252.272C255.497 252.266 255.551 252.275 255.6 252.299Z" fill="var(--fill-0, white)"/>
<path id="Vector_65" d="M272.813 206.057L273.912 204.965L273.632 203.439C273.626 203.41 273.628 203.38 273.638 203.353C273.648 203.325 273.666 203.301 273.69 203.283C273.714 203.266 273.742 203.255 273.771 203.253C273.801 203.251 273.83 203.257 273.856 203.271L275.256 203.971L276.656 203.236C276.681 203.223 276.71 203.217 276.738 203.219C276.767 203.221 276.795 203.231 276.818 203.247C276.841 203.264 276.859 203.287 276.87 203.313C276.881 203.34 276.885 203.369 276.88 203.397L276.635 204.923L277.762 205.994C277.783 206.014 277.799 206.04 277.806 206.068C277.814 206.096 277.813 206.126 277.805 206.154C277.796 206.182 277.779 206.207 277.757 206.226C277.734 206.244 277.707 206.256 277.678 206.26L276.145 206.505L275.48 207.905C275.468 207.932 275.448 207.955 275.423 207.971C275.398 207.987 275.369 207.995 275.34 207.995C275.31 207.995 275.282 207.987 275.257 207.971C275.232 207.955 275.212 207.932 275.2 207.905L274.5 206.505L272.967 206.295C272.938 206.298 272.909 206.292 272.883 206.279C272.857 206.266 272.835 206.247 272.819 206.222C272.803 206.198 272.794 206.17 272.793 206.141C272.792 206.111 272.799 206.083 272.813 206.057Z" fill="var(--fill-0, #FF6B57)"/>
<path id="Vector_66" opacity="0.6" d="M272.813 206.057L273.912 204.965L273.632 203.439C273.626 203.41 273.628 203.38 273.638 203.353C273.648 203.325 273.666 203.301 273.69 203.283C273.714 203.266 273.742 203.255 273.771 203.253C273.801 203.251 273.83 203.257 273.856 203.271L275.256 203.971L276.656 203.236C276.681 203.223 276.71 203.217 276.738 203.219C276.767 203.221 276.795 203.231 276.818 203.247C276.841 203.264 276.859 203.287 276.87 203.313C276.881 203.34 276.885 203.369 276.88 203.397L276.635 204.923L277.762 205.994C277.783 206.014 277.799 206.04 277.806 206.068C277.814 206.096 277.813 206.126 277.805 206.154C277.796 206.182 277.779 206.207 277.757 206.226C277.734 206.244 277.707 206.256 277.678 206.26L276.145 206.505L275.48 207.905C275.468 207.932 275.448 207.955 275.423 207.971C275.398 207.987 275.369 207.995 275.34 207.995C275.31 207.995 275.282 207.987 275.257 207.971C275.232 207.955 275.212 207.932 275.2 207.905L274.5 206.505L272.967 206.295C272.938 206.298 272.909 206.292 272.883 206.279C272.857 206.266 272.835 206.247 272.819 206.222C272.803 206.198 272.794 206.17 272.793 206.141C272.792 206.111 272.799 206.083 272.813 206.057Z" fill="var(--fill-0, white)"/>
<path id="Vector_67" d="M250.854 243.017L252.394 242.835L253.094 241.435C253.108 241.41 253.128 241.39 253.153 241.376C253.178 241.361 253.206 241.354 253.234 241.354C253.262 241.354 253.29 241.361 253.315 241.376C253.34 241.39 253.36 241.41 253.374 241.435L254.025 242.835L255.551 243.101C255.579 243.106 255.606 243.119 255.627 243.138C255.649 243.158 255.665 243.182 255.673 243.21C255.681 243.238 255.681 243.267 255.673 243.295C255.665 243.323 255.649 243.348 255.628 243.367L254.494 244.417L254.718 245.95C254.724 245.98 254.721 246.01 254.709 246.037C254.698 246.065 254.679 246.089 254.655 246.106C254.63 246.123 254.601 246.133 254.572 246.133C254.542 246.134 254.512 246.127 254.487 246.111L253.136 245.355L251.736 246.055C251.71 246.067 251.681 246.071 251.653 246.068C251.625 246.064 251.598 246.054 251.575 246.036C251.552 246.019 251.534 245.997 251.523 245.97C251.512 245.944 251.508 245.915 251.512 245.887L251.813 244.368L250.735 243.255C250.722 243.232 250.715 243.207 250.715 243.18C250.714 243.154 250.72 243.128 250.732 243.105C250.743 243.081 250.761 243.061 250.782 243.046C250.803 243.031 250.828 243.021 250.854 243.017Z" fill="var(--fill-0, #FF6B57)"/>
<path id="Vector_68" opacity="0.6" d="M250.854 243.017L252.394 242.835L253.094 241.435C253.108 241.41 253.128 241.39 253.153 241.376C253.178 241.361 253.206 241.354 253.234 241.354C253.262 241.354 253.29 241.361 253.315 241.376C253.34 241.39 253.36 241.41 253.374 241.435L254.025 242.835L255.551 243.101C255.579 243.106 255.606 243.119 255.627 243.138C255.649 243.158 255.665 243.182 255.673 243.21C255.681 243.238 255.681 243.267 255.673 243.295C255.665 243.323 255.649 243.348 255.628 243.367L254.494 244.417L254.718 245.95C254.724 245.98 254.721 246.01 254.709 246.037C254.698 246.065 254.679 246.089 254.655 246.106C254.63 246.123 254.601 246.133 254.572 246.133C254.542 246.134 254.512 246.127 254.487 246.111L253.136 245.355L251.736 246.055C251.71 246.067 251.681 246.071 251.653 246.068C251.625 246.064 251.598 246.054 251.575 246.036C251.552 246.019 251.534 245.997 251.523 245.97C251.512 245.944 251.508 245.915 251.512 245.887L251.813 244.368L250.735 243.255C250.722 243.232 250.715 243.207 250.715 243.18C250.714 243.154 250.72 243.128 250.732 243.105C250.743 243.081 250.761 243.061 250.782 243.046C250.803 243.031 250.828 243.021 250.854 243.017Z" fill="var(--fill-0, white)"/>
<path id="Vector_69" d="M269.929 248.813C270.02 248.946 270.062 249.107 270.049 249.267C270.036 249.428 269.967 249.579 269.855 249.695C269.743 249.811 269.595 249.885 269.435 249.904C269.275 249.923 269.113 249.886 268.977 249.8C268.889 249.745 268.815 249.67 268.759 249.582C268.704 249.495 268.669 249.395 268.656 249.292C268.644 249.189 268.655 249.085 268.688 248.986C268.721 248.888 268.776 248.798 268.848 248.723C268.92 248.648 269.008 248.59 269.105 248.554C269.202 248.517 269.306 248.503 269.41 248.511C269.513 248.52 269.614 248.551 269.703 248.604C269.793 248.656 269.87 248.728 269.929 248.813Z" fill="var(--fill-0, #E0E0E0)"/>
<path id="Vector_70" d="M272.757 213.183C272.936 213.204 273.101 213.294 273.216 213.434C273.33 213.573 273.387 213.752 273.373 213.932C273.352 214.113 273.261 214.279 273.12 214.394C272.979 214.509 272.798 214.564 272.617 214.548C272.463 214.5 272.33 214.4 272.241 214.265C272.152 214.131 272.112 213.969 272.129 213.808C272.145 213.648 272.217 213.498 272.331 213.384C272.446 213.27 272.596 213.199 272.757 213.183Z" fill="var(--fill-0, #E0E0E0)"/>
<path id="Vector_71" d="M262.005 216.718C262.097 216.727 262.181 216.772 262.24 216.843C262.299 216.913 262.328 217.004 262.32 217.096C262.316 217.141 262.302 217.185 262.281 217.225C262.259 217.265 262.23 217.3 262.195 217.329C262.16 217.358 262.12 217.379 262.076 217.392C262.033 217.405 261.987 217.409 261.942 217.404C261.85 217.395 261.766 217.351 261.707 217.28C261.648 217.209 261.619 217.118 261.627 217.026C261.631 216.981 261.645 216.937 261.666 216.897C261.687 216.857 261.717 216.822 261.752 216.793C261.787 216.765 261.827 216.743 261.871 216.73C261.914 216.718 261.96 216.713 262.005 216.718Z" fill="var(--fill-0, #E0E0E0)"/>
<path id="Vector_72" d="M262.663 241.358C262.695 241.39 262.721 241.427 262.739 241.469C262.756 241.51 262.765 241.555 262.765 241.6C262.765 241.645 262.756 241.689 262.739 241.731C262.721 241.772 262.695 241.81 262.663 241.841C262.632 241.874 262.594 241.9 262.553 241.918C262.512 241.936 262.467 241.946 262.422 241.947C262.377 241.948 262.332 241.94 262.29 241.924C262.248 241.907 262.209 241.883 262.176 241.852C262.144 241.82 262.118 241.783 262.099 241.742C262.081 241.7 262.071 241.656 262.07 241.611C262.069 241.565 262.077 241.521 262.094 241.478C262.11 241.436 262.135 241.398 262.166 241.365C262.197 241.33 262.235 241.302 262.277 241.282C262.32 241.263 262.366 241.253 262.413 241.252C262.46 241.251 262.506 241.26 262.549 241.279C262.592 241.297 262.631 241.324 262.663 241.358Z" fill="var(--fill-0, #E0E0E0)"/>
<path id="Vector_73" d="M264.364 265.991C264.414 266.04 264.448 266.102 264.462 266.17C264.476 266.238 264.469 266.309 264.443 266.373C264.417 266.438 264.372 266.493 264.314 266.532C264.256 266.57 264.188 266.591 264.119 266.591C264.049 266.591 263.981 266.57 263.924 266.532C263.866 266.493 263.821 266.438 263.795 266.373C263.769 266.309 263.762 266.238 263.776 266.17C263.79 266.102 263.824 266.04 263.874 265.991C263.939 265.927 264.027 265.891 264.119 265.891C264.211 265.891 264.299 265.927 264.364 265.991Z" fill="var(--fill-0, #E0E0E0)"/>
<path id="Vector_74" d="M278.511 112.285C278.542 112.253 278.58 112.227 278.621 112.209C278.663 112.192 278.707 112.183 278.752 112.183C278.797 112.183 278.842 112.192 278.884 112.209C278.925 112.227 278.963 112.253 278.994 112.285C279.031 112.314 279.062 112.35 279.085 112.391C279.108 112.433 279.122 112.478 279.126 112.525C279.131 112.572 279.126 112.619 279.111 112.664C279.096 112.709 279.072 112.75 279.041 112.785C279.01 112.82 278.972 112.849 278.929 112.869C278.886 112.888 278.84 112.899 278.792 112.9C278.745 112.901 278.698 112.892 278.655 112.875C278.611 112.857 278.572 112.83 278.539 112.796C278.5 112.767 278.468 112.729 278.446 112.686C278.423 112.643 278.41 112.596 278.407 112.547C278.404 112.499 278.412 112.45 278.43 112.405C278.448 112.36 278.476 112.319 278.511 112.285Z" fill="var(--fill-0, #E0E0E0)"/>
<path id="Vector_75" d="M115.257 22.4052C115.302 22.4004 115.348 22.4046 115.391 22.4174C115.435 22.4303 115.475 22.4517 115.51 22.4804C115.545 22.509 115.574 22.5443 115.596 22.5843C115.617 22.6243 115.631 22.6681 115.635 22.7132C115.643 22.805 115.614 22.8962 115.555 22.9669C115.496 23.0377 115.412 23.0824 115.32 23.0912C115.275 23.0961 115.23 23.0919 115.187 23.0789C115.144 23.0659 115.104 23.0444 115.069 23.0157C115.035 22.987 115.006 22.9516 114.986 22.9117C114.965 22.8717 114.952 22.8281 114.949 22.7832C114.944 22.7381 114.948 22.6926 114.961 22.6491C114.974 22.6056 114.995 22.5651 115.024 22.53C115.053 22.4948 115.088 22.4657 115.128 22.4443C115.168 22.4229 115.212 22.4096 115.257 22.4052Z" fill="var(--fill-0, #E0E0E0)"/>
<path id="Vector_76" d="M9.48695 180.213C9.43505 180.265 9.36894 180.3 9.29699 180.315C9.22504 180.329 9.15046 180.322 9.0827 180.293C9.01493 180.265 8.95702 180.218 8.91627 180.157C8.87553 180.096 8.85378 180.024 8.85378 179.951C8.85378 179.877 8.87553 179.806 8.91627 179.745C8.95702 179.684 9.01493 179.636 9.0827 179.608C9.15046 179.58 9.22504 179.573 9.29699 179.587C9.36894 179.601 9.43505 179.636 9.48695 179.688C9.55496 179.759 9.59296 179.853 9.59296 179.951C9.59296 180.049 9.55496 180.143 9.48695 180.213Z" fill="var(--fill-0, #E0E0E0)"/>
<path id="Vector_77" d="M17.166 20.6482C17.8425 20.6482 18.391 20.0998 18.391 19.4232C18.391 18.7467 17.8425 18.1982 17.166 18.1982C16.4894 18.1982 15.941 18.7467 15.941 19.4232C15.941 20.0998 16.4894 20.6482 17.166 20.6482Z" fill="var(--fill-0, #FF6B57)"/>
<path id="Vector_78" opacity="0.6" d="M17.166 20.6482C17.8425 20.6482 18.391 20.0998 18.391 19.4232C18.391 18.7467 17.8425 18.1982 17.166 18.1982C16.4894 18.1982 15.941 18.7467 15.941 19.4232C15.941 20.0998 16.4894 20.6482 17.166 20.6482Z" fill="var(--fill-0, white)"/>
<path id="Vector_79" d="M124.616 292.577C124.678 292.722 124.696 292.883 124.667 293.038C124.639 293.194 124.564 293.337 124.454 293.45C124.343 293.563 124.202 293.641 124.047 293.674C123.892 293.706 123.731 293.692 123.585 293.633C123.438 293.574 123.312 293.472 123.223 293.342C123.134 293.211 123.086 293.057 123.085 292.899C123.084 292.741 123.129 292.586 123.216 292.454C123.303 292.322 123.427 292.219 123.573 292.157C123.669 292.116 123.772 292.094 123.877 292.092C123.981 292.091 124.085 292.111 124.182 292.15C124.279 292.189 124.367 292.247 124.442 292.32C124.516 292.393 124.575 292.481 124.616 292.577Z" fill="var(--fill-0, #FF6B57)"/>
<path id="Vector_80" opacity="0.6" d="M124.616 292.577C124.678 292.722 124.696 292.883 124.667 293.038C124.639 293.194 124.564 293.337 124.454 293.45C124.343 293.563 124.202 293.641 124.047 293.674C123.892 293.706 123.731 293.692 123.585 293.633C123.438 293.574 123.312 293.472 123.223 293.342C123.134 293.211 123.086 293.057 123.085 292.899C123.084 292.741 123.129 292.586 123.216 292.454C123.303 292.322 123.427 292.219 123.573 292.157C123.669 292.116 123.772 292.094 123.877 292.092C123.981 292.091 124.085 292.111 124.182 292.15C124.279 292.189 124.367 292.247 124.442 292.32C124.516 292.393 124.575 292.481 124.616 292.577Z" fill="var(--fill-0, white)"/>
<path id="Vector_81" d="M259.485 16.2592C259.387 16.3309 259.266 16.3662 259.145 16.3591C259.024 16.352 258.908 16.3029 258.819 16.2202C258.73 16.1375 258.672 16.0264 258.656 15.9059C258.639 15.7853 258.665 15.6628 258.729 15.5592C258.829 15.4605 258.963 15.4051 259.103 15.4051C259.244 15.4051 259.378 15.4605 259.478 15.5592C259.562 15.656 259.609 15.7796 259.611 15.9079C259.612 16.0363 259.567 16.1608 259.485 16.2592Z" fill="var(--fill-0, #FF6B57)"/>
<path id="Vector_82" opacity="0.6" d="M259.485 16.2592C259.387 16.3309 259.266 16.3662 259.145 16.3591C259.024 16.352 258.908 16.3029 258.819 16.2202C258.73 16.1375 258.672 16.0264 258.656 15.9059C258.639 15.7853 258.665 15.6628 258.729 15.5592C258.829 15.4605 258.963 15.4051 259.103 15.4051C259.244 15.4051 259.378 15.4605 259.478 15.5592C259.562 15.656 259.609 15.7796 259.611 15.9079C259.612 16.0363 259.567 16.1608 259.485 16.2592Z" fill="var(--fill-0, white)"/>
<path id="Vector_83" d="M46.286 150.932C46.3467 151.004 46.3924 151.087 46.4204 151.176C46.4484 151.266 46.4582 151.36 46.449 151.454C46.4399 151.547 46.412 151.637 46.3672 151.72C46.3224 151.802 46.2614 151.875 46.188 151.933C46.0803 152.019 45.9499 152.071 45.8129 152.083C45.676 152.095 45.5385 152.066 45.4178 152C45.297 151.934 45.1983 151.835 45.1339 151.713C45.0695 151.592 45.0423 151.454 45.0557 151.317C45.0691 151.18 45.1225 151.05 45.2092 150.944C45.2959 150.837 45.4121 150.758 45.5434 150.717C45.6746 150.676 45.815 150.675 45.947 150.713C46.0791 150.751 46.197 150.827 46.286 150.932Z" fill="var(--fill-0, #FF6B57)"/>
<path id="Vector_84" opacity="0.6" d="M46.286 150.932C46.3467 151.004 46.3924 151.087 46.4204 151.176C46.4484 151.266 46.4582 151.36 46.449 151.454C46.4399 151.547 46.412 151.637 46.3672 151.72C46.3224 151.802 46.2614 151.875 46.188 151.933C46.0803 152.019 45.9499 152.071 45.8129 152.083C45.676 152.095 45.5385 152.066 45.4178 152C45.297 151.934 45.1983 151.835 45.1339 151.713C45.0695 151.592 45.0423 151.454 45.0557 151.317C45.0691 151.18 45.1225 151.05 45.2092 150.944C45.2959 150.837 45.4121 150.758 45.5434 150.717C45.6746 150.676 45.815 150.675 45.947 150.713C46.0791 150.751 46.197 150.827 46.286 150.932Z" fill="var(--fill-0, white)"/>
<path id="Vector_85" d="M265.036 30.1472C264.962 30.2231 264.867 30.2752 264.764 30.2969C264.66 30.3186 264.552 30.309 264.454 30.2691C264.356 30.2293 264.272 30.1611 264.213 30.0733C264.154 29.9855 264.123 29.8821 264.123 29.7762C264.123 29.6704 264.154 29.567 264.213 29.4792C264.272 29.3914 264.356 29.3232 264.454 29.2833C264.552 29.2435 264.66 29.2338 264.764 29.2556C264.867 29.2773 264.962 29.3294 265.036 29.4052C265.134 29.5037 265.189 29.6371 265.189 29.7762C265.189 29.9154 265.134 30.0488 265.036 30.1472Z" fill="var(--fill-0, #FF6B57)"/>
<path id="Vector_86" opacity="0.6" d="M265.036 30.1472C264.962 30.2231 264.867 30.2752 264.764 30.2969C264.66 30.3186 264.552 30.309 264.454 30.2691C264.356 30.2293 264.272 30.1611 264.213 30.0733C264.154 29.9855 264.123 29.8821 264.123 29.7762C264.123 29.6704 264.154 29.567 264.213 29.4792C264.272 29.3914 264.356 29.3232 264.454 29.2833C264.552 29.2435 264.66 29.2338 264.764 29.2556C264.867 29.2773 264.962 29.3294 265.036 29.4052C265.134 29.5037 265.189 29.6371 265.189 29.7762C265.189 29.9154 265.134 30.0488 265.036 30.1472Z" fill="var(--fill-0, white)"/>
<path id="Vector_87" d="M22.15 82.5492C22.15 82.6877 22.1089 82.823 22.032 82.9381C21.9551 83.0533 21.8457 83.143 21.7178 83.196C21.5899 83.2489 21.4492 83.2628 21.3134 83.2358C21.1776 83.2088 21.0529 83.1421 20.955 83.0442C20.8571 82.9463 20.7904 82.8216 20.7634 82.6858C20.7364 82.55 20.7503 82.4093 20.8032 82.2814C20.8562 82.1535 20.9459 82.0441 21.0611 81.9672C21.1762 81.8903 21.3115 81.8492 21.45 81.8492C21.6356 81.8492 21.8136 81.923 21.9449 82.0543C22.0762 82.1855 22.15 82.3636 22.15 82.5492Z" fill="var(--fill-0, #FF6B57)"/>
<path id="Vector_88" opacity="0.6" d="M22.15 82.5492C22.15 82.6877 22.1089 82.823 22.032 82.9381C21.9551 83.0533 21.8457 83.143 21.7178 83.196C21.5899 83.2489 21.4492 83.2628 21.3134 83.2358C21.1776 83.2088 21.0529 83.1421 20.955 83.0442C20.8571 82.9463 20.7904 82.8216 20.7634 82.6858C20.7364 82.55 20.7503 82.4093 20.8032 82.2814C20.8562 82.1535 20.9459 82.0441 21.0611 81.9672C21.1762 81.8903 21.3115 81.8492 21.45 81.8492C21.6356 81.8492 21.8136 81.923 21.9449 82.0543C22.0762 82.1855 22.15 82.3636 22.15 82.5492Z" fill="var(--fill-0, white)"/>
<path id="Vector_89" d="M28.3799 110.437C28.3799 110.576 28.3389 110.711 28.262 110.826C28.1851 110.941 28.0757 111.031 27.9478 111.084C27.8199 111.137 27.6792 111.151 27.5434 111.124C27.4076 111.097 27.2829 111.03 27.185 110.932C27.0871 110.834 27.0204 110.71 26.9934 110.574C26.9664 110.438 26.9803 110.297 27.0332 110.169C27.0862 110.041 27.1759 109.932 27.2911 109.855C27.4062 109.778 27.5415 109.737 27.6799 109.737C27.8656 109.737 28.0436 109.811 28.1749 109.942C28.3062 110.074 28.3799 110.252 28.3799 110.437Z" fill="var(--fill-0, #FF6B57)"/>
<path id="Vector_90" opacity="0.6" d="M28.3799 110.437C28.3799 110.576 28.3389 110.711 28.262 110.826C28.1851 110.941 28.0757 111.031 27.9478 111.084C27.8199 111.137 27.6792 111.151 27.5434 111.124C27.4076 111.097 27.2829 111.03 27.185 110.932C27.0871 110.834 27.0204 110.71 26.9934 110.574C26.9664 110.438 26.9803 110.297 27.0332 110.169C27.0862 110.041 27.1759 109.932 27.2911 109.855C27.4062 109.778 27.5415 109.737 27.6799 109.737C27.8656 109.737 28.0436 109.811 28.1749 109.942C28.3062 110.074 28.3799 110.252 28.3799 110.437Z" fill="var(--fill-0, white)"/>
</g>
</svg>
