<svg preserveAspectRatio="none" width="100%" height="100%" overflow="visible" style="display: block;" viewBox="0 0 324.149 324.149" fill="none" xmlns="http://www.w3.org/2000/svg">
<g id="freepik--sunburst-effect--inject-72">
<path id="freepik--Sparkles--inject-72" opacity="0.1" d="M243.075 164.038C256.578 163.793 270.088 163.632 283.591 163.338L303.849 162.862C310.604 162.652 317.359 162.491 324.149 162.239V161.945C317.394 161.693 310.639 161.532 303.849 161.322L283.591 160.846C270.088 160.538 256.578 160.377 243.075 160.146C229.572 159.915 216.062 159.74 202.552 159.677C198.303 159.677 194.054 159.677 189.805 159.677C194.005 158.977 198.205 158.2 202.363 157.465C215.663 155.057 228.914 152.502 242.186 149.961C255.458 147.42 268.716 144.872 281.96 142.226L301.833 138.236C308.448 136.836 315.07 135.527 321.678 134.106L321.622 133.812C314.93 134.736 308.252 135.751 301.567 136.717L281.533 139.776C268.177 141.813 254.849 143.976 241.5 146.076C228.151 148.176 214.83 150.367 201.516 152.649C197.316 153.391 193.116 154.119 188.916 154.875C192.934 153.424 196.947 151.968 200.956 150.507C213.626 145.824 226.247 141.008 238.868 136.206C251.489 131.404 264.117 126.581 276.703 121.674L295.603 114.296C301.903 111.79 308.168 109.333 314.433 106.785L314.328 106.505C307.895 108.605 301.497 110.705 295.078 112.847L275.877 119.336C263.081 123.662 250.334 128.128 237.559 132.517C224.784 136.906 212.037 141.379 199.325 145.936C195.286 147.406 191.254 148.869 187.222 150.353C190.955 148.216 194.677 146.074 198.387 143.927C210.049 137.116 221.641 130.179 233.24 123.256C244.839 116.333 256.431 109.396 267.974 102.375L285.236 91.84C290.983 88.277 296.751 84.763 302.47 81.172L302.323 80.913C296.352 84.07 290.423 87.304 284.466 90.503L266.686 100.219C254.835 106.708 243.054 113.316 231.238 119.861C219.422 126.406 207.641 133.014 195.909 139.713C192.176 141.86 188.461 144.011 184.765 146.167C188.06 143.414 191.35 140.656 194.635 137.893C204.939 129.164 215.152 120.323 225.372 111.489C235.592 102.655 245.805 93.814 255.955 84.889L271.166 71.505C276.206 67.004 281.281 62.538 286.293 58.002L286.097 57.778C280.763 61.922 275.485 66.143 270.179 70.322L254.352 82.978C243.81 91.42 233.352 99.974 222.852 108.472C212.352 116.97 201.936 125.538 191.513 134.169C188.223 136.908 184.931 139.678 181.636 142.478C184.436 139.211 187.201 135.924 189.931 132.615C198.562 122.227 207.081 111.741 215.614 101.276C224.147 90.811 232.666 80.318 241.108 69.776L253.771 53.949C257.971 48.643 262.171 43.365 266.315 38.031L266.091 37.835C261.555 42.847 257.089 47.922 252.588 52.962L239.204 68.173C230.286 78.323 221.48 88.564 212.604 98.756C203.728 108.948 194.936 119.175 186.221 129.479C183.454 132.746 180.696 136.036 177.947 139.349C180.108 135.616 182.259 131.901 184.401 128.205C191.1 116.473 197.666 104.671 204.253 92.876C210.84 81.081 217.406 69.279 223.895 57.428L233.611 39.648C236.81 33.691 240.044 27.748 243.201 21.791L242.942 21.644C239.351 27.363 235.837 33.131 232.274 38.878L221.774 56.182C214.774 67.725 207.858 79.345 200.893 90.916C193.928 102.487 187.033 114.107 180.222 125.769C178.08 129.502 175.938 133.236 173.796 136.969C175.28 132.937 176.743 128.905 178.213 124.866C182.77 112.154 187.194 99.393 191.632 86.632C196.07 73.871 200.487 61.11 204.813 48.314L211.267 29.078C213.367 22.659 215.537 16.261 217.609 9.828L217.329 9.723C214.781 15.988 212.324 22.274 209.818 28.553L202.44 47.453C197.54 60.053 192.759 72.653 187.908 85.288C183.057 97.923 178.29 110.53 173.607 123.2C172.151 127.213 170.695 131.227 169.239 135.24C169.995 131.04 170.723 126.84 171.465 122.64C173.747 109.34 175.882 95.991 178.038 82.656C180.194 69.321 182.329 55.979 184.338 42.623L187.39 22.589C188.363 15.904 189.378 9.226 190.302 2.534L190.008 2.478C188.608 9.086 187.25 15.708 185.878 22.323L181.888 42.196C179.242 55.44 176.736 68.712 174.188 81.97C171.64 95.228 169.092 108.507 166.684 121.793C165.984 125.993 165.193 130.193 164.472 134.351C164.472 130.102 164.472 125.853 164.472 121.604C164.409 108.094 164.199 94.591 164.003 81.081C163.807 67.571 163.597 54.068 163.303 40.565L162.806 20.258C162.596 13.51 162.435 6.755 162.183 0H161.889C161.637 6.755 161.476 13.51 161.266 20.258L160.79 40.523C160.482 54.026 160.321 67.536 160.09 81.039C159.859 94.542 159.684 108.052 159.621 121.562C159.621 125.811 159.621 130.06 159.621 134.309C158.921 130.109 158.144 125.909 157.409 121.751C155.001 108.451 152.446 95.2 149.905 81.928C147.364 68.656 144.816 55.398 142.17 42.154L138.18 22.281C136.78 15.666 135.471 9.044 134.05 2.436L133.756 2.492C134.68 9.184 135.695 15.862 136.661 22.547L139.72 42.581C141.757 55.937 143.92 69.265 146.02 82.614C148.12 95.963 150.311 109.284 152.593 122.598C153.335 126.798 154.063 130.998 154.819 135.198C153.368 131.18 151.912 127.167 150.451 123.158C145.768 110.488 140.952 97.867 136.15 85.246C131.348 72.625 126.525 59.997 121.618 47.446L114.24 28.546C111.734 22.246 109.277 15.946 106.729 9.716L106.449 9.821C108.549 16.254 110.649 22.652 112.791 29.071L119.28 48.272C123.606 61.068 128.072 73.815 132.461 86.59C136.85 99.365 141.323 112.112 145.88 124.824C147.35 128.863 148.813 132.895 150.297 136.927C148.16 133.194 146.018 129.46 143.871 125.727C137.06 114.065 130.123 102.473 123.2 90.874C116.277 79.275 109.34 67.683 102.319 56.14L91.798 38.878C88.235 33.131 84.721 27.363 81.13 21.644L80.871 21.791C84.028 27.762 87.262 33.691 90.461 39.648L100.177 57.428C106.666 69.279 113.274 81.06 119.819 92.876C126.364 104.692 132.972 116.473 139.671 128.205C141.818 131.938 143.969 135.653 146.125 139.349C143.372 136.05 140.614 132.76 137.851 129.479C129.122 119.175 120.281 108.962 111.447 98.742C102.613 88.522 93.772 78.309 84.847 68.159L71.47 52.948C66.969 47.908 62.503 42.833 57.967 37.821L57.743 38.017C61.887 43.351 66.108 48.629 70.287 53.935L82.936 69.762C91.378 80.304 99.932 90.762 108.43 101.262C116.928 111.762 125.482 122.213 134.113 132.601C136.862 135.891 139.636 139.183 142.436 142.478C139.169 139.678 135.882 136.913 132.573 134.183C122.185 125.552 111.699 117.033 101.227 108.5C90.755 99.967 80.276 91.448 69.727 83.006L53.893 70.329C48.587 66.129 43.309 61.929 37.975 57.785L37.779 58.009C42.791 62.545 47.866 67.011 52.899 71.512L68.117 84.896C78.267 93.814 88.508 102.62 98.7 111.496C108.892 120.372 119.133 129.171 129.43 137.9C132.72 140.667 136.012 143.425 139.307 146.174C135.574 144.009 131.859 141.857 128.163 139.72C116.431 133.021 104.629 126.42 92.834 119.868C81.039 113.316 69.237 106.715 57.386 100.226L39.606 90.503C33.649 87.304 27.706 84.07 21.749 80.913L21.602 81.172C27.321 84.763 33.089 88.277 38.836 91.84L56.14 102.375C67.683 109.375 79.303 116.291 90.874 123.256C102.445 130.221 114.065 137.116 125.727 143.927C129.46 146.069 133.194 148.211 136.927 150.353C132.895 148.869 128.863 147.406 124.824 145.936C112.112 141.379 99.351 136.955 86.59 132.517C73.829 128.079 61.068 123.662 48.272 119.336L29.036 112.847C22.617 110.747 16.219 108.577 9.786 106.505L9.681 106.785C15.946 109.333 22.232 111.79 28.511 114.296L47.411 121.674C60.011 126.574 72.611 131.355 85.246 136.206C97.881 141.057 110.488 145.824 123.158 150.507C127.171 151.963 131.185 153.419 135.198 154.875C130.998 154.119 126.798 153.391 122.598 152.649C109.298 150.367 95.949 148.232 82.614 146.076C69.279 143.92 55.937 141.785 42.581 139.776L22.547 136.717C15.862 135.751 9.184 134.736 2.492 133.812L2.436 134.106C9.044 135.506 15.666 136.864 22.281 138.236L42.154 142.226C55.398 144.872 68.67 147.378 81.928 149.961C95.186 152.544 108.465 155.057 121.751 157.465C125.951 158.165 130.151 158.956 134.309 159.677C130.06 159.677 125.811 159.677 121.562 159.677C108.052 159.74 94.549 159.95 81.039 160.146C67.529 160.342 54.026 160.552 40.523 160.846L20.258 161.322C13.51 161.532 6.755 161.693 0 161.945V162.239C6.755 162.491 13.51 162.652 20.258 162.862L40.523 163.338C54.026 163.646 67.536 163.807 81.039 164.038C94.542 164.269 108.052 164.444 121.562 164.507C125.811 164.507 130.06 164.507 134.309 164.507C130.109 165.207 125.909 165.984 121.751 166.719C108.451 169.127 95.2 171.682 81.928 174.223C68.656 176.764 55.398 179.312 42.154 181.923L22.281 185.913C15.666 187.313 9.044 188.622 2.436 190.043L2.492 190.337C9.184 189.413 15.862 188.398 22.547 187.432L42.581 184.373C55.937 182.336 69.265 180.173 82.614 178.073C95.963 175.973 109.284 173.782 122.598 171.5C126.798 170.758 130.998 170.03 135.198 169.274C131.18 170.721 127.167 172.177 123.158 173.642C110.488 178.325 97.867 183.141 85.246 187.943C72.625 192.745 59.997 197.568 47.446 202.475L28.546 209.853C22.246 212.359 15.946 214.816 9.716 217.364L9.821 217.644C16.254 215.544 22.652 213.444 29.071 211.302L48.272 204.813C61.068 200.487 73.815 196.021 86.59 191.632C99.365 187.243 112.112 182.77 124.824 178.213C128.863 176.743 132.895 175.28 136.927 173.796C133.194 175.933 129.46 178.075 125.727 180.222C114.065 187.033 102.473 193.97 90.874 200.893C79.275 207.816 67.683 214.753 56.14 221.774L38.836 232.316C33.089 235.879 27.321 239.393 21.602 242.984L21.749 243.243C27.72 240.086 33.649 236.852 39.606 233.653L57.386 223.937C69.237 217.448 81.018 210.84 92.834 204.295C104.65 197.75 116.431 191.142 128.163 184.443C131.896 182.296 135.611 180.145 139.307 177.989C136.008 180.738 132.715 183.496 129.43 186.263C119.133 194.992 108.92 203.833 98.7 212.667C88.48 221.501 78.267 230.342 68.117 239.267L52.899 252.644C47.866 257.145 42.791 261.611 37.779 266.147L37.975 266.371C43.309 262.227 48.587 258.006 53.893 253.827L69.72 241.178C80.262 232.736 90.72 224.182 101.22 215.684C111.72 207.186 122.178 198.632 132.566 190.001C135.851 187.252 139.141 184.478 142.436 181.678C139.664 184.945 136.901 188.232 134.148 191.541C125.517 201.929 116.998 212.415 108.465 222.88C99.932 233.345 91.413 243.838 82.971 254.38L70.308 270.207C66.108 275.513 61.908 280.791 57.764 286.125L57.988 286.321C62.524 281.309 66.99 276.234 71.491 271.194L84.875 255.983C93.793 245.833 102.599 235.592 111.475 225.4C120.351 215.208 129.15 204.967 137.879 194.663C140.646 191.396 143.404 188.106 146.153 184.793C143.988 188.503 141.836 192.218 139.699 195.937C133 207.669 126.399 219.471 119.847 231.266C113.295 243.061 106.694 254.863 100.205 266.714L90.489 284.494C87.29 290.451 84.056 296.394 80.899 302.351L81.158 302.498C84.749 296.779 88.263 291.011 91.826 285.264L102.361 267.96C109.361 256.417 116.277 244.797 123.242 233.226C130.207 221.655 137.102 210.035 143.913 198.373C146.055 194.64 148.197 190.918 150.339 187.208C148.855 191.24 147.392 195.272 145.922 199.311C141.365 212.023 136.941 224.784 132.503 237.545C128.065 250.306 123.648 263.067 119.322 275.863L112.805 295.078C110.705 301.497 108.535 307.895 106.463 314.328L106.743 314.433C109.291 308.168 111.748 301.882 114.254 295.603L121.632 276.703C126.532 264.103 131.313 251.503 136.164 238.868C141.015 226.233 145.782 213.626 150.465 200.956C151.921 196.947 153.377 192.934 154.833 188.916C154.077 193.116 153.349 197.316 152.607 201.516C150.325 214.816 148.19 228.165 146.034 241.5C143.878 254.835 141.743 268.177 139.734 281.533L136.675 301.567C135.709 308.252 134.694 314.93 133.77 321.622L134.064 321.678C135.464 315.07 136.822 308.448 138.194 301.833L142.184 281.96C144.83 268.716 147.336 255.444 149.919 242.186C152.502 228.928 155.015 215.649 157.423 202.363C158.123 198.163 158.914 193.963 159.635 189.805C159.635 194.054 159.635 198.303 159.635 202.552C159.698 216.062 159.908 229.565 160.104 243.075C160.3 256.585 160.51 270.088 160.804 283.591L161.28 303.891C161.49 310.639 161.651 317.394 161.903 324.149H162.197C162.449 317.394 162.61 310.639 162.82 303.891L163.296 283.591C163.604 270.088 163.765 256.578 163.996 243.075C164.227 229.572 164.402 216.062 164.465 202.552C164.465 198.303 164.465 194.054 164.465 189.805C165.165 194.005 165.942 198.205 166.677 202.363C169.085 215.663 171.64 228.914 174.181 242.186C176.722 255.458 179.27 268.716 181.881 281.96L185.871 301.833C187.271 308.448 188.58 315.07 190.001 321.678L190.295 321.622C189.371 314.93 188.356 308.252 187.383 301.567L184.331 281.533C182.294 268.177 180.131 254.849 178.031 241.5C175.931 228.151 173.74 214.83 171.458 201.516C170.716 197.316 169.988 193.116 169.232 188.916C170.679 192.934 172.135 196.947 173.6 200.956C178.283 213.626 183.099 226.247 187.901 238.868C192.703 251.489 197.526 264.117 202.433 276.703L209.811 295.603C212.317 301.903 214.774 308.168 217.322 314.433L217.602 314.328C215.502 307.895 213.402 301.497 211.26 295.078L204.771 275.877C200.445 263.081 195.979 250.334 191.59 237.559C187.201 224.784 182.728 212.037 178.171 199.325C176.701 195.286 175.238 191.254 173.754 187.222C175.891 190.955 178.033 194.677 180.18 198.387C186.991 210.049 193.928 221.641 200.851 233.24C207.774 244.839 214.711 256.431 221.732 267.974L232.232 285.278C235.795 291.025 239.309 296.793 242.9 302.512L243.159 302.365C240.002 296.394 236.768 290.465 233.569 284.508L223.853 266.728C217.364 254.877 210.756 243.096 204.211 231.28C197.666 219.464 191.1 207.683 184.436 195.951C182.289 192.218 180.138 188.503 177.982 184.807C180.731 188.102 183.489 191.392 186.256 194.677C194.985 204.981 203.826 215.194 212.66 225.414C221.494 235.634 230.335 245.847 239.26 255.997L252.644 271.208C257.145 276.248 261.611 281.323 266.147 286.335L266.371 286.139C262.227 280.805 258.006 275.527 253.827 270.221L241.136 254.394C232.694 243.852 224.14 233.394 215.642 222.894C207.144 212.394 198.576 201.978 189.945 191.555C187.206 188.265 184.436 184.973 181.636 181.678C184.903 184.45 188.188 187.213 191.492 189.966C201.88 198.597 212.359 207.116 222.831 215.649C233.303 224.182 244.069 232.701 254.611 241.143L270.158 253.806C275.464 258.006 280.742 262.206 286.076 266.35L286.272 266.126C281.26 261.59 276.185 257.124 271.145 252.623L255.934 239.239C245.784 230.321 235.543 221.515 225.351 212.639C215.159 203.763 204.939 194.978 194.635 186.263C191.368 183.496 188.078 180.738 184.765 177.989C188.475 180.15 192.19 182.301 195.909 184.443C207.641 191.142 219.443 197.708 231.238 204.295C243.033 210.882 254.835 217.448 266.686 223.937L284.466 233.653C290.423 236.852 296.366 240.086 302.323 243.243L302.47 242.984C296.751 239.393 290.983 235.879 285.236 232.316L267.932 221.816C256.389 214.816 244.769 207.9 233.198 200.935C221.627 193.97 210.007 187.075 198.345 180.264C194.612 178.122 190.89 175.98 187.18 173.838C191.212 175.322 195.244 176.785 199.283 178.255C211.995 182.812 224.756 187.236 237.517 191.674C250.278 196.112 263.039 200.529 275.835 204.855L295.036 211.309C301.455 213.409 307.853 215.579 314.286 217.651L314.391 217.371C308.126 214.823 301.84 212.366 295.561 209.86L276.661 202.482C264.061 197.582 251.461 192.801 238.826 187.95C226.191 183.099 213.584 178.332 200.914 173.649C196.905 172.193 192.89 170.737 188.867 169.281C193.067 170.037 197.267 170.765 201.467 171.507C214.767 173.789 228.116 175.924 241.451 178.08C254.786 180.236 268.128 182.371 281.484 184.38L301.518 187.439C308.203 188.405 314.881 189.42 321.573 190.344L321.629 190.05C315.021 188.65 308.399 187.292 301.784 185.92L281.911 181.93C268.667 179.284 255.395 176.778 242.137 174.23C228.879 171.682 215.6 169.134 202.314 166.726C198.114 166.026 193.914 165.235 189.756 164.514C194.005 164.514 198.254 164.514 202.503 164.514C216.062 164.444 229.565 164.234 243.075 164.038Z" fill="var(--fill-0, #FF6B57)"/>
</g>
</svg>
