<svg preserveAspectRatio="none" width="100%" height="100%" overflow="visible" style="display: block;" viewBox="0 0 66.5329 82.999" fill="none" xmlns="http://www.w3.org/2000/svg">
<g id="freepik--tag--inject-72">
<g id="freepik--Discount--inject-72">
<g id="freepik--Label--inject-72">
<path id="Vector" d="M1.52588e-06 0.727999V32.228L42.91 57.008L44.142 56.308L55.069 46.844L44.142 24.766L1.232 0.0279991L1.52588e-06 0.727999ZM45.388 43.946C44.9852 43.9218 44.594 43.8018 44.247 43.596C43.4845 43.0959 42.8503 42.4235 42.3956 41.6331C41.9408 40.8427 41.6782 39.9565 41.629 39.046C41.6196 38.6501 41.7086 38.2581 41.888 37.905C42.2865 37.9231 42.674 38.041 43.015 38.248C43.7798 38.7446 44.4163 39.4151 44.8725 40.2046C45.3287 40.9942 45.5917 41.8804 45.64 42.791C45.6533 43.1865 45.5666 43.5789 45.388 43.932V43.946Z" fill="var(--fill-0, #FF6B57)"/>
<path id="Vector_2" d="M1.52588e-06 0.727999V32.228L42.91 57.008L53.837 47.544L42.91 25.459L1.52588e-06 0.727999ZM40.397 39.76C40.397 38.094 41.573 37.415 43.015 38.248C43.7798 38.7446 44.4163 39.4151 44.8725 40.2046C45.3287 40.9942 45.5917 41.8804 45.64 42.791C45.64 44.471 44.471 45.15 43.015 44.303C42.2508 43.803 41.6155 43.1297 41.1606 42.3379C40.7056 41.546 40.444 40.658 40.397 39.746V39.76Z" fill="var(--fill-0, #FF6B57)"/>
<g id="Group" opacity="0.3">
<path id="Vector_3" d="M40.397 39.746C40.4462 40.6556 40.7088 41.5408 41.1636 42.33C41.6185 43.1193 42.2527 43.7904 43.015 44.289C44.072 44.898 44.968 44.716 45.388 43.932C44.9848 43.9103 44.593 43.7901 44.247 43.582C43.4836 43.0822 42.8484 42.4101 42.3924 41.6198C41.9364 40.8294 41.6725 39.943 41.622 39.032C41.6136 38.6376 41.7051 38.2475 41.888 37.898C41.7068 37.8889 41.5257 37.9171 41.3559 37.9809C41.1861 38.0447 41.0313 38.1428 40.901 38.269C40.7237 38.4698 40.5879 38.7036 40.5014 38.9571C40.4149 39.2106 40.3794 39.4787 40.397 39.746Z" fill="var(--fill-0, black)"/>
</g>
<g id="Group_2" opacity="0.3">
<path id="Vector_4" d="M0 0.714003L1.232 0L44.142 24.78L42.91 25.494L0 0.714003Z" fill="var(--fill-0, white)"/>
</g>
<g id="Group_3" opacity="0.15">
<path id="Vector_5" d="M42.91 25.494L53.837 47.572L55.069 46.865L44.142 24.78L42.91 25.494Z" fill="var(--fill-0, black)"/>
</g>
<g id="Group_4" opacity="0.3">
<path id="Vector_6" d="M53.837 47.572L42.91 57.036L44.142 56.322L55.069 46.865L53.837 47.572Z" fill="var(--fill-0, black)"/>
</g>
</g>
<path id="Vector_7" d="M17.255 25.928C18.1183 25.2793 18.5477 23.9493 18.543 21.938C18.552 20.638 18.351 19.345 17.948 18.109C17.577 16.9677 17.0187 15.8961 16.296 14.938C15.6483 14.0911 14.8424 13.3779 13.923 12.838C13.2249 12.3696 12.3874 12.1546 11.55 12.229C11.1912 12.2866 10.8523 12.4326 10.5639 12.6537C10.2755 12.8749 10.0467 13.1644 9.898 13.496C9.451 14.476 9.2469 15.5493 9.303 16.625C9.27795 18.532 9.72015 20.4162 10.591 22.113C11.3281 23.6218 12.4851 24.8857 13.923 25.753C15.281 26.5137 16.3917 26.572 17.255 25.928ZM13.139 21.028C12.9071 20.2544 12.8031 19.4481 12.831 18.641C12.7739 17.9519 12.8794 17.2589 13.139 16.618C13.1697 16.5461 13.216 16.482 13.2746 16.4304C13.3331 16.3787 13.4025 16.3407 13.4776 16.3193C13.5528 16.2978 13.6317 16.2934 13.7088 16.3063C13.7858 16.3192 13.859 16.3492 13.923 16.394C14.3032 16.6712 14.5793 17.0681 14.707 17.521C14.9389 18.2946 15.0429 19.1009 15.015 19.908C15.0721 20.5971 14.9666 21.2901 14.707 21.931C14.6763 22.0029 14.63 22.067 14.5714 22.1186C14.5129 22.1703 14.4435 22.2083 14.3684 22.2297C14.2932 22.2512 14.2143 22.2556 14.1372 22.2427C14.0602 22.2298 13.987 22.1998 13.923 22.155C13.5428 21.8778 13.2667 21.4809 13.139 21.028ZM30.695 36.428C30.324 35.2867 29.7657 34.2151 29.043 33.257C28.3948 32.4105 27.589 31.6974 26.67 31.157C25.9692 30.6951 25.1332 30.4831 24.297 30.555C23.9387 30.6113 23.6 30.756 23.3116 30.976C23.0232 31.196 22.7941 31.4843 22.645 31.815C22.199 32.7978 21.995 33.8731 22.05 34.951C22.0241 36.8559 22.4664 38.738 23.338 40.432C24.073 41.944 25.2303 43.2108 26.67 44.079C28.028 44.863 29.1363 44.9307 29.995 44.282C30.8537 43.6333 31.2853 42.301 31.29 40.285C31.2987 38.9758 31.0978 37.6737 30.695 36.428ZM27.447 40.236C27.419 40.3092 27.3745 40.3749 27.317 40.4281C27.2595 40.4814 27.1905 40.5207 27.1154 40.543C27.0403 40.5653 26.9611 40.5701 26.8839 40.5569C26.8066 40.5437 26.7334 40.513 26.67 40.467C26.2844 40.192 26.007 39.7909 25.886 39.333C25.6501 38.5627 25.5459 37.758 25.578 36.953C25.5171 36.2637 25.6228 35.5699 25.886 34.93C25.9167 34.8581 25.963 34.794 26.0216 34.7424C26.0801 34.6907 26.1495 34.6527 26.2246 34.6313C26.2998 34.6098 26.3787 34.6054 26.4558 34.6183C26.5328 34.6312 26.606 34.6612 26.67 34.706C27.0529 34.9791 27.3279 35.378 27.447 35.833C27.6853 36.6029 27.7918 37.4076 27.762 38.213C27.8172 38.8913 27.7092 39.573 27.447 40.201V40.236ZM24.703 19.292L12.803 35.63L15.932 37.415L27.832 21.084L24.703 19.292Z" fill="var(--fill-0, #FAFAFA)"/>
</g>
<path id="Vector_8" d="M64.981 82.999H64.806C64.626 82.9543 64.4711 82.84 64.3753 82.6812C64.2795 82.5224 64.2506 82.3321 64.295 82.152C70.07 58.947 44.842 42.56 43.764 41.874C43.6814 41.8269 43.6093 41.7635 43.5521 41.6876C43.4948 41.6118 43.4536 41.525 43.431 41.4327C43.4084 41.3404 43.4047 41.2445 43.4204 41.1507C43.436 41.057 43.4706 40.9674 43.522 40.8874C43.5734 40.8075 43.6406 40.7388 43.7193 40.6857C43.7981 40.6325 43.8869 40.596 43.9803 40.5782C44.0737 40.5605 44.1697 40.562 44.2625 40.5826C44.3553 40.6032 44.4429 40.6425 44.52 40.698C54.628 47.138 70.42 63.189 65.66 82.488C65.6185 82.6359 65.5296 82.766 65.4069 82.8583C65.2842 82.9507 65.1346 83.0001 64.981 82.999Z" fill="var(--fill-0, #F0F0F0)"/>
</g>
</svg>
