<svg preserveAspectRatio="none" width="100%" height="100%" overflow="visible" style="display: block;" viewBox="0 0 77.2557 174.347" fill="none" xmlns="http://www.w3.org/2000/svg">
<g id="freepik--Bottom--inject-77">
<path id="Vector" d="M72.4999 140.182C71.7649 129.997 72.9059 122.185 72.0589 106.281C71.9819 102.207 71.8349 97.839 71.5619 93.961C70.6449 80.906 68.6289 76.461 68.4469 73.927C68.4469 73.927 68.0969 53.627 67.2499 25.053C66.8439 11.62 62.9519 7.553 59.8439 0.420004H22.8629C18.7329 18.018 17.5569 56.42 17.6759 74.529C17.7389 83.776 20.7629 132.482 20.8399 133.623C21.1059 137.655 20.7489 139.223 19.1669 140.945C15.8559 144.501 11.0539 147.889 6.90293 150.983C7.50493 152.572 13.2029 153.272 15.6809 152.061C18.9184 150.378 22.001 148.413 24.8929 146.188C28.3019 143.661 32.6629 141.638 32.7189 137.788C32.7375 137.552 32.7749 137.318 32.8309 137.088C32.9009 134.841 38.1299 101.759 38.5639 94.08C38.9419 87.479 38.1369 76.272 38.1369 76.272L42.3929 48.272C42.3929 48.272 45.0179 64.799 47.6779 76.09C49.8409 85.274 53.4039 100.954 55.8399 112.259C58.1779 125.279 61.6079 134.554 62.2029 141.071C62.3849 142.632 64.1489 157.906 64.8769 161.406C65.6049 164.906 73.2279 165.004 73.7179 158.984C74.0469 155.029 72.6399 142.114 72.4999 140.182Z" fill="var(--fill-0, #FFA8A7)"/>
<path id="Vector_2" d="M42.3929 48.314L39.2779 28.14C39.2779 28.14 27.2449 26.74 22.8629 22.54C22.8629 22.54 28.3859 30.331 36.5549 31.598L39.9849 48.321L38.1719 76.076L42.3929 48.314Z" fill="var(--fill-0, #9A4A4D)"/>
<path id="Vector_3" d="M0.546929 155.806C0.336929 155.806 -0.00608073 158.123 1.12792 159.124C2.44392 160.279 6.30791 162.197 11.4459 161.588C16.5839 160.979 19.3839 159.425 21.4559 157.724C23.5279 156.023 26.4329 153.636 28.7639 153.146C30.9269 152.691 33.2789 151.746 33.9789 151.081C34.6789 150.416 34.6089 147.455 34.6089 147.455L0.546929 155.806Z" fill="var(--fill-0, #263238)"/>
<path id="Vector_4" d="M32.9429 136.024C32.9429 136.024 33.3279 136.024 33.4539 136.724C33.6009 137.536 33.7479 139.916 34.0769 141.26C34.5784 143.629 34.7223 146.059 34.5039 148.47C34.2029 149.982 30.6749 151.004 28.4209 151.837C25.7606 152.961 23.2869 154.483 21.0849 156.352C18.6559 158.319 13.5599 160.258 10.2139 160.272C5.10395 160.272 1.81395 158.872 0.805945 157.024C-0.433055 154.742 -0.139064 152.677 5.76194 150.024C6.88194 149.527 10.8089 147.224 12.1459 146.433C13.5665 145.568 14.9128 144.587 16.1709 143.5C16.8057 142.949 17.4109 142.365 17.9839 141.75C18.5751 141.199 19.0822 140.565 19.4889 139.867C19.5589 139.713 19.6079 139.531 19.6639 139.37C19.8398 138.917 19.9734 138.448 20.0629 137.97C20.1679 137.487 20.2309 136.773 20.6999 136.486C21.3659 136.219 22.0927 136.142 22.7999 136.262C23.8702 136.412 24.9294 136.632 25.9709 136.92C26.4277 136.99 26.8615 137.166 27.2374 137.435C27.6132 137.704 27.9203 138.057 28.1339 138.467C28.4686 139.127 28.6277 139.862 28.5959 140.602C28.5959 140.945 28.5959 141.302 28.5959 141.631C28.5959 141.778 28.5329 142.037 28.7359 141.981C28.9389 141.925 29.1559 141.414 29.2329 141.239C29.3939 140.861 29.5059 140.448 29.6879 140.077C29.887 139.637 30.1359 139.221 30.4299 138.838C30.7067 138.494 31.0214 138.181 31.3679 137.907C31.7189 137.713 32.0578 137.498 32.3829 137.263C32.6875 136.914 32.8823 136.483 32.9429 136.024Z" fill="var(--fill-0, #37474F)"/>
<path id="Vector_5" d="M4.82392 150.465C12.2159 151.053 15.2049 156.401 15.4919 159.229C13.8017 159.848 12.0261 160.202 10.2279 160.279C5.11792 160.279 1.61093 158.879 0.609929 157.031C-0.573071 154.875 -0.454078 152.397 4.82392 150.465Z" fill="var(--fill-0, #FAFAFA)"/>
<path id="Vector_6" d="M16.6049 151.417C16.6881 151.416 16.7688 151.389 16.8359 151.34C16.911 151.28 16.959 151.192 16.9695 151.096C16.98 151 16.9521 150.904 16.8919 150.829C15.8769 149.555 12.2159 147.098 9.52091 147.364C9.44583 147.392 9.38219 147.445 9.33987 147.513C9.29755 147.581 9.27893 147.661 9.28691 147.741C9.29489 147.821 9.32903 147.896 9.384 147.954C9.43898 148.013 9.51172 148.051 9.59092 148.064C12.1039 147.819 15.5199 150.248 16.3249 151.256C16.3556 151.303 16.397 151.342 16.4457 151.37C16.4943 151.398 16.5489 151.414 16.6049 151.417Z" fill="var(--fill-0, #F0F0F0)"/>
<path id="Vector_7" d="M19.8109 149.597C19.8953 149.597 19.977 149.567 20.0419 149.513C20.0789 149.484 20.1096 149.447 20.1325 149.406C20.1553 149.365 20.1698 149.32 20.175 149.273C20.1802 149.226 20.176 149.178 20.1628 149.133C20.1496 149.088 20.1275 149.046 20.0979 149.009C19.0829 147.735 15.4149 145.271 12.7269 145.509C12.68 145.513 12.6343 145.527 12.5927 145.549C12.551 145.571 12.5141 145.601 12.4842 145.638C12.4542 145.674 12.4318 145.716 12.4182 145.762C12.4046 145.807 12.4001 145.854 12.4049 145.901C12.4084 145.948 12.4214 145.994 12.4432 146.037C12.465 146.079 12.4952 146.116 12.5318 146.146C12.5685 146.176 12.6109 146.199 12.6565 146.212C12.702 146.225 12.7498 146.229 12.7969 146.223C15.3099 145.985 18.7259 148.414 19.5309 149.422C19.5613 149.47 19.6023 149.511 19.6508 149.542C19.6993 149.572 19.7541 149.591 19.8109 149.597Z" fill="var(--fill-0, #F0F0F0)"/>
<path id="Vector_8" d="M22.7859 147.504C22.8695 147.506 22.9511 147.478 23.0169 147.427C23.0904 147.366 23.1373 147.278 23.1478 147.183C23.1582 147.088 23.1314 146.992 23.0729 146.916C22.0579 145.649 18.3829 143.185 15.7019 143.451C15.6065 143.462 15.5191 143.509 15.4588 143.584C15.3985 143.659 15.3701 143.754 15.3799 143.85C15.3834 143.897 15.3964 143.943 15.4182 143.986C15.44 144.028 15.4702 144.065 15.5069 144.095C15.5435 144.125 15.5859 144.148 15.6315 144.161C15.6771 144.174 15.7249 144.178 15.7719 144.172C18.2779 143.934 21.7009 146.363 22.5059 147.371C22.5393 147.413 22.5818 147.447 22.6304 147.47C22.679 147.493 22.7322 147.505 22.7859 147.504Z" fill="var(--fill-0, #F0F0F0)"/>
<path id="Vector_9" d="M25.6979 145.418C25.7795 145.42 25.8591 145.393 25.9219 145.341C25.9602 145.313 25.9924 145.277 26.0164 145.236C26.0404 145.195 26.0559 145.15 26.0618 145.103C26.0677 145.055 26.0639 145.008 26.0507 144.962C26.0375 144.916 26.0151 144.874 25.9849 144.837C24.5849 143.031 20.6929 141.064 18.0049 141.337C17.9095 141.346 17.8215 141.392 17.7599 141.465C17.6983 141.539 17.6681 141.634 17.6759 141.729C17.6882 141.824 17.7366 141.91 17.8109 141.97C17.8852 142.03 17.9798 142.059 18.0749 142.051C20.4969 141.813 24.1789 143.689 25.4179 145.285C25.4516 145.327 25.4943 145.36 25.5427 145.383C25.5912 145.406 25.6443 145.418 25.6979 145.418Z" fill="var(--fill-0, #F0F0F0)"/>
<path id="Vector_10" d="M62.4759 164.192C62.6789 167.692 63.2249 169.995 64.4639 172.039C65.7029 174.083 68.0339 174.727 70.3999 174.139C72.7659 173.551 75.7899 171.941 76.4689 168.931C77.1479 165.921 77.5399 163.863 77.0079 160.629L62.4759 164.192Z" fill="var(--fill-0, #263238)"/>
<path id="Vector_11" d="M72.4229 138.936C73.3959 139.013 73.6829 143.696 74.2429 148.386C74.8449 153.412 76.3429 155.491 76.8819 159.586C77.4979 164.297 76.7209 166.404 75.0689 169.246C73.4169 172.088 67.5789 174.888 64.7019 170.807C62.3569 167.489 62.2589 163.807 62.4689 159.096C62.592 155.127 62.4891 151.154 62.1609 147.196C61.9649 143.696 61.1879 140.119 62.0349 139.727C62.0979 140.245 62.1609 140.903 62.2309 141.407C62.2652 142.044 62.3709 142.676 62.5459 143.29C62.6439 143.549 62.8609 143.822 62.9519 143.402C62.994 143.109 62.994 142.812 62.9519 142.52C62.8049 141.225 63.4629 141.12 63.8129 141.015C65.308 140.723 66.8175 140.511 68.3349 140.378C69.0769 140.322 71.6459 140.217 71.9819 140.637C72.2055 141.069 72.3186 141.55 72.3109 142.037C72.3949 142.737 72.5559 143.262 72.5769 143.038C72.6259 142.534 72.5279 141.211 72.5139 140.896C72.4999 140.581 72.4509 140.196 72.4439 139.867C72.4369 139.538 72.4369 139.237 72.4229 138.936Z" fill="var(--fill-0, #37474F)"/>
<path id="Vector_12" d="M77.1549 162.337C77.3323 164.855 76.6942 167.364 75.3349 169.491C73.6829 172.34 67.3689 175.14 64.4919 171.066C63.0919 169.036 62.6789 166.635 62.4829 164.192C64.2049 161.049 74.4319 159.663 77.1549 162.337Z" fill="var(--fill-0, #FAFAFA)"/>
<path id="Vector_13" d="M64.6039 159.068C64.6433 159.075 64.6836 159.075 64.7229 159.068C64.7649 159.068 69.2729 157.185 73.6619 158.2C73.748 158.205 73.8332 158.18 73.9024 158.128C73.9715 158.077 74.02 158.002 74.0394 157.918C74.0587 157.834 74.0476 157.746 74.0079 157.669C73.9683 157.593 73.9027 157.533 73.8229 157.5C69.1819 156.429 64.5829 158.34 64.4149 158.417C64.3221 158.442 64.243 158.503 64.1951 158.586C64.1472 158.67 64.1344 158.769 64.1594 158.861C64.1845 158.954 64.2454 159.033 64.3288 159.081C64.4121 159.129 64.5111 159.142 64.6039 159.117V159.068Z" fill="var(--fill-0, #F0F0F0)"/>
<path id="Vector_14" d="M73.4239 154.658C73.4923 154.651 73.5573 154.625 73.6116 154.583C73.666 154.541 73.7077 154.484 73.7319 154.42C73.761 154.328 73.7531 154.228 73.71 154.142C73.6669 154.056 73.5919 153.99 73.5009 153.958C69.1329 152.481 64.2889 154.7 64.1069 154.798C64.0643 154.819 64.0263 154.848 63.9953 154.884C63.9642 154.92 63.9408 154.961 63.9264 155.006C63.912 155.052 63.9069 155.099 63.9115 155.146C63.916 155.194 63.9301 155.239 63.9529 155.281C63.999 155.365 64.0757 155.428 64.167 155.457C64.2583 155.485 64.3572 155.477 64.4429 155.435C64.4779 155.435 69.2029 153.258 73.2699 154.644C73.3198 154.659 73.3722 154.664 73.4239 154.658Z" fill="var(--fill-0, #F0F0F0)"/>
<path id="Vector_15" d="M73.2909 151.354C73.3583 151.346 73.4222 151.32 73.4753 151.278C73.5285 151.236 73.5689 151.18 73.5919 151.116C73.6085 151.071 73.6161 151.024 73.6142 150.977C73.6122 150.929 73.6008 150.882 73.5806 150.839C73.5604 150.796 73.5318 150.758 73.4965 150.726C73.4612 150.694 73.4198 150.67 73.3749 150.654C68.5729 148.932 63.9669 151.354 63.7989 151.459C63.7163 151.509 63.657 151.59 63.634 151.684C63.611 151.778 63.6263 151.877 63.6764 151.96C63.7266 152.042 63.8075 152.101 63.9013 152.124C63.9952 152.147 64.0943 152.132 64.1769 152.082C64.1769 152.082 68.6569 149.73 73.1299 151.333C73.1817 151.35 73.2364 151.357 73.2909 151.354Z" fill="var(--fill-0, #F0F0F0)"/>
<path id="Vector_16" d="M73.0529 148.092C73.1383 148.09 73.2202 148.058 73.2837 148.001C73.3472 147.944 73.3882 147.866 73.3992 147.781C73.4102 147.696 73.3906 147.611 73.3437 147.539C73.2969 147.468 73.226 147.416 73.1439 147.392C68.6429 145.705 63.6869 148.19 63.4979 148.302C63.45 148.322 63.407 148.352 63.3717 148.39C63.3363 148.428 63.3095 148.473 63.293 148.522C63.2765 148.571 63.2708 148.624 63.2761 148.675C63.2814 148.727 63.2977 148.777 63.3239 148.822C63.35 148.866 63.3855 148.905 63.4278 148.935C63.4702 148.965 63.5185 148.986 63.5694 148.995C63.6204 149.005 63.6728 149.004 63.7233 148.992C63.7737 148.98 63.821 148.957 63.8619 148.925C63.9039 148.925 68.7059 146.496 72.8849 148.064C72.9378 148.087 72.9955 148.097 73.0529 148.092Z" fill="var(--fill-0, #EBEBEB)"/>
<path id="Vector_17" d="M62.4199 0.420004C66.8019 8.407 69.1609 14.938 69.6089 38.696C70.0569 62.454 69.2799 69.216 69.3709 72.079C69.4619 74.942 71.1279 80.066 72.5909 94.171C74.0539 108.276 72.3249 125.097 72.3249 125.097C72.3249 125.097 71.3169 127.365 65.9199 127.848C60.9429 128.296 58.4789 126.448 58.4789 126.448C58.4789 126.448 51.6539 98.973 49.7639 90.475C47.8739 81.977 42.3929 54.033 42.3929 54.033L39.1239 76.678C39.1239 76.678 40.6429 84.462 39.1239 96.831C37.6049 109.2 34.9239 121.877 34.9239 121.877C32.4702 122.735 29.886 123.159 27.2869 123.13C24.6834 123.076 22.1274 122.422 19.8179 121.219C19.8179 121.219 16.3179 84.56 16.3179 70.539C16.3179 56.518 17.3609 20.762 20.5179 0L62.4199 0.420004Z" fill="var(--fill-0, #37474F)"/>
<path id="Vector_18" d="M23.3599 20.923C25.4599 26.712 33.1599 30.772 36.5549 31.577L40.5239 53.711L39.1239 76.678L42.3789 54.012L37.9409 27.041C37.9409 27.041 28.5749 26.376 23.3599 20.923ZM55.4409 18.123C55.9939 20.405 56.4979 22.694 57.0299 24.983C57.5619 27.272 58.0799 29.561 58.6469 31.871C58.6767 29.4964 58.5199 27.1231 58.1779 24.773C57.8769 22.421 57.4289 20.09 56.8969 17.773C56.3471 15.4645 55.6693 13.1883 54.8669 10.955C54.084 8.70608 53.0633 6.54717 51.8219 4.515C52.5219 6.783 53.1589 9.037 53.7539 11.298C54.3489 13.559 54.9159 15.813 55.4409 18.095V18.123ZM59.4239 13.741C60.1869 15.141 60.9149 16.541 61.6429 17.899L63.8059 22.148C63.6435 20.5377 63.2765 18.9546 62.7139 17.437C62.1728 15.9175 61.5127 14.4429 60.7399 13.027C59.9629 11.6181 59.0905 10.264 58.1289 8.974C57.1759 7.67642 56.1025 6.47174 54.9229 5.37601C55.6229 6.83901 56.3929 8.22501 57.1559 9.57601C57.9189 10.927 58.7239 12.334 59.4239 13.713V13.741ZM55.9239 77.784C54.5729 70.518 53.6069 63.175 52.6549 55.825C51.7029 48.475 50.8139 41.125 49.7919 33.754C50.2399 41.167 50.7719 48.566 51.4999 55.958C52.2279 63.35 53.1169 70.728 54.4539 78.057C55.7909 85.386 57.3169 92.617 58.8429 99.883C60.3689 107.149 61.9509 114.387 63.6449 121.618C62.5249 114.282 61.3069 106.962 59.9909 99.659C58.6749 92.33 57.3239 85.015 55.9239 77.756V77.784ZM22.1489 53.074L23.3599 33.726C22.3659 40.1193 21.5773 46.5383 20.9939 52.983C20.4129 59.43 19.8599 65.856 19.8389 72.394C20.0559 78.897 20.5389 85.323 21.0849 91.77C21.6309 98.217 22.2539 104.65 23.0169 111.069C22.8349 104.61 22.5783 98.1517 22.2469 91.693L21.7569 82.019C21.5959 78.799 21.3999 75.565 21.3369 72.366C21.2739 69.167 21.4699 65.954 21.6169 62.734C21.7639 59.514 21.9739 56.294 22.1489 53.074Z" fill="var(--fill-0, #263238)"/>
</g>
</svg>
