<svg preserveAspectRatio="none" width="100%" height="100%" overflow="visible" style="display: block;" viewBox="0 0 19.9146 17.1703" fill="none" xmlns="http://www.w3.org/2000/svg">
<g id="freepik--Check--inject-77">
<path id="Vector" d="M7.72931 17.1703C7.40616 17.1708 7.08638 17.1046 6.79005 16.9757C6.49372 16.8468 6.22723 16.658 6.0073 16.4213L0.638308 10.6953C0.209453 10.2367 -0.0196775 9.62659 0.00132656 8.9991C0.0223306 8.3716 0.291751 7.77815 0.75031 7.34929C1.20887 6.92044 1.819 6.69131 2.4465 6.71231C3.074 6.73332 3.66745 7.00273 4.09631 7.46129L7.59631 11.1783L15.8353 0.734292C16.2414 0.307914 16.7918 0.0482654 17.3791 0.0060831C17.9664 -0.0360992 18.5483 0.142216 19.0112 0.506185C19.474 0.870154 19.7845 1.39362 19.882 1.9743C19.9795 2.55498 19.8569 3.15114 19.5383 3.64629L9.59129 16.2463C9.3798 16.5129 9.11344 16.7309 8.81029 16.8855C8.50713 17.0401 8.17429 17.1277 7.83431 17.1423L7.72931 17.1703Z" fill="var(--fill-0, #FF6B57)"/>
</g>
</svg>
