<svg preserveAspectRatio="none" width="100%" height="100%" overflow="visible" style="display: block;" viewBox="0 0 91.35 159.118" fill="none" xmlns="http://www.w3.org/2000/svg">
<g id="freepik--dark-bag--inject-77">
<path id="Vector" d="M42.308 0.855334C40.082 -0.425666 37.345 -0.264674 34.608 1.31733C28.308 4.96433 23.149 15.5063 23.149 24.8163V43.4643C23.149 43.7298 23.2545 43.9844 23.4422 44.1721C23.6299 44.3599 23.8845 44.4653 24.15 44.4653C24.4155 44.4653 24.6701 44.3599 24.8578 44.1721C25.0455 43.9844 25.151 43.7298 25.151 43.4643V24.8163C25.151 16.1433 29.841 6.37133 35.609 3.04633C37.709 1.81433 39.711 1.64634 41.321 2.58434C43.701 3.98434 45.066 7.44933 45.066 12.1603V30.7173C45.0544 30.8553 45.0716 30.9943 45.1165 31.1253C45.1614 31.2563 45.233 31.3766 45.3267 31.4786C45.4205 31.5805 45.5344 31.6619 45.6612 31.7176C45.788 31.7732 45.925 31.802 46.0635 31.802C46.202 31.802 46.339 31.7732 46.4658 31.7176C46.5926 31.6619 46.7065 31.5805 46.8003 31.4786C46.894 31.3766 46.9656 31.2563 47.0105 31.1253C47.0554 30.9943 47.0726 30.8553 47.061 30.7173V12.1603C47.054 6.72133 45.325 2.61233 42.308 0.855334Z" fill="var(--fill-0, #263238)"/>
<path id="Vector_2" d="M91.35 123.418L85.197 17.9003L67.599 7.77133L61.831 106.373L91.35 123.418Z" fill="var(--fill-0, #FF6B57)"/>
<path id="Vector_3" opacity="0.2" d="M91.35 123.418L85.197 17.9003L67.599 7.77133L61.831 106.373L91.35 123.418Z" fill="var(--fill-0, black)"/>
<path id="Vector_4" d="M5.775 43.4643L1.14441e-06 142.073L61.831 106.373L67.599 7.77133L5.775 43.4643Z" fill="var(--fill-0, #FF6B57)"/>
<path id="Vector_5" opacity="0.3" d="M5.775 43.4643L1.14441e-06 142.073L61.831 106.373L67.599 7.77133L5.775 43.4643Z" fill="var(--fill-0, black)"/>
<path id="Vector_6" d="M5.775 43.4643L23.373 53.5933L29.519 159.111L1.14441e-06 142.073L5.775 43.4643Z" fill="var(--fill-0, #FF6B57)"/>
<path id="Vector_7" opacity="0.15" d="M5.775 43.4643L23.373 53.5933L29.519 159.111L1.14441e-06 142.073L5.775 43.4643Z" fill="var(--fill-0, black)"/>
<path id="Vector_8" opacity="0.15" d="M29.519 159.111L16.835 141.303L15.246 79.1083L13.664 140.225L1.14441e-06 142.073L29.519 159.111Z" fill="var(--fill-0, black)"/>
<path id="Vector_9" d="M85.197 17.9003L23.373 53.6003L29.519 159.118L91.35 123.418L85.197 17.9003ZM41.797 56.0643C40.572 56.7643 39.585 56.1763 39.585 54.7693C39.6255 54.0028 39.8471 53.2568 40.2316 52.5925C40.6161 51.9281 41.1526 51.3643 41.797 50.9473C43.015 50.2473 44.002 50.8213 44.002 52.2423C43.9624 53.0099 43.7404 53.7569 43.3545 54.4216C42.9686 55.0862 42.4299 55.6494 41.783 56.0643H41.797ZM63.714 43.3173C62.496 44.0173 61.509 43.4293 61.509 42.0223C61.551 41.256 61.7724 40.5103 62.1554 39.8452C62.5384 39.1801 63.0723 38.6143 63.714 38.1933C64.932 37.4933 65.926 38.0743 65.919 39.4953C65.8798 40.2614 65.6595 41.0072 65.2762 41.6716C64.8929 42.3359 64.3575 42.9 63.714 43.3173Z" fill="var(--fill-0, #FF6B57)"/>
<path id="Vector_10" d="M59.948 10.8933C57.715 9.60533 54.978 9.76633 52.248 11.3483C45.948 14.9953 40.789 25.5373 40.789 34.8473V53.5023C40.81 53.7525 40.9242 53.9856 41.1089 54.1555C41.2937 54.3254 41.5355 54.4197 41.7865 54.4197C42.0375 54.4197 42.2794 54.3254 42.4641 54.1555C42.6489 53.9856 42.763 53.7525 42.784 53.5023V34.8473C42.784 26.1743 47.474 16.4093 53.242 13.0773C55.342 11.8523 57.344 11.6773 58.954 12.6223C61.334 14.0223 62.706 17.4873 62.706 22.1983V40.7553C62.727 41.0054 62.8412 41.2386 63.0259 41.4085C63.2107 41.5784 63.4525 41.6727 63.7035 41.6727C63.9545 41.6727 64.1964 41.5784 64.3811 41.4085C64.5659 41.2386 64.68 41.0054 64.701 40.7553V22.2123C64.694 16.7523 62.965 12.6363 59.948 10.8933Z" fill="var(--fill-0, #37474F)"/>
</g>
</svg>
