<svg preserveAspectRatio="none" width="100%" height="100%" overflow="visible" style="display: block;" viewBox="0 0 109.954 94.591" fill="none" xmlns="http://www.w3.org/2000/svg">
<g id="freepik--label--inject-77">
<path id="Vector" d="M0.998655 94.591H0.900656C0.636676 94.5627 0.394511 94.4314 0.22675 94.2257C0.0589886 94.0199 -0.0208211 93.7563 0.00465655 93.492C1.17366 81.515 9.48266 74.368 14.3337 71.169C21.6277 66.353 30.5107 64.169 35.9287 65.912C36.1821 65.9928 36.393 66.1709 36.5151 66.4072C36.6372 66.6435 36.6604 66.9186 36.5797 67.172C36.4989 67.4254 36.3208 67.6364 36.0845 67.7585C35.8482 67.8805 35.5731 67.9038 35.3197 67.823C30.5177 66.297 22.1597 68.411 15.4327 72.842C10.8827 75.838 3.09166 82.537 1.99966 93.688C1.97373 93.9355 1.85714 94.1647 1.67233 94.3315C1.48752 94.4982 1.24755 94.5906 0.998655 94.591Z" fill="var(--fill-0, #263238)"/>
<g id="freepik--label--inject-77_2">
<g id="freepik--label--inject-77_3">
<path id="Vector_2" d="M108.113 7.62939e-07L43.8527 37.1L27.4937 70.168L43.8527 84.336L45.7007 85.4L109.954 48.3V1.099L108.113 7.62939e-07ZM41.6127 64.099C41.6845 62.7346 42.0776 61.4066 42.7601 60.223C43.4425 59.0394 44.3949 58.0337 45.5397 57.288C46.0492 56.9765 46.6299 56.8006 47.2267 56.777C47.5001 57.3039 47.6349 57.8916 47.6187 58.485C47.5457 59.8491 47.1521 61.1767 46.4698 62.3602C45.7874 63.5436 44.8356 64.5494 43.6917 65.296C43.1742 65.6089 42.5875 65.7892 41.9837 65.821C41.7187 65.2868 41.5911 64.6949 41.6127 64.099Z" fill="var(--fill-0, #37474F)"/>
<path id="Vector_3" d="M45.7007 38.199L29.3347 71.239L45.7007 85.407L109.954 48.307V1.099L45.7007 38.199ZM45.5397 66.353C43.3627 67.613 41.6127 66.598 41.6127 64.092C41.6845 62.7277 42.0776 61.3996 42.7601 60.216C43.4425 59.0324 44.3949 58.0267 45.5397 57.281C47.7027 56.035 49.4667 57.05 49.4667 59.549C49.3883 60.907 48.9922 62.2277 48.3101 63.4046C47.628 64.5816 46.679 65.5819 45.5397 66.325V66.353Z" fill="var(--fill-0, #455A64)"/>
<path id="Vector_4" d="M49.4667 59.521C49.3926 60.8839 48.9985 62.2101 48.3162 63.3923C47.6339 64.5744 46.6827 65.5791 45.5397 66.325C43.9577 67.235 42.6137 66.955 41.9837 65.786C42.5875 65.7542 43.1742 65.5739 43.6917 65.261C44.8364 64.5153 45.7888 63.5096 46.4712 62.326C47.1537 61.1424 47.5468 59.8143 47.6187 58.45C47.6338 57.859 47.4989 57.2738 47.2267 56.749C47.4984 56.7378 47.7696 56.781 48.0244 56.8759C48.2792 56.9709 48.5125 57.1157 48.7107 57.302C49.2466 57.9123 49.5185 58.7104 49.4667 59.521Z" fill="var(--fill-0, #263238)"/>
<path id="Vector_5" d="M45.7007 38.171L29.3347 71.239L27.4937 70.175L43.8527 37.107L45.7007 38.171Z" fill="var(--fill-0, #263238)"/>
<g id="Group" opacity="0.3">
<path id="Vector_6" d="M29.3347 71.239L45.7007 85.407L43.8527 84.343L27.4937 70.175L29.3347 71.239Z" fill="var(--fill-0, black)"/>
</g>
</g>
<path id="Vector_7" d="M36.7757 77.868C35.8179 77.8632 34.864 77.7457 33.9337 77.518C33.6737 77.4539 33.4499 77.2893 33.3114 77.0602C33.1729 76.8311 33.1311 76.5564 33.1952 76.2965C33.2592 76.0366 33.4239 75.8128 33.653 75.6743C33.882 75.5358 34.1567 75.4939 34.4167 75.558C36.3394 76.1146 38.3995 75.9459 40.206 75.0839C42.0125 74.2219 43.4397 72.7267 44.2167 70.882C45.2597 68.446 45.3087 64.855 42.0257 62.762C41.801 62.619 41.6424 62.3927 41.5846 62.1328C41.5268 61.8729 41.5747 61.6006 41.7177 61.376C41.8606 61.1514 42.0869 60.9927 42.3469 60.9349C42.6068 60.8772 42.879 60.925 43.1037 61.068C47.1707 63.658 47.5277 68.257 46.0717 71.673C45.3087 73.5093 44.0182 75.078 42.3635 76.1807C40.7088 77.2835 38.7641 77.8706 36.7757 77.868Z" fill="var(--fill-0, #37474F)"/>
</g>
<path id="Vector_8" d="M68.7587 57.736C67.9902 59.3724 66.8548 60.8097 65.4407 61.936V65.219L63.1377 66.549V63.399C62.2803 63.824 61.3573 64.1009 60.4077 64.218C59.6971 64.3247 58.971 64.2352 58.3077 63.959L59.5607 58.919C60.2238 59.1958 60.9495 59.2877 61.6607 59.185C62.4904 59.0943 63.2905 58.8244 64.0057 58.394C65.4687 57.554 66.1967 56.567 66.1967 55.447C66.1967 54.852 65.9867 54.537 65.5667 54.488C64.8902 54.4747 64.2155 54.562 63.5647 54.747C62.7349 54.9709 61.8825 55.1001 61.0237 55.132C60.6881 55.1353 60.3563 55.0612 60.0541 54.9155C59.7518 54.7699 59.4871 54.5565 59.2807 54.292C58.7907 53.725 58.5457 52.724 58.5457 51.282C58.5601 49.5296 58.9667 47.8027 59.7357 46.228C60.5305 44.5722 61.7116 43.1318 63.1796 42.028V38.773L65.4827 37.436V40.635C66.1504 40.3311 66.8572 40.1214 67.5827 40.012C68.1832 39.9153 68.7978 39.9535 69.3817 40.124L68.2057 45.15C67.578 44.9886 66.9242 44.955 66.2833 45.0512C65.6424 45.1474 65.0273 45.3715 64.4747 45.71C63.8137 46.06 63.2471 46.5642 62.8227 47.18C62.4962 47.6675 62.3164 48.2384 62.3046 48.825C62.3046 49.378 62.5077 49.672 62.9207 49.714C63.5919 49.7214 64.2601 49.6246 64.9017 49.427C65.7338 49.2022 66.5884 49.0707 67.4497 49.035C67.7832 49.0351 68.1126 49.1093 68.414 49.2521C68.7154 49.395 68.9814 49.6029 69.1927 49.861C69.6897 50.414 69.9347 51.415 69.9347 52.85C69.9079 54.5455 69.5063 56.214 68.7587 57.736Z" fill="var(--fill-0, #FAFAFA)"/>
<path id="Vector_9" d="M83.1086 49.448C82.3448 51.0853 81.2114 52.523 79.7977 53.648V56.931L77.4876 58.261V55.097C76.6336 55.524 75.7126 55.8011 74.7647 55.916C74.0428 56.0304 73.3032 55.9407 72.6296 55.657L73.8757 50.617C74.5392 50.8922 75.2638 50.9864 75.9757 50.89C76.8045 50.7951 77.6037 50.5255 78.3206 50.099C79.7813 49.2543 80.5117 48.2697 80.5117 47.145C80.5117 46.55 80.3087 46.235 79.8887 46.186C79.2099 46.173 78.5329 46.2602 77.8796 46.445C77.0524 46.6693 76.2022 46.7984 75.3456 46.83C75.0092 46.8328 74.6766 46.7585 74.3733 46.6129C74.0699 46.4673 73.8039 46.2543 73.5956 45.99C73.1126 45.423 72.8956 44.422 72.8956 42.98C72.9093 41.2298 73.3159 39.505 74.0857 37.933C74.8766 36.2768 76.0557 34.836 77.5227 33.733V30.499L79.8327 29.162V32.361C80.4999 32.0557 81.2068 31.8459 81.9327 31.738C82.5337 31.6428 83.1484 31.6835 83.7317 31.857L82.5626 36.876C81.9346 36.7182 81.2815 36.6864 80.6411 36.7825C80.0007 36.8786 79.3857 37.1007 78.8317 37.436C78.1695 37.7841 77.6023 38.2887 77.1796 38.906C76.8531 39.3935 76.6734 39.9644 76.6617 40.551C76.6617 41.104 76.8647 41.398 77.2777 41.44C77.9465 41.4469 78.6124 41.3501 79.2517 41.153C80.0834 40.9271 80.9383 40.7979 81.7997 40.768C82.1339 40.7658 82.4645 40.8381 82.7672 40.9798C83.0699 41.1215 83.3372 41.3289 83.5497 41.587C84.0397 42.147 84.2916 43.141 84.2916 44.583C84.2596 46.2719 83.8557 47.933 83.1086 49.448Z" fill="var(--fill-0, #FAFAFA)"/>
<path id="Vector_10" d="M97.4657 41.167C96.6981 42.804 95.5625 44.2414 94.1477 45.367V48.657L91.8447 49.98V46.823C90.9861 47.2448 90.0636 47.5215 89.1147 47.642C88.3921 47.7498 87.6537 47.6578 86.9796 47.376L88.2327 42.336C88.8962 42.6112 89.6208 42.7054 90.3327 42.609C91.1612 42.5128 91.9602 42.2433 92.6777 41.818C94.1407 40.971 94.8687 39.991 94.8687 38.864C94.8687 38.269 94.6586 37.954 94.2456 37.912C93.567 37.8913 92.8892 37.9763 92.2367 38.164C91.4069 38.3879 90.5545 38.5171 89.6956 38.549C89.3601 38.5523 89.0283 38.4782 88.7261 38.3326C88.4238 38.1869 88.1591 37.9735 87.9527 37.709C87.4627 37.142 87.2177 36.141 87.2177 34.699C87.2306 32.9479 87.6398 31.2224 88.4147 29.652C89.2033 27.9943 90.3827 26.553 91.8517 25.452V22.176L94.1546 20.846V24.038C94.8224 23.7341 95.5292 23.5244 96.2546 23.415C96.8557 23.3201 97.4704 23.3607 98.0536 23.534L96.8777 28.553C96.2496 28.3952 95.5965 28.3634 94.9561 28.4595C94.3157 28.5556 93.7007 28.7777 93.1467 29.113C92.4878 29.4632 91.9235 29.9675 91.5017 30.583C91.1712 31.069 90.9889 31.6404 90.9767 32.228C90.9767 32.781 91.1867 33.075 91.5927 33.117C92.2633 33.1241 92.9312 33.0297 93.5737 32.837C94.4043 32.6053 95.2598 32.4737 96.1217 32.445C96.4559 32.4428 96.7864 32.5151 97.0892 32.6568C97.3919 32.7985 97.6592 33.0059 97.8717 33.264C98.3617 33.824 98.6067 34.818 98.6067 36.26C98.5925 37.9598 98.2029 39.6354 97.4657 41.167Z" fill="var(--fill-0, #FAFAFA)"/>
</g>
</svg>
