<svg preserveAspectRatio="none" width="100%" height="100%" overflow="visible" style="display: block;" viewBox="0 0 104.664 182.792" fill="none" xmlns="http://www.w3.org/2000/svg">
<g id="freepik--light-bag--inject-77">
<path id="Vector" d="M48.475 0.980582C45.92 -0.489418 42.784 -0.300418 39.641 1.50558C32.403 5.70558 26.516 17.7666 26.516 28.4346V50.2886C26.5385 50.5767 26.6689 50.8456 26.8811 51.0418C27.0932 51.238 27.3715 51.347 27.6605 51.347C27.9495 51.347 28.2278 51.238 28.44 51.0418C28.6521 50.8456 28.7825 50.5767 28.805 50.2886V28.4346C28.805 18.4946 34.181 7.30158 40.782 3.48658C43.225 2.08658 45.486 1.89758 47.334 2.96158C50.057 4.53658 51.625 8.56158 51.625 13.9376V35.7146C51.6476 36.0027 51.7779 36.2716 51.9901 36.4678C52.2022 36.664 52.4805 36.773 52.7695 36.773C53.0585 36.773 53.3368 36.664 53.549 36.4678C53.7611 36.2716 53.8915 36.0027 53.914 35.7146V13.9376C53.893 7.71458 51.933 2.97558 48.475 0.980582Z" fill="var(--fill-0, #263238)"/>
<path id="Vector_2" d="M104.664 141.891L97.615 20.9936L77.455 9.38758L70.84 122.368L104.664 141.891Z" fill="var(--fill-0, #FF6B57)"/>
<path id="Vector_3" opacity="0.4" d="M104.664 141.891L97.615 20.9936L77.455 9.38758L70.84 122.368L104.664 141.891Z" fill="var(--fill-0, white)"/>
<path id="Vector_4" d="M6.608 50.2886L1.14441e-06 163.269L70.84 122.368L77.455 9.38758L6.608 50.2886Z" fill="var(--fill-0, #FF6B57)"/>
<path id="Vector_5" opacity="0.3" d="M6.608 50.2886L1.14441e-06 163.269L70.84 122.368L77.455 9.38758L6.608 50.2886Z" fill="var(--fill-0, white)"/>
<path id="Vector_6" opacity="0.05" d="M6.608 50.2886L1.14441e-06 163.269L70.84 122.368L77.455 9.38758L6.608 50.2886Z" fill="var(--fill-0, black)"/>
<path id="Vector_7" d="M6.608 50.2886L26.775 61.8946L33.817 182.792L1.14441e-06 163.269L6.608 50.2886Z" fill="var(--fill-0, #FF6B57)"/>
<path id="Vector_8" opacity="0.55" d="M6.608 50.2886L26.775 61.8946L33.817 182.792L1.14441e-06 163.269L6.608 50.2886Z" fill="var(--fill-0, white)"/>
<path id="Vector_9" opacity="0.5" d="M33.817 182.792L19.285 162.387L17.465 91.1266L15.645 161.148L1.14441e-06 163.269L33.817 182.792Z" fill="var(--fill-0, #FF6B57)"/>
<path id="Vector_10" d="M97.615 21.0146L26.775 61.8946L33.817 182.792L104.664 141.891L97.615 21.0146ZM47.866 64.7436C46.466 65.5346 45.339 64.8696 45.339 63.2596C45.3869 62.3821 45.6405 61.5282 46.0795 60.767C46.5185 60.0057 47.1305 59.3585 47.866 58.8776C49.266 58.0726 50.4 58.7306 50.4 60.3616C50.3514 61.2368 50.0966 62.0882 49.6562 62.8461C49.2158 63.604 48.6024 64.247 47.866 64.7226V64.7436ZM72.975 50.1346C71.575 50.9256 70.448 50.2676 70.448 48.6506C70.4959 47.7731 70.7495 46.9193 71.1885 46.158C71.6275 45.3968 72.2395 44.7495 72.975 44.2686C74.375 43.4636 75.509 44.1286 75.509 45.7526C75.461 46.6279 75.2064 47.4795 74.7659 48.2375C74.3255 48.9955 73.7117 49.6384 72.975 50.1136V50.1346Z" fill="var(--fill-0, #FF6B57)"/>
<path id="Vector_11" opacity="0.7" d="M97.615 21.0146L26.775 61.8946L33.817 182.792L104.664 141.891L97.615 21.0146ZM47.866 64.7436C46.466 65.5346 45.339 64.8696 45.339 63.2596C45.3869 62.3821 45.6405 61.5282 46.0795 60.767C46.5185 60.0057 47.1305 59.3585 47.866 58.8776C49.266 58.0726 50.4 58.7306 50.4 60.3616C50.3514 61.2368 50.0966 62.0882 49.6562 62.8461C49.2158 63.604 48.6024 64.247 47.866 64.7226V64.7436ZM72.975 50.1346C71.575 50.9256 70.448 50.2676 70.448 48.6506C70.4959 47.7731 70.7495 46.9193 71.1885 46.158C71.6275 45.3968 72.2395 44.7495 72.975 44.2686C74.375 43.4636 75.509 44.1286 75.509 45.7526C75.461 46.6279 75.2064 47.4795 74.7659 48.2375C74.3255 48.9955 73.7117 49.6384 72.975 50.1136V50.1346Z" fill="var(--fill-0, white)"/>
<path id="Vector_12" d="M68.684 12.4816C66.129 11.0116 62.993 11.1936 59.85 13.0066C52.612 17.2066 46.725 29.2606 46.725 39.9286V61.7826C46.725 62.0852 46.8452 62.3754 47.0592 62.5894C47.2732 62.8034 47.5634 62.9236 47.866 62.9236C48.1686 62.9236 48.4588 62.8034 48.6728 62.5894C48.8868 62.3754 49.007 62.0852 49.007 61.7826V39.9146C49.007 29.9816 54.383 18.7886 60.991 14.9736C63.427 13.5736 65.695 13.3846 67.536 14.4486C70.266 16.0236 71.834 20.0486 71.834 25.4176V47.1596C71.834 47.4622 71.9542 47.7524 72.1682 47.9664C72.3822 48.1804 72.6724 48.3006 72.975 48.3006C73.2776 48.3006 73.5678 48.1804 73.7818 47.9664C73.9958 47.7524 74.116 47.4622 74.116 47.1596V25.4316C74.116 19.1946 72.135 14.4766 68.684 12.4816Z" fill="var(--fill-0, #37474F)"/>
</g>
</svg>
