<svg preserveAspectRatio="none" width="100%" height="100%" overflow="visible" style="display: block;" viewBox="0 0 315.771 206.766" fill="none" xmlns="http://www.w3.org/2000/svg">
<g id="freepik--money-icon--inject-77">
<path id="Vector" d="M15.6223 41.566L16.4553 44.947L11.8913 46.074L11.0583 42.686C7.81027 43.008 4.32427 42.182 2.52527 38.395L8.00627 35.406C8.33654 36.2141 8.9569 36.8696 9.7456 37.2439C10.5343 37.6182 11.4344 37.6842 12.2693 37.429C13.7743 37.086 14.6423 36.19 14.3063 34.846C13.7743 32.69 11.1423 33.208 8.00627 33.117C4.64627 32.998 1.35627 32.249 0.257271 27.811C-0.722729 23.821 1.15327 20.937 4.92627 19.411L4.09327 16.037L8.70627 14.882L9.53927 18.263C13.2633 17.955 16.0143 19.306 17.6243 22.148L12.4163 25.032C11.7653 23.632 10.3933 22.981 8.35627 23.485C6.44527 23.954 5.96227 24.976 6.21427 25.998C6.62727 27.671 8.13927 27.685 11.4293 27.692C14.9293 27.748 19.3323 27.86 20.5783 32.914C21.5793 36.988 19.4233 39.984 15.6223 41.566Z" fill="var(--fill-0, #F0F0F0)"/>
<path id="Vector_2" d="M235.303 31.052L231.845 30.492L232.181 28.392C230.522 27.811 228.681 26.544 228.541 23.828V23.492L232.965 23.058V23.443C232.956 23.8761 233.112 24.2965 233.4 24.6198C233.688 24.9432 234.088 25.1454 234.519 25.186C235.313 25.312 235.754 25.095 235.842 24.535C235.968 23.786 235.275 23.457 233.931 22.897C233.63 22.771 233.308 22.645 232.986 22.491C231.131 21.623 229.297 20.342 229.773 17.402C230.165 14.987 231.775 13.636 234.344 13.58L234.68 11.48L238.18 12.04L237.837 14.14C238.768 14.4197 239.596 14.9669 240.219 15.7137C240.841 16.4605 241.23 17.3738 241.337 18.34L241.372 18.69L237.116 19.138V18.76C237.116 17.759 236.248 17.409 235.548 17.297C234.729 17.171 234.274 17.367 234.19 17.892C234.078 18.592 234.519 18.837 236.444 19.663C238.264 20.461 241.001 21.672 240.455 25.032C240.07 27.433 238.355 28.833 235.674 28.917L235.303 31.052ZM232.65 29.918L234.75 30.247L235.072 28.252H235.373C236.808 28.252 239.293 27.846 239.762 24.948C240.231 22.05 237.97 21.126 236.157 20.328C234.344 19.53 233.28 19.096 233.49 17.808C233.546 17.458 233.861 16.345 235.653 16.639C236.146 16.6675 236.616 16.8538 236.994 17.1702C237.372 17.4866 237.638 17.9165 237.753 18.396L240.553 18.102C240.245 16.471 239.153 15.302 237.305 14.728L237.025 14.63L237.347 12.635L235.247 12.292L234.925 14.301H234.624C232.958 14.301 230.886 14.812 230.424 17.535C230.046 19.866 231.278 20.958 233.224 21.882L234.148 22.274C235.457 22.82 236.696 23.331 236.479 24.668C236.325 25.627 235.534 26.068 234.379 25.9C233.84 25.8388 233.337 25.5988 232.95 25.2182C232.563 24.8375 232.314 24.3383 232.244 23.8L229.234 24.094C229.479 26.341 231.201 27.342 232.643 27.79L232.937 27.881L232.65 29.918Z" fill="var(--fill-0, #F0F0F0)"/>
<path id="Vector_3" d="M311.176 184.009L310.294 182.077C308.586 182.511 306.332 182.497 304.729 180.299L304.533 180.033L307.97 177.233L308.187 177.548C308.42 177.919 308.787 178.187 309.211 178.296C309.636 178.405 310.086 178.348 310.469 178.136C310.768 178.019 311.024 177.814 311.204 177.548C311.266 177.442 311.298 177.321 311.298 177.198C311.298 177.075 311.266 176.954 311.204 176.848C310.889 176.148 310.126 176.267 308.705 176.547C308.383 176.61 308.047 176.68 307.69 176.736C305.667 177.037 303.427 176.988 302.195 174.286C301.194 172.095 301.803 170.03 303.868 168.567L302.986 166.635L306.206 165.186L307.095 167.125C308.026 166.843 309.018 166.842 309.949 167.121C310.881 167.399 311.709 167.946 312.331 168.693L312.562 168.959L309.265 171.696L309.048 171.388C308.804 171.08 308.453 170.874 308.065 170.811C307.676 170.747 307.278 170.831 306.948 171.045C306.192 171.388 305.919 171.808 306.143 172.291C306.444 172.956 307.067 172.872 308.999 172.508C310.931 172.144 313.899 171.654 315.299 174.748C316.307 176.96 315.642 179.095 313.479 180.635L314.361 182.574L311.176 184.009ZM310.679 181.209L311.526 183.057L313.437 182.182L312.59 180.341L312.842 180.173C314.046 179.382 315.88 177.66 314.662 174.993C313.444 172.326 311.043 172.809 309.097 173.152C307.151 173.495 306.017 173.726 305.478 172.536C305.331 172.214 304.981 171.136 306.626 170.359C307.052 170.105 307.549 169.995 308.043 170.047C308.536 170.099 308.999 170.309 309.363 170.646L311.547 168.833C310.392 167.643 308.852 167.307 306.976 167.825L306.689 167.909L305.849 166.068L303.91 166.95L304.757 168.798L304.498 168.959C303.098 169.862 301.698 171.465 302.832 173.964C303.812 176.113 305.443 176.337 307.585 176.015C307.928 175.959 308.285 175.896 308.565 175.833C309.965 175.56 311.281 175.301 311.841 176.533C311.95 176.736 312.007 176.964 312.007 177.194C312.007 177.425 311.95 177.653 311.841 177.856C311.59 178.252 311.22 178.558 310.784 178.731C310.308 178.979 309.762 179.061 309.234 178.964C308.705 178.868 308.224 178.599 307.865 178.199L305.506 180.145C306.955 181.874 308.943 181.748 310.406 181.321L310.679 181.209Z" fill="var(--fill-0, #F0F0F0)"/>
<path id="Vector_4" d="M309.006 74.032L308.082 72.086C306.381 72.52 304.127 72.506 302.524 70.308L302.328 70.042L305.758 67.242L305.975 67.557C306.209 67.928 306.575 68.1957 306.999 68.305C307.424 68.4144 307.874 68.3571 308.257 68.145C308.559 68.0297 308.818 67.8245 308.999 67.557C309.061 67.4506 309.093 67.3299 309.093 67.207C309.093 67.0841 309.061 66.9634 308.999 66.857C308.677 66.157 307.921 66.276 306.493 66.556C306.171 66.619 305.835 66.689 305.485 66.745C303.455 67.053 301.222 66.997 299.983 64.295C298.982 62.104 299.598 60.039 301.663 58.583L300.774 56.686L303.98 55.216L304.869 57.162C305.8 56.878 306.794 56.8746 307.726 57.1522C308.659 57.4299 309.489 57.9762 310.112 58.723L310.336 58.989L307.046 61.726L306.829 61.418C306.583 61.1126 306.232 60.9088 305.845 60.8455C305.457 60.7822 305.06 60.8639 304.729 61.075C303.973 61.418 303.707 61.838 303.924 62.321C304.225 62.986 304.855 62.902 306.787 62.538C308.719 62.174 311.687 61.684 313.087 64.778C314.102 66.99 313.437 69.125 311.267 70.672L312.156 72.604L309.006 74.032ZM308.509 71.232L309.349 73.08L311.26 72.205L310.42 70.364L310.672 70.196C311.869 69.405 313.703 67.683 312.485 65.016C311.267 62.349 308.873 62.832 306.927 63.175C304.981 63.518 303.847 63.749 303.301 62.559C303.154 62.237 302.804 61.159 304.456 60.382C304.881 60.1283 305.377 60.0191 305.869 60.0709C306.361 60.1226 306.823 60.3325 307.186 60.669L309.37 58.856C308.215 57.666 306.682 57.33 304.799 57.855L304.512 57.932L303.672 56.091L301.74 56.973L302.58 58.821L302.328 58.982C300.928 59.885 299.528 61.488 300.655 63.987C301.642 66.136 303.266 66.36 305.415 66.038L306.395 65.856C307.795 65.583 309.104 65.324 309.664 66.556C309.773 66.7594 309.83 66.9867 309.83 67.2175C309.83 67.4483 309.773 67.6756 309.664 67.879C309.411 68.2734 309.042 68.5793 308.607 68.754C308.131 69.0028 307.585 69.0855 307.056 68.9891C306.528 68.8928 306.046 68.6228 305.688 68.222L303.343 70.14C304.792 71.869 306.787 71.75 308.243 71.323L308.509 71.232Z" fill="var(--fill-0, #F0F0F0)"/>
<path id="Vector_5" d="M210.306 144.886L210.684 142.786C209.032 142.17 207.184 140.868 207.142 138.145V137.816L211.566 137.473V137.886C211.548 138.324 211.697 138.752 211.983 139.083C212.269 139.415 212.671 139.625 213.106 139.671C213.418 139.746 213.744 139.727 214.044 139.615C214.153 139.562 214.246 139.482 214.315 139.383C214.384 139.284 214.425 139.168 214.436 139.048C214.576 138.299 213.89 137.956 212.56 137.375C212.259 137.242 211.944 137.102 211.622 136.948C209.788 136.038 207.982 134.715 208.514 131.789C208.941 129.423 210.614 128.079 213.155 128.065L213.54 125.965L217.04 126.595L216.655 128.695C217.581 128.993 218.397 129.559 219.002 130.32C219.608 131.081 219.975 132.003 220.057 132.972L220.092 133.322L215.829 133.679V133.308C215.829 132.3 214.982 131.908 214.289 131.81C213.47 131.663 213.008 131.852 212.889 132.377C212.756 133.077 213.316 133.378 215.108 134.19C216.9 135.002 219.623 136.29 219.014 139.643C218.573 142.037 216.809 143.402 214.114 143.43L213.736 145.53L210.306 144.886ZM211.482 142.331L211.118 144.326L213.183 144.704L213.547 142.709H213.848C215.283 142.751 217.775 142.38 218.3 139.503C218.825 136.626 216.585 135.639 214.8 134.806C213.015 133.973 211.951 133.511 212.182 132.23C212.245 131.88 212.595 130.781 214.373 131.103C214.871 131.134 215.346 131.326 215.724 131.651C216.103 131.976 216.366 132.415 216.473 132.902L219.273 132.664C219.007 131.033 217.936 129.864 216.102 129.227L215.815 129.129L216.179 127.134L214.079 126.756L213.715 128.751H213.414C211.755 128.695 209.676 129.192 209.179 131.901C208.759 134.225 209.963 135.345 211.909 136.304C212.217 136.451 212.525 136.591 212.819 136.717C214.121 137.291 215.346 137.83 215.101 139.16C215.07 139.389 214.983 139.606 214.847 139.793C214.712 139.98 214.532 140.13 214.324 140.231C213.893 140.415 213.414 140.454 212.959 140.343C212.426 140.276 211.93 140.033 211.55 139.653C211.169 139.272 210.927 138.776 210.859 138.243L207.842 138.474C208.038 140.721 209.746 141.757 211.181 142.24L211.482 142.331Z" fill="var(--fill-0, #F0F0F0)"/>
<path id="Vector_6" d="M55.2213 21.154L51.5743 20.342L52.0713 18.095C50.3143 17.395 48.3683 15.89 48.4243 12.936V12.586L53.1703 12.404V12.782C53.1294 13.2626 53.2731 13.7407 53.5722 14.1191C53.8713 14.4975 54.3032 14.7478 54.7803 14.819C55.6413 15.008 56.1803 14.819 56.2923 14.175C56.4743 13.342 55.7393 12.943 54.3043 12.25C53.9893 12.096 53.6533 11.928 53.3103 11.746C51.3713 10.696 49.4743 9.191 50.1743 6.062C50.7483 3.486 52.5823 2.135 55.3543 2.247L55.8583 0L59.5333 0.819L59.0293 3.066C60.0168 3.4283 60.8756 4.07379 61.4981 4.9217C62.1207 5.7696 62.4794 6.78228 62.5293 7.833V8.183L57.9513 8.386V8.015C57.9513 6.902 57.0833 6.468 56.3203 6.3C55.4243 6.104 54.9203 6.3 54.7733 6.881C54.5983 7.665 55.2003 8.008 57.1183 8.981C59.0363 9.954 61.8993 11.445 61.1083 15.022C60.5343 17.584 58.5673 18.984 55.6903 18.9L55.2213 21.154ZM52.4213 19.81L54.7033 20.321L55.1793 18.172H55.4803C57.0483 18.27 59.7783 17.983 60.4713 14.854C61.1643 11.725 58.7703 10.577 56.8523 9.59C54.9343 8.603 53.8353 8.085 54.1363 6.727C54.2203 6.356 54.6333 5.201 56.5233 5.621C57.7903 5.901 58.5533 6.636 58.6793 7.658L61.8153 7.518C61.5983 5.705 60.4853 4.389 58.4973 3.605L58.2173 3.493L58.6863 1.386L56.3763 0.875L55.8933 3.024H55.5923C53.7863 2.891 51.4973 3.346 50.8463 6.279C50.2793 8.799 51.5463 10.066 53.6463 11.179C53.9753 11.354 54.3043 11.515 54.6123 11.669C56.0123 12.369 57.2863 12.971 56.9713 14.378C56.7473 15.386 55.8723 15.827 54.6333 15.547C54.0581 15.4572 53.5309 15.1737 53.1388 14.7435C52.7468 14.3132 52.5134 13.762 52.4773 13.181L49.1383 13.307C49.2503 15.785 51.0703 16.996 52.6383 17.584L52.9253 17.689L52.4213 19.81Z" fill="var(--fill-0, #F0F0F0)"/>
<path id="Vector_7" d="M138.731 40.411L137.863 43.386L133.817 42.217L134.706 39.235C132.039 38.031 129.701 35.826 130.009 32.074L135.609 32.214C135.491 32.9931 135.674 33.7879 136.119 34.4377C136.565 35.0874 137.241 35.5436 138.01 35.714C139.347 36.106 140.404 35.826 140.747 34.636C141.307 32.718 139.025 31.941 136.631 30.436C134.083 28.833 131.857 26.775 132.998 22.841C134.027 19.299 136.778 17.941 140.397 18.403L141.244 15.386L145.325 16.569L144.457 19.586C147.488 20.986 149.021 23.303 148.993 26.229L143.659 26.131C143.778 24.731 143.008 23.632 141.202 23.107C139.508 22.617 138.668 23.198 138.402 24.101C137.975 25.585 139.144 26.271 141.692 27.755C144.359 29.351 147.754 31.437 146.452 35.917C145.409 39.529 142.406 40.887 138.731 40.411Z" fill="var(--fill-0, #F0F0F0)"/>
<path id="Vector_8" d="M306.906 129.563L306.129 132.083L302.734 131.033L303.511 128.513C301.278 127.456 299.311 125.559 299.647 122.402L304.372 122.598C304.267 123.25 304.412 123.918 304.778 124.468C305.144 125.019 305.704 125.411 306.346 125.566C307.473 125.916 308.369 125.692 308.677 124.691C309.174 123.088 307.277 122.395 305.261 121.107C303.161 119.707 301.285 117.957 302.307 114.646C303.224 111.671 305.576 110.537 308.607 111.013L309.391 108.493L312.814 109.55L312.037 112.07C314.578 113.323 315.838 115.269 315.768 117.747L311.267 117.579C311.393 116.424 310.756 115.479 309.244 114.996C307.732 114.513 307.102 114.996 306.871 115.794C306.486 117.033 307.459 117.635 309.587 118.93C311.715 120.225 314.648 122.115 313.486 125.881C312.506 128.912 309.972 130.018 306.906 129.563Z" fill="var(--fill-0, #F0F0F0)"/>
<path id="Vector_9" d="M198.476 202.986L199.463 205.436L196.159 206.766L195.172 204.316C192.764 204.904 190.062 204.659 188.305 201.999L192.106 199.199C192.437 199.772 192.971 200.2 193.603 200.398C194.234 200.595 194.917 200.547 195.515 200.263C196.607 199.822 197.167 199.08 196.775 198.107C196.152 196.546 194.22 197.218 191.875 197.477C189.341 197.743 186.786 197.54 185.491 194.32C184.329 191.429 185.435 189.063 188.102 187.509L187.115 185.059L190.454 183.715L191.406 186.186C194.164 185.556 196.376 186.277 197.888 188.244L194.283 190.96C193.653 189.98 192.547 189.637 191.077 190.26C189.607 190.883 189.432 191.66 189.733 192.36C190.216 193.571 191.357 193.424 193.828 193.06C196.439 192.731 199.785 192.36 201.255 196.007C202.459 198.933 201.164 201.411 198.476 202.986Z" fill="var(--fill-0, #E0E0E0)"/>
</g>
</svg>
