<svg preserveAspectRatio="none" width="100%" height="100%" overflow="visible" style="display: block;" viewBox="0 0 130.991 233.388" fill="none" xmlns="http://www.w3.org/2000/svg">
<g id="freepik--Rack--inject-77">
<path id="Vector" d="M122.885 162.392L118.965 160.173V7.16664C118.972 5.93897 118.66 4.73051 118.059 3.66022C117.457 2.58993 116.588 1.6947 115.535 1.06264C115.489 1.02827 115.439 0.997825 115.388 0.97164C114.303 0.335407 113.069 0 111.811 0C110.553 0 109.319 0.335407 108.234 0.97164L109.949 3.93964C110.513 3.6065 111.156 3.43076 111.811 3.43076C112.466 3.43076 113.109 3.6065 113.673 3.93964C114.241 4.26445 114.713 4.73438 115.04 5.30137C115.368 5.86835 115.538 6.51205 115.535 7.16664V158.192L112.392 156.33C112.131 156.18 111.836 156.101 111.536 156.102C111.235 156.102 110.94 156.182 110.68 156.332C110.42 156.482 110.204 156.698 110.053 156.958C109.903 157.218 109.824 157.513 109.823 157.814V162.882C109.836 163.032 109.889 163.176 109.976 163.299C110.064 163.422 110.182 163.52 110.32 163.582C110.695 163.772 111.11 163.871 111.531 163.871C111.952 163.871 112.367 163.772 112.742 163.582C112.881 163.52 113 163.423 113.089 163.3C113.177 163.177 113.232 163.033 113.246 162.882V160.782L120.309 164.87V168.944C120.322 169.095 120.376 169.24 120.464 169.363C120.553 169.487 120.674 169.583 120.813 169.644C121.187 169.837 121.603 169.938 122.024 169.938C122.445 169.938 122.861 169.837 123.235 169.644C123.374 169.583 123.495 169.487 123.584 169.363C123.672 169.24 123.726 169.095 123.739 168.944V163.876C123.738 163.575 123.658 163.281 123.509 163.021C123.359 162.76 123.144 162.544 122.885 162.392Z" fill="var(--fill-0, #EBEBEB)"/>
<g id="freepik--Dress--inject-77">
<path id="Vector_2" d="M85.414 132.698C88.004 133.461 89.663 138.298 91.126 143.023C92.351 146.985 96.607 151.556 105.308 156.582C114.009 161.608 115.899 161.09 117.53 158.269C119.161 155.448 119.98 150.856 122.976 153.313C122.976 153.313 122.115 146.278 105.567 136.723C89.019 127.168 85.414 132.698 85.414 132.698Z" fill="var(--fill-0, #E0E0E0)"/>
<path id="Vector_3" d="M95.382 17.7436L87.682 17.6806C87.682 17.6806 87.822 28.9716 88.382 37.5186C88.942 46.0656 90.349 58.8616 91.182 60.6186C91.7981 61.7584 92.7223 62.702 93.849 63.3416L115.164 75.6476C115.164 75.6476 116.893 76.9426 117.789 76.0816C118.832 75.0666 119.441 67.3596 119.392 55.9006C119.343 44.4416 119.392 35.7686 119.392 35.7686L112.567 27.6626L95.382 17.7436Z" fill="var(--fill-0, #F5F5F5)"/>
<path id="Vector_4" d="M95.725 64.4266L93.793 63.3136C92.6687 62.6764 91.7467 61.735 91.133 60.5976C90.3 58.8616 88.879 46.0656 88.333 37.4976C87.787 28.9296 87.633 17.6666 87.633 17.6666H93.1C92.96 30.0356 94.276 56.3486 95.725 64.4266Z" fill="var(--fill-0, #FAFAFA)"/>
<path id="Vector_5" d="M117.726 76.0396C116.837 76.8936 115.108 75.5916 115.108 75.5916L112.182 73.9396C113.631 67.5486 114.94 42.8666 114.786 30.3506L119.357 35.7756C119.357 35.7756 119.308 44.4416 119.357 55.9076C119.406 67.3736 118.776 75.0386 117.726 76.0396Z" fill="var(--fill-0, #FAFAFA)"/>
<path id="Vector_6" d="M93.548 65.6236C91.588 67.4856 88.893 73.0856 88.466 81.0236C88.039 88.9616 85.169 132.824 85.169 132.824C85.169 132.824 88.284 132.873 90.223 137.346C92.162 141.819 96.11 147.727 105.378 153.075C114.646 158.423 116.263 155.735 117.446 154.006C118.629 152.277 120.183 151.402 122.731 153.432C122.731 153.432 120.792 109.129 120.141 98.1316C119.49 87.1346 116.704 80.0926 114.863 77.8736L93.548 65.6236Z" fill="var(--fill-0, #F5F5F5)"/>
<path id="Vector_7" d="M89.782 52.6736C89.558 54.9486 89.362 57.1466 89.25 58.1616C88.984 60.7166 87.668 59.2746 87.668 59.2746C84.714 51.9526 79.765 50.2236 79.765 50.2236C79.765 50.2236 81.396 38.1276 82.383 30.1546C83.37 22.1816 83.559 17.5546 87.668 17.6946C87.668 17.6946 87.801 28.9716 88.368 37.5256C88.627 42.1316 89.173 47.9836 89.782 52.6736Z" fill="var(--fill-0, #F5F5F5)"/>
<path id="Vector_8" d="M87.64 59.2746C84.7 51.9596 79.744 50.2236 79.744 50.2236C79.744 50.2236 78.463 49.7476 78.19 50.8466C77.7341 52.8898 77.4415 54.966 77.315 57.0556C77.406 57.9096 78.603 60.4996 81.515 63.8386C84.427 67.1776 86.261 68.0736 86.681 66.6386C87.101 65.2036 88.081 63.5026 88.2 62.5296C88.2377 61.4178 88.0471 60.31 87.64 59.2746Z" fill="var(--fill-0, #E0E0E0)"/>
<path id="Vector_9" opacity="0.2" d="M78.68 57.5246C79.065 56.7826 85.841 64.4686 85.519 65.5676C85.197 66.6666 77.882 58.7636 78.68 57.5246Z" fill="var(--fill-0, black)"/>
<path id="Vector_10" d="M128.401 78.1746C128.401 78.1746 123.417 74.3386 120.603 78.4266C120.603 78.4266 119.294 78.4266 118.972 75.5146C118.895 74.8776 118.783 73.8556 118.664 72.6446C119.229 67.0774 119.462 61.4816 119.364 55.8866C119.315 44.4206 119.364 35.7546 119.364 35.7546C123.508 40.2696 124.152 45.7156 125.335 54.9136C126.518 64.1116 128.401 78.1746 128.401 78.1746Z" fill="var(--fill-0, #F5F5F5)"/>
<path id="Vector_11" d="M120.582 78.4266C123.382 74.3386 128.38 78.1676 128.38 78.1676C129.152 78.7754 129.709 79.6144 129.969 80.5616C130.446 82.9625 130.787 85.3883 130.991 87.8276C130.914 88.5906 129.759 89.8576 126.889 89.9276C124.019 89.9976 122.171 88.8496 121.723 86.9456C121.275 85.0416 120.211 82.1576 120.099 81.0656C119.983 80.1572 120.152 79.2353 120.582 78.4266Z" fill="var(--fill-0, #E0E0E0)"/>
<path id="Vector_12" opacity="0.2" d="M129.633 86.7636C129.22 85.5806 122.535 85.7136 122.885 87.1906C123.235 88.6676 130.438 88.8916 129.633 86.7636Z" fill="var(--fill-0, black)"/>
<path id="Vector_13" d="M114.863 77.9366L110.523 75.4236C114.366 83.0816 115.059 93.9106 115.213 108.149C115.311 117.193 115.283 140.272 115.213 156.029C116.15 155.635 116.926 154.934 117.411 154.041C118.601 152.312 120.148 151.437 122.696 153.467C122.696 153.467 120.757 109.164 120.106 98.1666C119.455 87.1696 116.704 80.1556 114.863 77.9366Z" fill="var(--fill-0, #FAFAFA)"/>
<path id="Vector_14" d="M98.294 68.3396L93.548 65.6026C91.588 67.4716 88.893 73.0716 88.466 81.0026C88.039 88.9336 85.169 132.803 85.169 132.803C85.169 132.803 88.284 132.859 90.223 137.332C90.566 138.123 90.923 138.921 91.28 139.733C91.749 119.734 92.68 101.387 92.981 92.9866C93.548 76.8796 94.402 71.5386 98.294 68.3396Z" fill="var(--fill-0, #FAFAFA)"/>
<path id="Vector_15" d="M91.469 34.9356L99.743 39.3456L99.981 47.6826C99.981 48.2916 99.75 48.7046 99.337 48.7676L96.537 49.1596C96.296 49.1593 96.0586 49.1005 95.8453 48.9884C95.6319 48.8762 95.4489 48.714 95.312 48.5156L92.421 45.0926C91.9967 44.5778 91.7511 43.9391 91.721 43.2726L91.469 34.9356Z" fill="var(--fill-0, #E0E0E0)"/>
<path id="Vector_16" d="M91.469 34.9356L99.743 39.3456L99.981 47.6826C99.981 48.2916 99.75 48.7046 99.337 48.7676L96.537 49.1596C96.296 49.1593 96.0586 49.1005 95.8453 48.9884C95.6319 48.8762 95.4489 48.714 95.312 48.5156L92.421 45.0926C91.9967 44.5778 91.7511 43.9391 91.721 43.2726L91.469 34.9356Z" fill="var(--fill-0, #E0E0E0)"/>
<path id="Vector_17" d="M91.469 34.9356C91.469 34.9356 92.12 39.1356 95.718 41.0326C99.316 42.9296 99.743 39.3456 99.743 39.3456L91.469 34.9356Z" fill="var(--fill-0, #E0E0E0)"/>
<path id="Vector_18" d="M91.469 34.9356C91.469 34.9356 92.12 39.1356 95.718 41.0326C99.316 42.9296 99.743 39.3456 99.743 39.3456L91.469 34.9356Z" fill="var(--fill-0, #F0F0F0)"/>
<path id="Vector_19" d="M116.424 49.3486L108.143 44.1966L107.905 52.2396C107.916 52.9057 108.144 53.55 108.556 54.0736L111.356 57.6856C111.488 57.8964 111.667 58.0744 111.878 58.2065C112.089 58.3387 112.327 58.4214 112.574 58.4486L115.465 58.3646C115.899 58.3646 116.165 57.9796 116.2 57.3916L116.424 49.3486Z" fill="var(--fill-0, #E0E0E0)"/>
<path id="Vector_20" d="M116.424 49.3486L108.143 44.1966L107.905 52.2396C107.916 52.9057 108.144 53.55 108.556 54.0736L111.356 57.6856C111.488 57.8964 111.667 58.0744 111.878 58.2065C112.089 58.3387 112.327 58.4214 112.574 58.4486L115.465 58.3646C115.899 58.3646 116.165 57.9796 116.2 57.3916L116.424 49.3486Z" fill="var(--fill-0, #E0E0E0)"/>
<path id="Vector_21" d="M116.424 49.3486C116.424 49.3486 115.766 52.7716 112.175 50.5386C111.096 49.8236 110.179 48.8894 109.484 47.7968C108.789 46.7041 108.332 45.4775 108.143 44.1966L116.424 49.3486Z" fill="var(--fill-0, #E0E0E0)"/>
<path id="Vector_22" d="M116.424 49.3486C116.424 49.3486 115.766 52.7716 112.175 50.5386C111.096 49.8236 110.179 48.8894 109.484 47.7968C108.789 46.7041 108.332 45.4775 108.143 44.1966L116.424 49.3486Z" fill="var(--fill-0, #F0F0F0)"/>
<path id="Vector_23" d="M102.683 68.4516L105.21 69.9076V23.4276L102.683 21.9646V68.4516Z" fill="var(--fill-0, #E0E0E0)"/>
<path id="Vector_24" opacity="0.1" d="M102.683 151.437C103.474 151.969 104.321 152.501 105.21 153.026V72.3856L102.683 70.9226V151.437Z" fill="var(--fill-0, black)"/>
<path id="Vector_25" d="M103.943 26.8646C103.943 26.8646 103.243 29.8396 101.143 28.8176C99.043 27.7956 96.719 22.0066 96.019 20.0326C95.214 17.7646 95.214 17.4496 95.669 16.5326C96.124 15.6156 97.769 14.4816 97.769 14.4816C97.503 14.7196 97.72 15.9376 98.469 18.1706C99.498 21.3976 102.466 26.0106 103.943 26.8646Z" fill="var(--fill-0, #E0E0E0)"/>
<path id="Vector_26" d="M103.943 26.8646C103.943 26.8646 104.643 30.6236 106.743 32.0446C108.843 33.4656 111.167 30.3366 111.867 29.1816C112.665 27.8376 112.665 27.5226 112.21 26.0666C111.613 24.5226 110.911 23.0211 110.11 21.5726C110.376 22.1116 110.152 23.0776 109.41 24.4846C108.388 26.5356 105.427 27.7396 103.943 26.8646Z" fill="var(--fill-0, #E0E0E0)"/>
<path id="Vector_27" d="M103.95 26.8646C105.434 27.7186 108.402 26.5426 109.431 24.4916C110.46 22.4406 110.467 21.3136 109.431 21.1176C107.489 20.9668 105.611 20.3575 103.95 19.3396C101.905 18.1098 100.055 16.5809 98.462 14.8036C97.4307 13.8096 97.4307 14.9343 98.462 18.1776C99.498 21.4396 102.466 26.0036 103.95 26.8646Z" fill="var(--fill-0, #E0E0E0)"/>
<path id="Vector_28" d="M107.471 20.8026L105.294 17.8696C105.067 17.5583 104.793 17.2844 104.482 17.0576H104.44C104.44 14.5166 104.545 13.8866 105.35 13.6066C106.155 13.3266 108.311 12.2066 107.24 7.47464C106.54 4.54164 104.111 2.09864 102.074 2.30864C101.374 2.37864 99.869 2.88964 99.869 5.96964C99.869 6.1553 99.9428 6.33334 100.074 6.46462C100.205 6.59589 100.383 6.66964 100.569 6.66964C100.755 6.66964 100.933 6.59589 101.064 6.46462C101.195 6.33334 101.269 6.1553 101.269 5.96964C101.269 5.31164 101.374 3.79264 102.235 3.69464C103.264 3.58964 105.301 5.24164 105.882 7.78264C106.435 10.1696 106.064 11.8916 104.902 12.2976C103.201 12.8786 103.068 14.3486 103.068 16.5536C102.979 16.5468 102.891 16.5468 102.802 16.5536L100.702 16.9736L98.273 17.4356C98.336 17.6596 98.406 17.9116 98.497 18.1356C98.5423 18.3043 98.6032 18.4683 98.679 18.6256L101.997 17.9886L103.068 17.7786C103.334 17.7296 103.831 17.9676 104.307 18.6256L105.329 20.0256L109.081 25.0726C109.233 24.8903 109.362 24.6906 109.466 24.4776C109.571 24.2536 109.676 24.0296 109.753 23.8336L107.471 20.8026Z" fill="var(--fill-0, #E0E0E0)"/>
<path id="Vector_29" d="M93.793 63.3206V65.4696C100.135 70.7702 107.346 74.9336 115.108 77.7756V75.6266L93.793 63.3206Z" fill="var(--fill-0, #E0E0E0)"/>
</g>
<g id="freepik--dress--inject-77">
<path id="Vector_30" d="M93.282 44.2876V49.5096C93.282 57.0486 88.179 60.2126 81.879 56.5796C75.579 52.9466 70.483 43.8886 70.483 36.3426L70.581 31.5756C76.391 44.3716 88.291 50.8396 93.282 44.2876Z" fill="var(--fill-0, #E0E0E0)"/>
<path id="Vector_31" d="M62.363 39.7446L100.548 61.7876C100.878 61.9887 101.254 62.0998 101.64 62.1096C101.862 62.1117 102.082 62.0652 102.284 61.9733C102.485 61.8814 102.665 61.7463 102.809 61.5776C103.74 60.5346 103.509 58.3576 102.319 56.7336L83.223 31.0156C82.9949 30.7018 82.7239 30.4214 82.418 30.1826H82.376C82.376 27.6486 82.467 27.0186 83.279 26.7386C84.091 26.4586 86.247 25.3386 85.162 20.5996C84.462 17.6666 82.047 15.2306 80.003 15.4336C79.338 15.5106 77.791 16.0146 77.791 19.1016C77.791 19.2873 77.8648 19.4653 77.996 19.5966C78.1273 19.7279 78.3054 19.8016 78.491 19.8016C78.6767 19.8016 78.8547 19.7279 78.986 19.5966C79.1173 19.4653 79.191 19.2873 79.191 19.1016C79.191 18.4436 79.282 16.9176 80.157 16.8196C81.179 16.7146 83.216 18.3666 83.804 20.9146C84.35 23.2946 83.972 25.0236 82.817 25.4226C81.123 26.0036 80.99 27.4806 80.983 29.6856C80.8945 29.6787 80.8055 29.6787 80.717 29.6856L61.628 33.3396C61.2527 33.4296 60.9154 33.6357 60.664 33.9286C60.4127 34.2214 60.2601 34.5861 60.228 34.9706C60.1186 35.8851 60.2594 36.8121 60.6354 37.6529C61.0114 38.4936 61.6085 39.2166 62.363 39.7446ZM61.474 35.2086C61.537 34.8516 61.67 34.6556 61.866 34.6206L80.962 30.9456C81.214 30.8896 81.718 31.1346 82.201 31.7786L101.29 57.4966C102.249 58.7846 102.263 60.2966 101.857 60.7306C101.801 60.7866 101.654 60.9546 101.157 60.6816L62.972 38.6316C62.4507 38.2365 62.0394 37.7145 61.7772 37.1153C61.5149 36.516 61.4106 35.8596 61.474 35.2086Z" fill="var(--fill-0, #E0E0E0)"/>
<path id="Vector_32" d="M70.56 31.5756C70.56 31.5756 68.39 31.9186 66.899 32.2756C66.899 32.2756 68.159 39.7026 68.159 43.6226C68.159 47.5426 67.676 52.2046 69.489 58.7706C71.302 65.3366 72.079 74.0446 70.259 79.0706C67.1306 87.5428 65.517 96.4993 65.492 105.531C65.366 118.243 68.992 161.16 68.992 161.16C68.992 165.213 94.192 179.78 94.192 175.72C94.192 175.72 97.958 137.801 98.077 123.64C98.196 109.479 95.333 99.2026 94.248 93.4976C93.184 87.8976 93.205 78.3146 95.011 73.9956C96.817 69.6766 96.376 66.1626 96.012 60.4296C95.8269 56.7874 96.2239 53.1389 97.188 49.6216C96.0718 47.7027 94.7427 45.9158 93.226 44.2946C93.226 44.2946 92.463 60.3946 82.726 54.7946C72.989 49.1946 70.56 31.5756 70.56 31.5756Z" fill="var(--fill-0, #F0F0F0)"/>
<path id="Vector_33" opacity="0.05" d="M69.146 101.772C69.146 101.772 67.403 117.431 76.678 131.669C76.678 131.669 71.582 121.365 69.146 101.772Z" fill="var(--fill-0, black)"/>
<path id="Vector_34" opacity="0.05" d="M97.727 133.335C97.188 141.56 93.086 155.161 89.425 157.177C89.425 157.177 93.576 156.953 96.915 145.235C97.23 141.098 97.517 137.024 97.727 133.335Z" fill="var(--fill-0, black)"/>
</g>
<g id="freepik--Shirt--inject-77">
<path id="Vector_35" d="M73.731 110.193C74.011 113.329 74.27 116.346 74.431 117.767C74.774 121.309 76.454 121.435 76.454 121.435C80.227 116.668 86.555 121.708 86.555 121.708C86.555 121.708 84.455 104.369 83.209 93.0636C81.963 81.7586 81.711 75.7876 76.454 69.9636C76.454 69.9636 76.286 83.7396 75.586 93.5326C75.18 98.7896 74.487 105.237 73.731 110.193Z" fill="var(--fill-0, #F5F5F5)"/>
<path id="Vector_36" d="M75.46 116.325C80.192 113.021 86.212 119.23 86.212 119.23C86.212 119.23 87.773 120.798 87.892 122.485C88.011 124.172 88.025 130.024 87.759 130.829C87.493 131.634 85.659 132.53 81.683 131.473C77.707 130.416 75.439 128.379 75.222 126.111C75.005 123.843 74.151 120.28 74.228 119.041C74.2356 118.528 74.3489 118.022 74.5608 117.554C74.7728 117.087 75.0789 116.668 75.46 116.325Z" fill="var(--fill-0, #F0F0F0)"/>
<path id="Vector_37" d="M86.1 129.107C85.792 127.644 76.58 125.061 76.748 126.811C76.916 128.561 86.765 131.76 86.1 129.107Z" fill="var(--fill-0, #E0E0E0)"/>
<path id="Vector_38" d="M55.545 52.4356L66.563 58.7916L76.44 69.9496C76.44 69.9496 76.265 83.7396 75.558 93.5396C74.851 103.34 73.038 147.923 71.981 148.84C70.924 149.757 68.572 148.336 68.572 148.336L55.545 140.811V52.4356Z" fill="var(--fill-0, #EBEBEB)"/>
<path id="Vector_39" d="M71.582 85.7556L60.998 79.1826L60.697 89.1576C60.7113 89.9923 61.0046 90.7981 61.53 91.4466L65.086 95.9826C65.2605 96.2473 65.4905 96.4708 65.7601 96.6376C66.0297 96.8044 66.3323 96.9106 66.647 96.9486H70.35C70.903 96.9486 71.26 96.4866 71.281 95.7586L71.582 85.7556Z" fill="var(--fill-0, #FAFAFA)"/>
<path id="Vector_40" d="M71.582 85.7556C71.582 85.7556 70.749 89.9556 66.15 87.1556C64.7813 86.2676 63.6151 85.101 62.7274 83.7321C61.8398 82.3632 61.2505 80.8225 60.998 79.2106L71.582 85.7556Z" fill="var(--fill-0, #E0E0E0)"/>
<path id="Vector_41" d="M55.545 52.4356L57.211 53.3946V141.777L55.545 140.811V52.4356Z" fill="var(--fill-0, #EBEBEB)"/>
<path id="Vector_42" d="M55.601 57.6296C55.601 57.6296 56.469 62.3056 59.171 64.1046C61.873 65.9036 64.827 62.1026 65.723 60.6816C66.752 59.0366 66.752 58.6446 66.164 56.8316C65.3931 54.9051 64.4903 53.034 63.462 51.2316C63.805 51.9316 63.518 53.1006 62.608 54.8226C61.278 57.3216 57.491 58.7216 55.601 57.6296Z" fill="var(--fill-0, #FAFAFA)"/>
<path id="Vector_43" d="M37.366 89.1996C37.079 91.9996 36.827 94.7226 36.666 95.9826C36.33 99.1326 34.643 97.3196 34.643 97.3196C30.87 88.1846 24.549 85.9236 24.549 85.9236C24.549 85.9236 26.649 70.9926 27.895 61.1436C29.141 51.2946 29.393 45.5966 34.643 45.8346C34.643 45.8346 34.818 59.8346 35.518 70.4046C35.917 76.1166 36.582 83.3756 37.366 89.1996Z" fill="var(--fill-0, #EBEBEB)"/>
<path id="Vector_44" d="M37.366 89.1996C37.079 91.9996 36.827 94.7226 36.666 95.9826C36.33 99.1326 34.643 97.3196 34.643 97.3196C30.87 88.1846 24.549 85.9236 24.549 85.9236C24.549 85.9236 26.649 70.9926 27.895 61.1436C29.141 51.2946 29.393 45.5966 34.643 45.8346C34.643 45.8346 34.818 59.8346 35.518 70.4046C35.917 76.1166 36.582 83.3756 37.366 89.1996Z" fill="var(--fill-0, #F5F5F5)"/>
<path id="Vector_45" d="M35.637 93.3296C30.905 84.5656 24.885 83.8166 24.885 83.8166C24.6861 83.7759 24.4808 83.7789 24.2832 83.8254C24.0855 83.8719 23.9004 83.9608 23.7406 84.086C23.5808 84.2112 23.4501 84.3697 23.3576 84.5504C23.2651 84.7311 23.2131 84.9298 23.205 85.1326C23.086 86.6796 23.072 92.5246 23.331 93.6306C23.59 94.7366 25.431 97.7816 29.407 101.331C33.383 104.88 35.658 105.447 35.875 103.431C36.092 101.415 36.946 98.8316 36.869 97.5086C36.7318 96.0492 36.3134 94.6301 35.637 93.3296Z" fill="var(--fill-0, #F0F0F0)"/>
<path id="Vector_46" d="M24.99 93.8196C25.305 92.7206 34.517 100.778 34.349 102.332C34.181 103.886 24.325 95.7026 24.99 93.8196Z" fill="var(--fill-0, #E0E0E0)"/>
<path id="Vector_47" d="M55.545 52.4356L44.534 46.0796L34.657 45.8206C34.657 45.8206 34.832 59.8206 35.532 70.3976C36.232 80.9746 38.052 127.7 39.109 129.863C39.9099 131.299 41.0921 132.486 42.525 133.293L55.545 140.811V52.4356Z" fill="var(--fill-0, #EBEBEB)"/>
<path id="Vector_48" d="M39.543 67.2756L50.127 72.9316L50.435 83.2496C50.435 84.0056 50.134 84.5166 49.602 84.5796L46.046 85.0066C45.7389 84.9988 45.4379 84.9194 45.167 84.7748C44.896 84.6302 44.6625 84.4244 44.485 84.1736L40.782 79.8686C40.2337 79.2337 39.9069 78.4377 39.851 77.6006L39.543 67.2756Z" fill="var(--fill-0, #FAFAFA)"/>
<path id="Vector_49" d="M39.543 67.2756C39.543 67.2756 40.383 72.4696 44.982 74.9266C49.581 77.3836 50.127 72.9316 50.127 72.9316L39.543 67.2756Z" fill="var(--fill-0, #E0E0E0)"/>
<path id="Vector_50" d="M55.545 52.4356L53.886 51.4766V139.852L55.545 140.811V52.4356Z" fill="var(--fill-0, #E0E0E0)"/>
<path id="Vector_51" d="M55.482 57.5736C55.482 57.5736 54.614 61.2416 51.912 59.9186C49.21 58.5956 46.256 51.3856 45.36 48.9286C44.331 46.1286 44.331 45.7086 44.912 44.5676C45.493 43.4266 47.621 42.0826 47.621 42.0826C47.278 42.3626 47.565 43.8816 48.475 46.6606C49.812 50.6996 53.606 56.4816 55.482 57.5736Z" fill="var(--fill-0, #FAFAFA)"/>
<path id="Vector_52" d="M48.482 42.4886C50.5247 44.7293 52.8827 46.6606 55.482 48.2216H55.524H55.573C57.6946 49.5343 60.0897 50.3415 62.573 50.5806C63.896 50.8466 63.896 52.2326 62.573 54.7806C61.25 57.3286 57.463 58.6866 55.573 57.5806L55.524 57.5456H55.482C53.585 56.4536 49.791 50.6856 48.482 46.6396C47.173 42.5936 47.173 41.2286 48.482 42.4886Z" fill="var(--fill-0, #E0E0E0)"/>
</g>
<path id="Vector_53" d="M48.167 45.6176C48.251 45.9466 48.37 46.3176 48.489 46.6606C48.489 46.7236 48.538 46.7796 48.552 46.8426L52.353 46.0936L54.243 45.7366C54.495 45.6946 55.006 45.9326 55.482 46.5696L57.484 49.2646L62.125 55.5226C62.3105 55.3087 62.4702 55.0738 62.601 54.8226C62.692 54.6756 62.762 54.5076 62.839 54.3606L59.682 50.0696L56.511 45.8136C56.2866 45.5007 56.015 45.2245 55.706 44.9946H55.664C55.664 42.4676 55.755 41.8446 56.574 41.5576C57.274 41.3196 59.528 40.1576 58.457 35.4326C57.757 32.5066 55.335 30.0706 53.298 30.2736C52.598 30.3506 51.086 30.8546 51.086 33.9346C51.086 34.1203 51.1598 34.2983 51.291 34.4296C51.4223 34.5609 51.6004 34.6346 51.786 34.6346C51.9717 34.6346 52.1497 34.5609 52.281 34.4296C52.4123 34.2983 52.486 34.1203 52.486 33.9346C52.486 33.2766 52.591 31.7506 53.459 31.6596C54.481 31.5546 56.518 33.2066 57.099 35.7476C57.645 38.1276 57.274 39.8496 56.119 40.2346C54.425 40.8296 54.285 42.3346 54.285 44.5046C54.1965 44.4978 54.1076 44.4978 54.019 44.5046L51.121 45.0716L48.167 45.6176Z" fill="var(--fill-0, #E0E0E0)"/>
<g id="freepik--dress--inject-77_2">
<path id="Vector_54" d="M37.744 117.501C43.036 130.367 48.244 155.672 50.078 170.148C51.912 184.624 53.382 204.84 53.382 204.84C51.9722 205.473 50.5196 206.006 49.035 206.436C46.991 206.912 45.892 203.748 45.892 203.748C45.1659 204.065 44.3511 204.115 43.5916 203.889C42.8321 203.664 42.1766 203.177 41.741 202.516C41.741 202.516 41.426 205.169 39.984 205.855C38.542 206.541 36.526 204.049 33.824 202.971C31.535 202.061 28.518 201.473 27.013 200.437C26.0568 199.655 25.446 198.529 25.312 197.301C25.312 197.301 24.612 197.91 22.603 196.895C21.9728 196.544 21.4195 196.07 20.9758 195.501C20.5321 194.932 20.2071 194.28 20.02 193.584C20.02 193.584 16.471 191.701 15.176 189.965C14.3951 188.734 14.089 187.261 14.315 185.821C13.5079 185.608 12.7859 185.152 12.2473 184.515C11.7087 183.877 11.3797 183.089 11.305 182.258C11.305 182.258 9.37301 181.474 7.65101 180.809C5.92901 180.144 4.55701 176.518 4.55701 176.518C4.55701 176.518 6.30702 158.451 8.13402 146.089C9.96101 133.727 15.176 114.449 20.468 107.694L37.779 117.536" fill="var(--fill-0, #F5F5F5)"/>
<path id="Vector_55" d="M41.706 202.481C42.1416 203.142 42.7971 203.629 43.5566 203.854C44.3161 204.08 45.1309 204.03 45.857 203.713C45.857 203.713 46.956 206.877 49 206.401C50.4956 205.984 51.9599 205.462 53.382 204.84C53.382 204.84 53.186 202.082 52.843 197.889C51.2465 198.458 49.5911 198.845 47.908 199.044C45.808 199.121 45.92 196.622 45.92 196.622C42.882 197.798 41.482 194.788 41.482 194.788C40.446 196.237 38.269 195.754 35.672 193.738C33.075 191.722 28.896 192.002 27.377 190.616C25.858 189.23 25.277 186.472 25.277 186.472C24.7754 186.614 24.2476 186.638 23.735 186.542C23.2225 186.446 22.7392 186.233 22.323 185.919C20.678 184.841 20.139 182.475 20.139 182.475C18.687 182.394 17.3149 181.783 16.282 180.76C15.355 179.812 14.7774 178.578 14.644 177.26C12.334 176.336 11.844 173.725 11.844 173.725C11.844 173.725 8.42801 172.822 5.36201 168.433C4.85801 173.165 4.53601 176.455 4.53601 176.455C4.53601 176.455 5.93601 180.088 7.63001 180.746C9.32401 181.404 11.284 182.195 11.284 182.195C11.3587 183.026 11.6877 183.814 12.2263 184.452C12.7649 185.089 13.4869 185.545 14.294 185.758C14.068 187.198 14.3741 188.671 15.155 189.902C16.45 191.638 19.999 193.521 19.999 193.521C20.1827 194.222 20.5062 194.88 20.95 195.454C21.3939 196.027 21.9489 196.506 22.582 196.86C24.626 197.875 25.291 197.266 25.291 197.266C25.425 198.494 26.0358 199.62 26.992 200.402C28.497 201.438 31.514 202.026 33.803 202.936C36.505 204.014 38.521 206.499 39.963 205.82C41.405 205.141 41.706 202.481 41.706 202.481Z" fill="var(--fill-0, #E0E0E0)"/>
<path id="Vector_56" opacity="0.1" d="M18.508 126.867C18.508 126.867 13.93 137.486 9.82802 181.649L11.27 182.223C11.382 177.911 14.182 141.266 18.508 126.867Z" fill="var(--fill-0, black)"/>
<path id="Vector_57" opacity="0.1" d="M12.901 185.121C13.3259 185.421 13.7995 185.646 14.301 185.786C14.231 182.083 15.225 165.822 17.185 150.184C17.164 150.184 15.365 155.84 12.901 185.121Z" fill="var(--fill-0, black)"/>
<path id="Vector_58" opacity="0.1" d="M23.604 131.34C19.369 156.239 18.242 189.979 18.508 192.681C19.341 193.206 19.985 193.549 19.985 193.549C20.09 186.241 19.887 167.74 23.604 131.34Z" fill="var(--fill-0, black)"/>
<path id="Vector_59" opacity="0.1" d="M25.277 169.042C25.277 161.853 25.858 151.262 25.858 151.262C25.858 151.262 24.458 163.197 24.066 178.065C23.835 187.109 24.066 193.668 24.276 197.427C24.6179 197.506 24.9774 197.449 25.277 197.266C25.004 192.478 25.284 176.238 25.277 169.042Z" fill="var(--fill-0, black)"/>
<path id="Vector_60" opacity="0.1" d="M32.452 136.303C33.593 142.603 34.699 157.086 34.678 164.905C34.657 172.724 34.622 195.537 35.105 198.806C35.105 198.806 35.497 182.762 35.602 174.88C35.9603 161.944 34.904 149.009 32.452 136.303Z" fill="var(--fill-0, black)"/>
<path id="Vector_61" opacity="0.1" d="M42.882 203.559C42.259 174.915 38.682 153.516 37.219 147.706C39.123 158.507 41.223 180.837 41.727 202.481C42.0329 202.916 42.4263 203.284 42.882 203.559Z" fill="var(--fill-0, black)"/>
<path id="Vector_62" opacity="0.1" d="M46.914 205.54C46.914 198.071 46.69 186.605 45.892 177.834C45.2477 171.445 44.2427 165.097 42.882 158.822C42.882 158.822 44.548 169.112 45.283 177.967C46.018 186.822 45.92 199.905 45.871 203.713C46.1163 204.375 46.4687 204.992 46.914 205.54Z" fill="var(--fill-0, black)"/>
<path id="Vector_63" opacity="0.1" d="M33.474 115.989C35.315 121.631 39.347 142.358 40.033 150.443C39.0614 138.956 37.1581 127.566 34.342 116.388L33.474 115.989Z" fill="var(--fill-0, black)"/>
<path id="Vector_64" opacity="0.1" d="M29.435 113.84C28.924 116.563 27.902 127.329 27.706 140.146C26.628 127.784 28.406 114.246 28.504 113.294" fill="var(--fill-0, black)"/>
<path id="Vector_65" opacity="0.1" d="M24.066 110.41C22.792 112.643 18.753 119.902 17.388 126.223C18.088 119.65 22.883 110.648 23.24 109.822L24.066 110.41Z" fill="var(--fill-0, black)"/>
<path id="Vector_66" d="M21.343 61.2696C26.789 67.7726 32.382 71.3846 38.143 71.4826V81.0936C38.143 88.2406 34.377 91.8666 29.743 89.1856C25.095 86.5046 21.343 78.5316 21.343 71.3776V61.2696Z" fill="var(--fill-0, #EBEBEB)"/>
<path id="Vector_67" d="M29.582 62.2566L40.397 76.8236V74.6746L30.597 61.4936C30.3743 61.1736 30.108 60.8862 29.806 60.6396C29.806 58.1056 29.897 57.4756 30.702 57.1956C31.507 56.9156 33.67 55.7956 32.592 51.0566C31.892 48.1236 29.477 45.6876 27.426 45.8906C26.768 45.9676 25.221 46.4716 25.221 49.5586C25.221 49.7443 25.2948 49.9223 25.426 50.0536C25.5573 50.1849 25.7354 50.2586 25.921 50.2586C26.1067 50.2586 26.2847 50.1849 26.416 50.0536C26.5473 49.9223 26.621 49.7443 26.621 49.5586C26.621 48.9006 26.719 47.3746 27.594 47.2766C28.616 47.1716 30.653 48.8236 31.241 51.3716C31.787 53.7516 31.409 55.4806 30.254 55.8796C28.56 56.4606 28.427 57.9376 28.42 60.1426C28.3315 60.1355 28.2425 60.1355 28.154 60.1426L15.659 62.5506V63.8526L28.392 61.4026C28.609 61.3396 29.113 61.6126 29.582 62.2566Z" fill="var(--fill-0, #E0E0E0)"/>
<path id="Vector_68" d="M40.404 86.4346L15.617 72.1266V73.6036L40.404 87.9186V86.4346Z" fill="var(--fill-0, #E0E0E0)"/>
<path id="Vector_69" d="M29.897 84.9646C31.024 81.4646 35.497 72.8406 38.164 71.4826C38.164 71.4826 42.623 76.8656 43.953 80.0086C45.283 83.1516 47.257 88.1426 48.748 98.5096L41.559 102.15C41.237 104.418 40.285 109.92 37.779 112.125L29.897 111.971V84.9646Z" fill="var(--fill-0, #F5F5F5)"/>
<path id="Vector_70" d="M51.058 109.29C49.728 110.746 43.358 113.301 41.356 112.79C40.786 112.64 40.2747 112.321 39.8898 111.875C39.5048 111.429 39.2643 110.876 39.2 110.291C40.677 107.694 41.3 103.942 41.573 102.157C42.371 101.765 45.073 98.1876 46.473 97.5996C47.0926 97.223 47.7992 97.0132 48.524 96.9906C48.8758 97.0646 49.1961 97.2455 49.441 97.5086C50.379 98.4046 50.526 100.309 50.841 102.556C51.156 104.803 52.388 107.841 51.058 109.29Z" fill="var(--fill-0, #EBEBEB)"/>
<path id="Vector_71" opacity="0.18" d="M41.335 75.6476C39.767 73.4216 38.164 71.4826 38.164 71.4826C35.511 72.8406 31.024 81.4786 29.897 84.9646V97.4316C32.228 86.5396 39.151 77.5726 41.335 75.6476Z" fill="var(--fill-0, black)"/>
<path id="Vector_72" d="M32.55 113.497C32.732 106.735 32.459 92.4966 29.176 82.6196C25.893 72.7426 21.343 61.2696 21.343 61.2696C21.343 61.2696 17.248 61.0106 14.791 62.3966C12.334 63.7826 10.78 69.3336 9.14201 75.9626C9.14201 75.9626 16.611 86.0216 17.612 88.7026C17.773 91.2518 18.1074 93.787 18.613 96.2906C19.1185 98.2622 19.726 100.206 20.433 102.115L32.55 113.497Z" fill="var(--fill-0, #F5F5F5)"/>
<path id="Vector_73" d="M18.865 97.2496C18.8232 97.5445 18.6683 97.8116 18.4332 97.9945C18.1981 98.1773 17.9011 98.2617 17.605 98.2296C16.506 98.1456 15.925 96.2977 13.853 93.9807C11.781 91.6637 7.55302 85.8957 6.90902 84.3137C6.26502 82.7317 6.90902 80.4146 7.22402 78.8396C7.53902 77.2646 6.86002 75.1226 7.99402 74.5836C8.23347 74.5041 8.48998 74.4907 8.73643 74.5449C8.98287 74.5991 9.21008 74.7189 9.39402 74.8916C10.423 75.5916 11.648 77.2156 12.817 79.4836C13.748 81.3106 15.092 83.7256 16.317 86.0916C16.8094 86.9241 17.2286 87.7977 17.57 88.7026C17.731 91.2522 18.0678 93.7875 18.578 96.2906L18.865 97.2496Z" fill="var(--fill-0, #EBEBEB)"/>
<path id="Vector_74" opacity="0.2" d="M16.709 96.7806C17.171 97.3126 17.766 97.4806 17.213 96.5566C16.66 95.6326 16.156 95.5486 14.294 92.5876C12.432 89.6266 9.59001 83.9006 8.36501 82.9836C7.14001 82.0666 6.75501 83.1516 7.98701 85.2936C9.43634 87.6301 11.0259 89.8765 12.747 92.0206C13.951 93.5396 16.282 96.1436 16.709 96.7806Z" fill="var(--fill-0, black)"/>
<path id="Vector_75" opacity="0.2" d="M41.314 111.537C40.859 111.6 40.264 111.131 40.775 110.774C41.286 110.417 41.811 110.844 43.575 109.731C45.339 108.618 47.936 105.685 49.175 106.021C49.4713 106.087 49.7417 106.238 49.9524 106.457C50.1632 106.675 50.305 106.951 50.3602 107.249C50.4154 107.548 50.3816 107.856 50.263 108.135C50.1443 108.415 49.9461 108.653 49.693 108.821C48.545 109.745 46.326 110.452 45.164 110.788C44.002 111.124 41.713 111.327 41.314 111.537Z" fill="var(--fill-0, black)"/>
<path id="Vector_76" opacity="0.15" d="M21.343 61.2696C20.2111 61.2202 19.0771 61.2741 17.955 61.4306C20.293 67.5206 24.255 78.3076 26.817 87.5756C28.707 94.4146 29.428 106.532 29.617 111.796L32.564 113.497C32.746 106.735 32.473 92.4966 29.19 82.6196C25.907 72.7426 21.343 61.2696 21.343 61.2696Z" fill="var(--fill-0, black)"/>
<path id="Vector_77" opacity="0.15" d="M17.605 88.7026C17.367 86.3436 17.423 80.8416 17.08 78.7276C16.737 76.6136 14.882 74.4016 15.582 76.7396C16.2526 79.2176 16.7208 81.7459 16.982 84.2996C17.041 85.7845 17.2497 87.2597 17.605 88.7026Z" fill="var(--fill-0, black)"/>
<path id="Vector_78" opacity="0.15" d="M41.559 102.15C41.804 100.05 41.748 94.4986 42.084 92.7836C42.42 91.0686 44.303 91.0126 43.624 92.5456C42.8912 94.4399 42.4065 96.421 42.182 98.4396C42.1561 99.7001 41.9463 100.95 41.559 102.15Z" fill="var(--fill-0, black)"/>
<path id="Vector_79" d="M20.433 102.115V107.659C23.3506 110.044 26.4703 112.171 29.757 114.015C35.749 117.473 37.744 117.515 37.744 117.515V112.139C31.9853 110.431 26.215 107.089 20.433 102.115Z" fill="var(--fill-0, #E0E0E0)"/>
<path id="Vector_80" d="M30.338 92.1396C30.338 92.7696 30.009 93.0916 29.638 92.8396C29.4046 92.6592 29.2152 92.4281 29.0842 92.1637C28.9532 91.8994 28.8841 91.6087 28.882 91.3136C28.882 90.6836 29.211 90.3686 29.624 90.6136C29.849 90.7989 30.0298 91.032 30.1533 91.296C30.2769 91.56 30.3399 91.8482 30.338 92.1396Z" fill="var(--fill-0, #E0E0E0)"/>
<path id="Vector_81" d="M31.234 99.2866C31.234 99.9166 30.905 100.239 30.492 99.9866C30.264 99.7956 30.0824 99.555 29.9612 99.2834C29.8399 99.0117 29.782 98.716 29.792 98.4186C29.792 97.7886 30.121 97.4736 30.492 97.7186C30.7302 97.9033 30.9215 98.1415 31.0504 98.414C31.1793 98.6864 31.2422 98.9854 31.234 99.2866Z" fill="var(--fill-0, #E0E0E0)"/>
<path id="Vector_82" d="M31.682 105.734C31.682 106.364 31.353 106.686 30.94 106.434C30.7056 106.246 30.5174 106.007 30.39 105.735C30.2625 105.463 30.1992 105.166 30.205 104.866C30.205 104.243 30.534 103.921 30.94 104.166C31.1774 104.351 31.3681 104.589 31.4969 104.862C31.6257 105.134 31.6891 105.433 31.682 105.734Z" fill="var(--fill-0, #E0E0E0)"/>
</g>
<path id="Vector_83" d="M108.753 1.23148L9.35181 58.3585L11.0668 61.3426L110.468 4.21558L108.753 1.23148Z" fill="var(--fill-0, #EBEBEB)"/>
<path id="Vector_84" d="M105.644 7.01964L106.869 6.31964C106.355 4.99412 105.471 3.84462 104.321 3.00864L102.921 3.82064C104.212 4.48967 105.19 5.63814 105.644 7.01964Z" fill="var(--fill-0, #E0E0E0)"/>
<path id="Vector_85" d="M83.482 19.8296L84.686 19.1296C84.1191 17.8068 83.1649 16.6867 81.949 15.9166L80.388 16.8196C81.256 16.9036 82.684 18.0376 83.482 19.8296Z" fill="var(--fill-0, #E0E0E0)"/>
<path id="Vector_86" d="M53.858 31.6666L55.328 30.8126C56.6499 31.6993 57.6512 32.9878 58.184 34.4876L56.938 35.1876C56.315 33.2416 54.852 31.9396 53.858 31.6666Z" fill="var(--fill-0, #E0E0E0)"/>
<path id="Vector_87" d="M29.435 46.4786L27.972 47.3396C28.896 47.5776 30.212 48.7396 30.898 50.4406L32.102 49.7406C31.5576 48.412 30.629 47.2762 29.435 46.4786Z" fill="var(--fill-0, #E0E0E0)"/>
<path id="Vector_88" d="M0.882015 219.764C1.14249 219.612 1.43833 219.533 1.73952 219.533C2.0407 219.533 2.33654 219.612 2.59702 219.764L5.74702 221.626V64.3216C5.74354 63.0702 6.0681 61.8397 6.68834 60.7527C7.30858 59.6657 8.20284 58.7603 9.28201 58.1266L10.997 61.0946C10.4303 61.4218 9.95935 61.8921 9.63136 62.4584C9.30337 63.0247 9.1298 63.6672 9.12802 64.3216V223.607L13.062 225.84C13.3227 225.99 13.5394 226.206 13.6905 226.467C13.8416 226.727 13.9217 227.023 13.923 227.324V232.399C13.9087 232.55 13.8545 232.694 13.7659 232.817C13.6773 232.94 13.5576 233.037 13.419 233.099C13.0436 233.289 12.6288 233.388 12.208 233.388C11.7873 233.388 11.3724 233.289 10.997 233.099C10.8584 233.037 10.7387 232.94 10.6501 232.817C10.5616 232.694 10.5073 232.55 10.493 232.399V228.318L3.43001 224.23V226.33C3.41569 226.481 3.36146 226.625 3.27289 226.748C3.18431 226.871 3.06459 226.968 2.92602 227.03C2.55063 227.22 2.13577 227.319 1.71502 227.319C1.29426 227.319 0.879404 227.22 0.504014 227.03C0.365439 226.968 0.245718 226.871 0.157144 226.748C0.0685705 226.625 0.0143376 226.481 1.49885e-05 226.33V221.262C-0.00126912 220.956 0.0799793 220.655 0.235202 220.391C0.390425 220.128 0.613875 219.911 0.882015 219.764Z" fill="var(--fill-0, #EBEBEB)"/>
</g>
</svg>
