<svg preserveAspectRatio="none" width="100%" height="100%" overflow="visible" style="display: block;" viewBox="0 0 109.53 66.6503" fill="none" xmlns="http://www.w3.org/2000/svg">
<g id="freepik--scissors--inject-77">
<path id="Vector" d="M69.195 34.7239L71.617 36.8239L75.117 35.9279C76.342 35.5989 77.798 35.9279 78.421 36.6279C78.4979 36.7209 78.5822 36.8075 78.673 36.8869C82.173 40.0299 90.328 41.1919 98.063 39.4559C105.063 37.8949 109.522 34.4509 109.522 31.0909C109.522 30.5239 109.522 28.2419 109.522 27.6609C109.527 26.8423 109.283 26.0415 108.822 25.3649C106.162 21.4029 97.034 19.765 88.452 21.683C82.852 22.936 78.869 25.3999 77.504 28.0599C77.0579 28.7885 76.3608 29.3288 75.544 29.579C73.4866 30.3098 71.3817 30.8991 69.244 31.3429L69.195 34.7239ZM101.955 31.651C100.256 32.5864 98.4277 33.2657 96.53 33.667C90.468 35.025 83.93 34.094 81.879 31.651C82.5956 30.7111 83.505 29.9355 84.546 29.376C86.2456 28.4429 88.0737 27.766 89.971 27.367C96.033 26.002 102.571 26.933 104.622 29.383C103.903 30.3188 102.994 31.0917 101.955 31.651Z" fill="var(--fill-0, #FF6B57)"/>
<path id="Vector_2" opacity="0.2" d="M69.195 31.2869L71.617 33.3869L75.117 32.4909C76.342 32.1619 77.798 32.4559 78.421 33.1559C78.4979 33.2489 78.5822 33.3355 78.673 33.4149C82.173 36.5579 90.328 37.7199 98.063 35.9839C106.652 34.0589 111.461 29.2919 108.794 25.3299C106.127 21.3679 97.006 19.7299 88.424 21.6479C82.824 22.9009 78.841 25.365 77.476 28.025C77.0299 28.7535 76.3328 29.2938 75.516 29.5439C73.4513 30.2685 71.3393 30.8509 69.195 31.2869ZM84.546 25.9389C86.2456 25.0059 88.0737 24.329 89.971 23.9299C96.271 22.5299 103.04 23.5589 104.818 26.2049C105.952 27.8919 104.818 29.9779 101.955 31.6509C100.256 32.5864 98.4277 33.2657 96.53 33.6669C90.23 35.0669 83.461 34.0309 81.683 31.3919C80.549 29.7049 81.648 27.6119 84.546 25.9389Z" fill="var(--fill-0, white)"/>
<path id="Vector_3" d="M71.617 33.3659L75.117 32.4699C76.349 32.1409 77.798 32.4349 78.421 33.1349C78.4998 33.2262 78.5839 33.3127 78.673 33.3939C82.173 36.5369 90.335 37.6989 98.063 35.9629C104.979 34.4159 109.438 31.0279 109.522 27.6889V31.0349C109.522 34.3949 105.042 37.8389 98.063 39.4349C90.363 41.1639 82.166 40.0019 78.673 36.8589C78.5839 36.7777 78.4998 36.6912 78.421 36.6C77.798 35.9 76.321 35.6059 75.117 35.9419L71.617 36.8309L69.202 34.7309V31.2939L71.617 33.3659Z" fill="var(--fill-0, #FF6B57)"/>
<path id="Vector_4" opacity="0.2" d="M90.006 27.3599C88.1051 27.7613 86.2744 28.4431 84.574 29.3829C83.5305 29.9358 82.6203 30.7098 81.907 31.6509C81.8373 31.568 81.7718 31.4816 81.711 31.3919C80.577 29.7049 81.676 27.6119 84.574 25.9459C86.2733 25.0053 88.1045 24.3257 90.006 23.9299C96.306 22.5299 103.068 23.5589 104.846 26.1979C105.161 26.6783 105.311 27.2477 105.274 27.8208C105.238 28.3938 105.016 28.9395 104.643 29.3759C102.606 26.9329 96.033 26.0089 90.006 27.3599Z" fill="var(--fill-0, black)"/>
<path id="Vector_5" opacity="0.2" d="M71.617 33.3659V36.8029L69.195 34.7239V31.2869L71.617 33.3659Z" fill="var(--fill-0, black)"/>
<path id="Vector_6" d="M0 56.1649C0 55.2829 0 53.7569 0 53.7569C0.056 51.0689 3.5 48.4299 13.356 44.6149C27.1871 39.2784 41.3731 34.9115 55.811 31.546C59.01 32.988 63.91 32.9459 69.195 31.8049L71.617 33.9049V36.3129C71.617 36.3129 17.255 52.5389 0 56.1649Z" fill="var(--fill-0, #263238)"/>
<path id="Vector_7" d="M69.195 31.8049C63.91 32.9599 59.01 32.988 55.811 31.546C41.3731 34.9115 27.1871 39.2784 13.356 44.6149C3.486 48.4299 0.056 51.0689 0 53.7569C17.255 50.1309 71.617 33.8769 71.617 33.8769L69.195 31.8049Z" fill="var(--fill-0, #37474F)"/>
<path id="Vector_8" d="M50.316 18.1689C50.316 21.0739 52.633 23.3419 56.581 24.5669L56.833 24.6579L56.651 24.8329V28.2699L60.256 29.6699L64.862 25.6099C65.8419 24.8006 66.9684 24.1875 68.18 23.8039C71.969 22.4753 75.4895 20.4792 78.575 17.9099C82.243 14.8579 84.441 11.6099 84.434 8.93593C84.434 8.36893 84.434 6.07293 84.434 5.48493C84.434 2.68493 81.963 0.584924 76.167 0.0739243C68.887 -0.535076 58.793 2.64992 53.375 8.47392C51.275 10.7419 50.295 12.8629 50.288 14.7249L50.316 18.1689ZM54.957 16.3419C55.4864 15.131 56.2338 14.0277 57.162 13.0869C58.5099 11.6691 60.0624 10.461 61.768 9.50292C66.01 7.05292 71.568 5.63893 75.579 6.00293C78.491 6.24792 79.338 6.95493 79.73 7.47293C78.6208 9.66288 77.035 11.5764 75.089 13.0729C73.7527 14.184 72.3242 15.1792 70.819 16.0479C66.171 18.7289 61.488 19.8419 58.597 18.9459C56.784 18.3929 55.538 17.4969 54.957 16.3349V16.3419Z" fill="var(--fill-0, #FF6B57)"/>
<path id="Vector_9" opacity="0.2" d="M60.284 26.254V29.6909L56.679 28.2769V24.8399L60.284 26.254Z" fill="var(--fill-0, black)"/>
<path id="Vector_10" opacity="0.2" d="M56.581 21.1299C58.149 21.6129 58.751 22.719 57.869 23.608L56.833 24.658L56.581 24.5669H56.546C52.605 23.3419 50.281 21.0669 50.288 18.1689V14.7459C50.316 17.6439 52.64 19.9049 56.581 21.1299Z" fill="var(--fill-0, black)"/>
<path id="Vector_11" opacity="0.2" d="M79.73 7.44494C79.338 6.93394 78.491 6.21996 75.579 5.97496C71.561 5.63196 66.01 7.05296 61.768 9.47496C60.0635 10.4376 58.5113 11.6477 57.162 13.0659C56.2338 14.0067 55.4864 15.11 54.957 16.321C54.8685 16.1482 54.7959 15.9678 54.74 15.7819C54.201 14.0249 55.041 11.897 57.162 9.62896C58.5113 8.21073 60.0635 7.00055 61.768 6.03796C66.017 3.59496 71.568 2.18096 75.579 2.53796C78.491 2.78296 79.345 3.48996 79.73 4.00796C80.367 4.84796 80.332 6.06595 79.73 7.45195V7.44494Z" fill="var(--fill-0, black)"/>
<path id="Vector_12" opacity="0.2" d="M76.195 0.0949234C68.915 -0.514077 58.821 2.67092 53.403 8.49492C47.985 14.3189 50.106 19.1349 56.581 21.1299C58.142 21.6129 58.751 22.7259 57.869 23.6079L56.651 24.8329L60.256 26.2329L64.862 22.1729C65.8446 21.3637 66.9733 20.7506 68.187 20.3669C71.973 19.0366 75.491 17.0406 78.575 14.4729C86.128 8.23593 87.5 1.04692 76.195 0.0949234ZM79.73 4.00794C81.13 5.89794 79.247 9.60794 75.096 13.1079C73.7597 14.219 72.3312 15.2142 70.826 16.0829C66.178 18.7639 61.495 19.8769 58.604 18.9809C56.504 18.3229 55.167 17.2309 54.74 15.8239C54.208 14.0669 55.048 11.9389 57.162 9.66393C58.5144 8.25019 60.069 7.04475 61.775 6.08692C66.01 3.63692 71.575 2.21592 75.579 2.58692C78.491 2.78292 79.338 3.48994 79.73 4.00794Z" fill="var(--fill-0, white)"/>
<path id="Vector_13" d="M16.282 64.1869C23.891 55.0519 53.564 28.0669 56.672 25.2319L60.228 26.6319V29.0399C59.2927 30.0543 58.5903 31.2608 58.17 32.575C58.3994 33.2605 58.8049 33.8736 59.346 34.3529V36.7609C51.5473 45.3797 42.8348 53.1252 33.362 59.8609C25.809 65.1599 20.916 66.8609 16.282 66.6299V64.1869Z" fill="var(--fill-0, #263238)"/>
<path id="Vector_14" d="M60.228 26.625C57.708 29.551 57.176 32.365 59.346 34.325C51.5473 42.9438 42.8348 50.6893 33.362 57.425C25.809 62.724 20.923 64.4249 16.282 64.1939C23.891 55.0589 53.564 28.0739 56.672 25.2389L60.228 26.625Z" fill="var(--fill-0, #455A64)"/>
<path id="Vector_15" d="M49.56 35.4939C49.5819 35.3083 49.6515 35.1315 49.7619 34.9807C49.8722 34.8298 50.0197 34.71 50.19 34.633C50.6585 34.395 51.1765 34.271 51.702 34.271C52.2275 34.271 52.7455 34.395 53.214 34.633C53.3853 34.7116 53.5329 34.8338 53.6422 34.9873C53.7516 35.1409 53.8187 35.3204 53.837 35.508V36.3549C53.8187 36.5425 53.7516 36.722 53.6422 36.8756C53.5329 37.0291 53.3853 37.1513 53.214 37.2299C52.7455 37.4679 52.2275 37.5919 51.702 37.5919C51.1765 37.5919 50.6585 37.4679 50.19 37.2299C50.016 37.1523 49.8659 37.0296 49.7552 36.8745C49.6444 36.7195 49.5771 36.5377 49.56 36.3479C49.567 36.0329 49.553 35.8159 49.56 35.4939Z" fill="var(--fill-0, #E0E0E0)"/>
<path id="Vector_16" d="M53.214 36.383C52.7455 36.6209 52.2275 36.7449 51.702 36.7449C51.1765 36.7449 50.6585 36.6209 50.19 36.383C50.0072 36.3209 49.8483 36.2031 49.7359 36.0462C49.6234 35.8893 49.5629 35.701 49.5629 35.508C49.5629 35.3149 49.6234 35.1266 49.7359 34.9697C49.8483 34.8127 50.0072 34.695 50.19 34.633C50.6585 34.395 51.1765 34.271 51.702 34.271C52.2275 34.271 52.7455 34.395 53.214 34.633C53.3968 34.695 53.5557 34.8127 53.6681 34.9697C53.7806 35.1266 53.8411 35.3149 53.8411 35.508C53.8411 35.701 53.7806 35.8893 53.6681 36.0462C53.5557 36.2031 53.3968 36.3209 53.214 36.383Z" fill="var(--fill-0, #F5F5F5)"/>
</g>
</svg>
