<svg preserveAspectRatio="none" width="100%" height="100%" overflow="visible" style="display: block;" viewBox="0 0 326.178 136.962" fill="none" xmlns="http://www.w3.org/2000/svg">
<g id="freepik--Shadows--inject-77">
<path id="freepik--Shadow--inject-77" d="M279.215 136.962C305.152 136.962 326.178 124.824 326.178 109.851C326.178 94.8781 305.152 82.74 279.215 82.74C253.278 82.74 232.252 94.8781 232.252 109.851C232.252 124.824 253.278 136.962 279.215 136.962Z" fill="var(--fill-0, #E0E0E0)"/>
<path id="freepik--shadow--inject-77" d="M16.8062 77.028L0.461178 67.599C0.326043 67.55 0.209286 67.4605 0.126775 67.3428C0.0442636 67.2251 0 67.0848 0 66.941C0 66.7973 0.0442636 66.657 0.126775 66.5393C0.209286 66.4216 0.326043 66.3321 0.461178 66.283L114.918 0.273032C115.27 0.0935568 115.66 0 116.056 0C116.451 0 116.841 0.0935568 117.193 0.273032L133.538 9.70203C133.673 9.75108 133.79 9.84055 133.873 9.95827C133.955 10.076 133.999 10.2163 133.999 10.36C133.999 10.5038 133.955 10.6441 133.873 10.7618C133.79 10.8795 133.673 10.969 133.538 11.018L19.0812 77.028C18.7289 77.2075 18.3391 77.3011 17.9437 77.3011C17.5483 77.3011 17.1585 77.2075 16.8062 77.028Z" fill="var(--fill-0, #E0E0E0)"/>
<path id="freepik--shadow--inject-77_2" d="M121.995 117.796L84.5312 96.159C84.4109 96.1025 84.3092 96.0129 84.238 95.9007C84.1668 95.7885 84.129 95.6584 84.129 95.5255C84.129 95.3927 84.1668 95.2625 84.238 95.1503C84.3092 95.0382 84.4109 94.9486 84.5312 94.892L158.465 52.234C158.806 52.0613 159.182 51.9712 159.564 51.9712C159.946 51.9712 160.323 52.0613 160.663 52.234L198.12 73.871C198.24 73.9276 198.342 74.0172 198.413 74.1293C198.485 74.2415 198.522 74.3717 198.522 74.5045C198.522 74.6374 198.485 74.7676 198.413 74.8797C198.342 74.9919 198.24 75.0815 198.12 75.138L124.186 117.796C123.847 117.969 123.471 118.059 123.091 118.059C122.71 118.059 122.335 117.969 121.995 117.796Z" fill="var(--fill-0, #E0E0E0)"/>
<path id="freepik--shadow--inject-77_3" d="M61.1722 110.11L23.2742 88.207C23.139 88.158 23.0223 88.0685 22.9398 87.9508C22.8573 87.8331 22.813 87.6928 22.813 87.549C22.813 87.4053 22.8573 87.265 22.9398 87.1473C23.0223 87.0295 23.139 86.9401 23.2742 86.8911L109.059 37.359C109.413 37.1795 109.804 37.0859 110.2 37.0859C110.597 37.0859 110.988 37.1795 111.341 37.359L149.239 59.297C149.374 59.3461 149.491 59.4356 149.574 59.5533C149.656 59.671 149.7 59.8113 149.7 59.955C149.7 60.0988 149.656 60.2391 149.574 60.3568C149.491 60.4745 149.374 60.564 149.239 60.613L63.4542 110.11C63.1006 110.29 62.7097 110.383 62.3132 110.383C61.9167 110.383 61.5257 110.29 61.1722 110.11Z" fill="var(--fill-0, #E0E0E0)"/>
<path id="freepik--shadow--inject-77_4" d="M163.295 107.492C169.091 106.274 170.995 105.588 188.194 100.835C186.339 102.613 176.854 112.791 176.854 112.791V117.516C177.484 117.516 178.863 117.635 179.479 117.628C191.043 117.453 205.869 104.048 217.538 92.582C224.139 90.699 229.249 89.222 231.538 88.557L232.308 88.8161L236.242 87.815C236.722 87.6903 237.231 87.7322 237.684 87.934C244.397 95.172 270.164 92.7081 271.116 81.3121C271.158 79.8647 271.125 78.4161 271.018 76.972C270.22 73.598 267.707 71.981 263.92 70.672C255.807 67.928 240.421 70.203 236.473 77.518C236.236 77.8088 235.916 78.0211 235.556 78.127C233.686 78.7859 231.776 79.3236 229.837 79.7371H228.227V80.563C226.468 80.8889 224.683 81.0552 222.893 81.06C224.664 79.66 227.331 76.601 229.669 75.999C236.326 73.899 246.742 66.556 246.721 59.794V56.3711C246.574 50.7711 240.078 49.371 235.521 49.294C226.54 48.979 210.615 55.048 209.831 65.443V68.7751C209.831 71.7501 211.658 74.2421 214.934 75.8451L208.123 82.1451C195.348 85.4701 190.903 87.248 178.366 91.644C173.151 93.744 161.349 97.1671 161.104 103.362C161.104 103.929 161.104 107.023 161.055 107.989L163.295 107.492ZM245.237 81.697C249.689 78.834 256.948 78.113 261.694 79.919C257.487 82.684 250.053 83.538 245.237 81.697ZM218.308 66.822C222.039 61.18 231.328 57.722 237.866 59.003C234.786 63.609 223.425 70.889 218.308 66.815V66.822Z" fill="var(--fill-0, #E0E0E0)"/>
</g>
</svg>
