<svg preserveAspectRatio="none" width="100%" height="100%" overflow="visible" style="display: block;" viewBox="0 0 32.7355 34.5536" fill="none" xmlns="http://www.w3.org/2000/svg">
<g id="freepik--speech-bubble--inject-77">
<path id="Vector" d="M3.69791 8.14993C1.61818 11.3657 0.844517 15.254 1.53491 19.0209L1.9409 20.7009C3.01907 24.3438 5.43265 27.4453 8.69895 29.3854C11.9653 31.3255 15.8435 31.9611 19.5582 31.1651C23.2729 30.3691 26.5502 28.2001 28.7348 25.092C30.9193 21.9839 31.8501 18.1657 31.3409 14.4009L31.0189 12.7069C30.3086 9.85249 28.7789 7.26815 26.6182 5.27222C24.4575 3.27628 21.7602 1.95594 18.8585 1.47381C15.9568 0.991681 12.9774 1.36882 10.2874 2.55879C7.59734 3.74875 5.3141 5.69956 3.71891 8.17093L3.69791 8.14993Z" fill="var(--fill-0, white)"/>
<path id="Vector_2" d="M2.64091 7.42893C0.531786 10.6799 -0.357559 14.5728 0.130665 18.4171C0.618889 22.2614 2.45313 25.8084 5.30793 28.4289L4.26491 33.4059C4.22539 33.5941 4.24381 33.7899 4.31772 33.9674C4.39163 34.145 4.51756 34.296 4.67896 34.4005C4.84035 34.5051 5.02964 34.5583 5.22188 34.5532C5.41412 34.5481 5.6003 34.4849 5.75592 34.3719L9.87893 31.3899C12.7431 32.6273 15.9012 33.0202 18.9813 32.5223C22.0613 32.0244 24.9348 30.6564 27.2632 28.5796C29.5916 26.5029 31.2779 23.8038 32.1233 20.8005C32.9687 17.7972 32.938 14.6148 32.0348 11.6284C31.1316 8.64197 29.3936 5.97594 27.0256 3.94447C24.6575 1.913 21.7581 0.600756 18.6691 0.162368C15.58 -0.276019 12.43 0.177721 9.59026 1.47012C6.75051 2.76252 4.33933 4.83971 2.64091 7.45693V7.42893ZM24.5859 3.67693C27.7991 5.75941 30.0972 8.9888 31.0119 12.7069L31.3339 14.4079C31.8034 18.1568 30.849 21.9453 28.6595 25.0243C26.4701 28.1033 23.2049 30.2487 19.5098 31.0361C15.8146 31.8235 11.9585 31.1957 8.70402 29.2767C5.44951 27.3578 3.03357 24.2875 1.93392 20.6729L1.53492 18.9929C1.01612 16.0974 1.35519 13.1135 2.51043 10.4082C3.66566 7.70295 5.58664 5.39447 8.03694 3.76689C10.4872 2.13931 13.3599 1.26365 16.3015 1.24766C19.243 1.23168 22.1251 2.07607 24.5929 3.67693H24.5859Z" fill="var(--fill-0, #455A64)"/>
</g>
</svg>
