<svg preserveAspectRatio="none" width="100%" height="100%" overflow="visible" style="display: block;" viewBox="0 0 143.454 104.735" fill="none" xmlns="http://www.w3.org/2000/svg">
<g id="freepik--Top--inject-77">
<path id="freepik--Hair--inject-77" d="M128.849 9.28759C129.22 3.0576 117.327 -4.20141 105.658 2.98759C93.989 10.1766 97.86 17.6246 98.56 19.8646L98.966 51.9386H134.449C134.449 51.9386 134.449 25.0026 134.687 20.6206C134.925 16.2386 134.89 9.64459 128.849 9.28759Z" fill="var(--fill-0, #263238)"/>
<g id="freepik--Arm--inject-77">
<path id="Vector" d="M88.508 51.3716C81.291 55.4876 70.448 61.6336 70.448 61.6336C70.448 61.6336 52.031 54.4446 50.918 53.8846C48.734 52.7856 47.81 52.2886 47.313 51.9876C45.262 50.5316 44.856 46.7726 43.477 44.7916C42.6146 43.5213 41.8629 42.1794 41.23 40.7806C41.0555 40.1934 40.8209 39.6257 40.53 39.0866C40.4323 38.9481 40.2876 38.8497 40.1228 38.8098C39.958 38.7699 39.7843 38.7911 39.634 38.8696C39.5192 38.9639 39.4282 39.0838 39.368 39.2196C39.0156 39.8241 38.7782 40.4886 38.668 41.1796C38.437 43.1746 39.886 44.9876 40.068 46.9826C40.068 47.1926 40.068 47.4586 39.865 47.5426C39.662 47.6266 39.494 47.4796 39.34 47.3536C38.3635 46.5314 37.5675 45.5161 37.002 44.3716C36.3768 43.0465 35.8549 41.6751 35.441 40.2696C35.1911 39.5013 34.8846 38.7526 34.524 38.0296C34.3578 37.6195 34.0934 37.2566 33.754 36.9726C33.4338 36.7489 33.0421 36.6515 32.6543 36.6994C32.2666 36.7472 31.9103 36.9368 31.654 37.2316C31.4098 36.6457 30.9589 36.17 30.387 35.8946C29.9626 35.6518 29.4594 35.5864 28.987 35.7126C28.78 35.7595 28.5993 35.885 28.483 36.0626C28.3802 36.2809 28.3531 36.5272 28.406 36.7626C28.4698 37.287 28.5799 37.8047 28.735 38.3096C28.238 38.2606 27.818 38.2046 27.524 38.5056C27.23 38.8066 27.286 39.3596 27.3 39.9056C27.314 40.4516 27.398 41.7116 27.419 42.3696C27.4303 42.4132 27.4303 42.459 27.419 42.5026C27.398 42.5288 27.3714 42.55 27.3411 42.5645C27.3108 42.5791 27.2776 42.5866 27.244 42.5866C26.88 42.6356 26.453 42.5376 26.194 42.7966C25.655 43.3216 26.243 44.7776 26.362 45.3936C26.572 46.4296 26.782 47.4936 27.013 48.4946C27.1476 49.1815 27.3396 49.8558 27.587 50.5106C27.852 51.1388 28.1829 51.7372 28.574 52.2956L28.77 52.5756C29.428 53.4996 30.17 54.3676 30.912 55.2216C32.6251 57.3241 34.7139 59.0901 37.072 60.4296C42.217 63.2296 64.267 75.0176 65.807 75.8296C70.14 78.1816 72.044 76.7466 76.37 74.8706C80.696 72.9946 98.672 63.9786 98.672 63.9786L104.636 44.8126C98.679 45.4216 96.327 46.9126 88.508 51.3716Z" fill="var(--fill-0, #FFBDA7)"/>
<path id="Vector_2" d="M31.668 37.2246C32.2745 38.0812 32.7467 39.0254 33.068 40.0246C33.439 40.9906 33.768 41.9706 34.062 42.9506C34.356 43.9306 34.685 44.8966 35.035 45.8556C35.2044 46.334 35.4031 46.8016 35.63 47.2556C35.842 47.7218 36.105 48.1632 36.414 48.5716C35.659 47.8484 35.063 46.9759 34.664 46.0096C34.2329 45.067 33.8658 44.0965 33.565 43.1046C33.257 42.1246 32.963 41.1376 32.69 40.1506C32.55 39.6536 32.403 39.1636 32.235 38.6806C32.0847 38.1811 31.8951 37.6942 31.668 37.2246Z" fill="var(--fill-0, #F0997A)"/>
<path id="Vector_3" d="M28.791 38.3096C29.372 38.3516 29.75 38.9046 29.967 39.3876C30.1666 39.8907 30.3372 40.4049 30.478 40.9276L31.339 44.0216C31.8313 46.0943 32.6766 48.0667 33.838 49.8526C33.4454 49.4783 33.0913 49.0656 32.781 48.6206C32.4839 48.1698 32.2128 47.7023 31.969 47.2206C31.5015 46.2412 31.122 45.2222 30.835 44.1756C30.548 43.1396 30.289 42.0756 30.086 41.0396C30.0011 40.516 29.8795 39.9991 29.722 39.4926C29.681 39.2322 29.5739 38.9867 29.4109 38.7796C29.2479 38.5724 29.0345 38.4106 28.791 38.3096Z" fill="var(--fill-0, #F0997A)"/>
<path id="Vector_4" d="M27.426 42.5166C27.6375 42.545 27.8411 42.6154 28.025 42.7236C28.2089 42.8318 28.3694 42.9756 28.497 43.1466C28.7635 43.4749 28.9848 43.8375 29.155 44.2246C29.47 44.9871 29.7389 45.7678 29.96 46.5626C30.205 47.3326 30.478 48.0956 30.793 48.8376C31.0883 49.5904 31.489 50.2974 31.983 50.9376C31.3254 50.4206 30.792 49.7628 30.422 49.0126C30.0306 48.2817 29.7095 47.5153 29.463 46.7236C29.218 45.9186 29.036 45.1416 28.763 44.3786C28.6394 44.0014 28.4776 43.6378 28.28 43.2936C28.0975 42.9407 27.7945 42.665 27.426 42.5166Z" fill="var(--fill-0, #F0997A)"/>
<path id="Vector_5" d="M45.255 56.2926C45.094 56.1246 44.877 56.0266 44.716 55.8516C44.555 55.6766 44.513 55.5996 44.415 55.4736C44.1668 55.1555 43.9554 54.8103 43.785 54.4446C43.4738 53.7158 43.1039 53.0135 42.679 52.3446C42.2428 51.7505 41.6415 51.2977 40.95 51.0426C40.208 50.7556 39.123 50.4266 38.36 50.7976C38.3513 50.8041 38.3443 50.8126 38.3394 50.8223C38.3345 50.832 38.332 50.8427 38.332 50.8536C38.332 50.8645 38.3345 50.8752 38.3394 50.8849C38.3443 50.8946 38.3513 50.9031 38.36 50.9096C39.172 51.1453 39.9711 51.4233 40.754 51.7426C41.4211 52.1444 41.9714 52.714 42.35 53.3946C42.7101 54.0582 43.1074 54.7009 43.54 55.3196C43.7492 55.6003 43.9993 55.8481 44.282 56.0546C44.52 56.2156 44.947 56.5446 45.248 56.4956C45.332 56.4816 45.297 56.3346 45.255 56.2926Z" fill="var(--fill-0, #F0997A)"/>
</g>
<g id="freepik--Discount--inject-77">
<g id="freepik--label--inject-77">
<path id="Vector_6" d="M80.626 14.0756L16.366 51.1756L0 84.2506L16.366 98.4186L18.207 99.4826L82.467 62.3826V15.1466L80.626 14.0756ZM14.126 78.1326C14.2 76.7697 14.5942 75.4434 15.2764 74.2613C15.9587 73.0792 16.9099 72.0745 18.053 71.3286C18.5654 71.0169 19.1479 70.8388 19.747 70.8106C20.0187 71.3406 20.1535 71.9302 20.139 72.5256C20.0644 73.8893 19.6701 75.2163 18.9879 76.3995C18.3057 77.5827 17.3548 78.5888 16.212 79.3366C15.6942 79.6478 15.1074 79.8258 14.504 79.8546C14.2228 79.3248 14.0806 78.7323 14.091 78.1326H14.126Z" fill="var(--fill-0, #FF6B57)"/>
<path id="Vector_7" d="M18.207 52.2466L1.848 85.3146L18.207 99.4826L82.467 62.3826V15.1466L18.207 52.2466ZM18.046 80.4006C15.876 81.6606 14.119 80.6456 14.119 78.1326C14.193 76.7697 14.5872 75.4434 15.2694 74.2613C15.9517 73.0792 16.9029 72.0745 18.046 71.3286C20.216 70.0826 21.973 71.0976 21.973 73.5966C21.9006 74.9599 21.5072 76.2867 20.8248 77.4691C20.1424 78.6515 19.1902 79.656 18.046 80.4006Z" fill="var(--fill-0, #FF6B57)"/>
<g id="Group" opacity="0.3">
<path id="Vector_8" d="M21.973 73.6246C21.9006 74.9879 21.5072 76.3148 20.8248 77.4971C20.1424 78.6795 19.1902 79.684 18.046 80.4286C16.471 81.3386 15.12 81.0586 14.497 79.8826C15.1008 79.8561 15.6882 79.678 16.205 79.3646C17.3478 78.6168 18.2987 77.6107 18.9809 76.4275C19.6631 75.2443 20.0574 73.9173 20.132 72.5536C20.1471 71.9626 20.0122 71.3774 19.74 70.8526C20.0117 70.8414 20.2829 70.8846 20.5377 70.9795C20.7926 71.0745 21.0259 71.2193 21.224 71.4056C21.7575 72.017 22.0268 72.815 21.973 73.6246Z" fill="var(--fill-0, black)"/>
</g>
<g id="Group_2" opacity="0.3">
<path id="Vector_9" d="M82.467 15.1466L80.626 14.0756L16.366 51.1826L18.207 52.2466L82.467 15.1466Z" fill="var(--fill-0, white)"/>
</g>
<g id="Group_3" opacity="0.15">
<path id="Vector_10" d="M18.207 52.2466L1.848 85.3146L0 84.2506L16.366 51.1826L18.207 52.2466Z" fill="var(--fill-0, black)"/>
</g>
<g id="Group_4" opacity="0.3">
<path id="Vector_11" d="M1.848 85.3146L18.207 99.4826L16.366 98.4186L0 84.2506L1.848 85.3146Z" fill="var(--fill-0, black)"/>
</g>
</g>
<path id="Vector_12" d="M45.717 59.9746C47.0736 57.3295 47.7633 54.393 47.726 51.4206C47.8132 49.7369 47.4964 48.0569 46.802 46.5206C46.5669 46.0059 46.2091 45.5568 45.76 45.2126C45.3108 44.8685 44.7841 44.6398 44.226 44.5466C42.9199 44.4409 41.6162 44.7761 40.523 45.4986C39.0813 46.3517 37.8228 47.4817 36.82 48.8236C35.687 50.3153 34.8159 51.9888 34.244 53.7726C33.6169 55.6956 33.3026 57.7069 33.313 59.7296C33.313 62.8656 33.985 64.9399 35.329 65.9526C36.673 66.9653 38.4043 66.8626 40.523 65.6446C42.7619 64.2914 44.5648 62.3233 45.717 59.9746ZM39.305 59.7226C38.976 59.2046 38.815 58.1546 38.815 56.5656C38.767 55.3101 38.9326 54.0556 39.305 52.8556C39.4934 52.1438 39.9241 51.52 40.523 51.0916C40.6219 51.02 40.7358 50.9719 40.8561 50.9508C40.9764 50.9298 41.0998 50.9364 41.2172 50.9701C41.3345 51.0038 41.4427 51.0638 41.5334 51.1455C41.6242 51.2272 41.6952 51.3284 41.741 51.4416C42.063 51.9666 42.224 53.0166 42.224 54.5986C42.2707 55.8558 42.1074 57.112 41.741 58.3156C41.5484 59.0254 41.1186 59.648 40.523 60.0796C40.4229 60.1523 40.3075 60.2013 40.1856 60.2226C40.0637 60.2439 39.9385 60.2371 39.8196 60.2027C39.7007 60.1682 39.5913 60.1071 39.4997 60.0239C39.4081 59.9407 39.3367 59.8376 39.291 59.7226H39.305ZM66.675 52.1066C66.4404 51.5916 66.0827 51.1421 65.6335 50.7979C65.1843 50.4537 64.6573 50.2252 64.099 50.1326C62.7929 50.0269 61.4891 50.3621 60.396 51.0846C58.9564 51.9378 57.7002 53.0679 56.7 54.4096C55.5643 55.8996 54.6929 57.5736 54.124 59.3586C53.4939 61.2809 53.1795 63.2927 53.193 65.3156C53.193 68.4516 53.865 70.5259 55.209 71.5386C56.553 72.5513 58.282 72.4486 60.396 71.2306C62.6387 69.8758 64.4423 67.902 65.59 65.5466C66.9507 62.9028 67.6429 59.9658 67.606 56.9926C67.6915 55.3129 67.3722 53.6372 66.675 52.1066ZM61.621 63.8876C61.426 64.5982 60.9937 65.2207 60.396 65.6516C60.2962 65.7216 60.1819 65.7683 60.0616 65.7882C59.9413 65.808 59.8181 65.8005 59.7011 65.7662C59.5841 65.7319 59.4763 65.6717 59.3857 65.5901C59.2952 65.5084 59.2242 65.4074 59.178 65.2946C58.856 64.7766 58.695 63.7266 58.695 62.1376C58.6488 60.8827 58.8121 59.6288 59.178 58.4276C59.3664 57.7158 59.7971 57.092 60.396 56.6636C60.4955 56.592 60.6099 56.5439 60.7307 56.5228C60.8514 56.5018 60.9754 56.5083 61.0932 56.542C61.2111 56.5757 61.3198 56.6356 61.4112 56.7173C61.5026 56.799 61.5743 56.9003 61.621 57.0136C61.943 57.5386 62.104 58.5886 62.104 60.1706C62.1502 61.4278 61.9869 62.6839 61.621 63.8876ZM56.448 36.8326L37.926 83.6836L44.478 79.9036L62.993 33.0246L56.448 36.8326Z" fill="var(--fill-0, #FAFAFA)"/>
</g>
<path id="freepik--Chest--inject-77" d="M140.728 99.7976C139.104 92.3916 137.676 86.7216 137.697 85.0976C137.767 77.9996 139.636 68.6756 140.252 64.5526C141.589 55.5786 137.452 47.1926 135.401 45.4286C135.401 45.4286 133.231 44.9316 130.634 44.3086C129.16 43.9583 127.666 43.6965 126.161 43.5246C122.191 42.9728 118.172 42.8625 114.177 43.1956C113.204 43.3006 108.577 44.0916 108.577 44.0916C107.177 44.4206 104.636 44.8826 104.629 44.8826C102.135 47.1546 100.05 49.8371 98.462 52.8136C96.187 56.8876 94.892 60.2896 94.493 68.9976C93.975 80.0856 92.778 92.5386 92.778 100.274C101.976 105.895 128.891 106.707 140.728 99.7976Z" fill="var(--fill-0, #455A64)"/>
<g id="freepik--Head--inject-77">
<path id="Vector_13" d="M125.699 40.7596C125.699 39.2896 125.888 31.9116 125.888 31.9116C125.951 32.4646 128.625 33.9626 131.012 31.1136C133.399 28.2646 133.56 25.2476 132.118 23.3226C130.529 21.2226 127.001 21.3276 125.601 24.8066C124.614 26.0596 122.766 24.6106 123.578 21.2156C123.361 18.8496 119.938 16.2736 121.758 12.2486C114.982 7.7756 107.268 8.0976 103.152 11.6536C101.901 15.8751 101.354 20.2742 101.535 24.6736C101.829 32.4996 103.929 36.2726 106.435 37.5886C108.115 38.4636 109.634 38.6736 112.567 38.4216L112.434 40.8786C112.378 42.1106 112.49 43.0276 111.293 43.4266C110.495 43.6996 108.584 44.0636 108.584 44.0636C108.584 44.0636 105.784 48.8796 113.484 49.3066C125.72 50.0066 130.627 44.3016 130.627 44.3016C130.627 44.3016 129.801 44.0566 127.918 43.4686C125.93 42.8246 125.713 42.2296 125.699 40.7596Z" fill="var(--fill-0, #FFBDA7)"/>
<path id="Vector_14" d="M112.574 38.4216C117.831 37.8826 122.857 36.1466 124.033 33.7456C124.033 33.7456 124.033 36.3636 121.933 37.6236C118.944 39.3876 112.476 40.2836 112.476 40.2836L112.574 38.4216Z" fill="var(--fill-0, #F0997A)"/>
<path id="Vector_15" d="M114.989 29.1536L110.362 30.6376C110.446 30.9473 110.591 31.2371 110.789 31.4895C110.987 31.7419 111.234 31.9518 111.515 32.1067C111.795 32.2615 112.105 32.3582 112.424 32.3908C112.743 32.4234 113.066 32.3914 113.372 32.2966C113.996 32.0835 114.513 31.6371 114.814 31.0511C115.116 30.465 115.178 29.7849 114.989 29.1536Z" fill="var(--fill-0, #B16668)"/>
<path id="Vector_16" d="M114.695 30.2246C114.076 30.2118 113.472 30.4142 112.986 30.7971C112.499 31.1801 112.161 31.72 112.028 32.3246C112.466 32.4574 112.934 32.4574 113.372 32.3246C113.812 32.1749 114.203 31.9059 114.499 31.5474C114.796 31.189 114.987 30.7553 115.052 30.2946C114.935 30.2604 114.816 30.237 114.695 30.2246Z" fill="var(--fill-0, #F28F8F)"/>
<path id="Vector_17" d="M103.957 16.0286L107.17 15.2236C107.128 15.0115 107.044 14.8102 106.921 14.632C106.799 14.4538 106.642 14.3024 106.459 14.187C106.276 14.0717 106.072 13.9949 105.858 13.9613C105.645 13.9277 105.426 13.938 105.217 13.9916C104.786 14.1043 104.414 14.3787 104.179 14.758C103.945 15.1372 103.865 15.5922 103.957 16.0286Z" fill="var(--fill-0, #263238)"/>
<path id="Vector_18" d="M118.055 16.5606L114.891 15.4196C114.955 15.2093 115.061 15.0143 115.203 14.8464C115.344 14.6785 115.519 14.5412 115.715 14.4429C115.912 14.3447 116.126 14.2875 116.346 14.2749C116.565 14.2623 116.785 14.2945 116.991 14.3696C117.414 14.5308 117.759 14.8472 117.957 15.2543C118.155 15.6614 118.19 16.1286 118.055 16.5606Z" fill="var(--fill-0, #263238)"/>
<path id="Vector_19" d="M107.191 20.7116C107.222 21.0809 107.105 21.4475 106.867 21.7309C106.628 22.0144 106.286 22.1915 105.917 22.2236C105.739 22.2429 105.558 22.2263 105.387 22.1748C105.215 22.1234 105.055 22.038 104.917 21.9239C104.779 21.8097 104.664 21.6691 104.581 21.5101C104.498 21.3512 104.448 21.1773 104.433 20.9986C104.404 20.6304 104.521 20.2656 104.76 19.9838C104.999 19.7019 105.339 19.5257 105.707 19.4936C105.885 19.4723 106.066 19.4872 106.238 19.5375C106.41 19.5878 106.57 19.6723 106.709 19.7861C106.847 19.8999 106.962 20.0405 107.044 20.1996C107.127 20.3586 107.177 20.5328 107.191 20.7116Z" fill="var(--fill-0, #263238)"/>
<path id="Vector_20" d="M117.194 20.9356C117.223 21.3038 117.106 21.6685 116.867 21.9504C116.628 22.2323 116.288 22.4085 115.92 22.4406C115.742 22.4619 115.561 22.447 115.389 22.3967C115.217 22.3464 115.057 22.2619 114.918 22.1481C114.78 22.0343 114.665 21.8937 114.583 21.7346C114.5 21.5756 114.45 21.4014 114.436 21.2226C114.407 20.8555 114.523 20.4917 114.761 20.21C114.998 19.9283 115.336 19.7514 115.703 19.7176C115.881 19.6963 116.062 19.7112 116.235 19.7614C116.407 19.8116 116.568 19.896 116.707 20.0097C116.847 20.1234 116.961 20.264 117.045 20.4231C117.129 20.5822 117.179 20.7565 117.194 20.9356Z" fill="var(--fill-0, #263238)"/>
<path id="Vector_21" d="M121.59 17.4496L129.92 21.9716C129.015 21.8157 128.085 22.0218 127.33 22.5456L121.331 19.3396L121.59 17.4496Z" fill="var(--fill-0, #455A64)"/>
<path id="Vector_22" d="M99.82 19.4516C100.415 20.4386 100.338 22.2516 100.912 23.4136C101.612 25.7166 105.749 26.9836 107.912 24.6526C108.253 24.2526 108.53 23.8014 108.731 23.3156C109.27 22.0836 109.109 20.3616 110.005 20.1586C112.469 19.8226 110.39 26.3746 117.11 25.9476C120.365 25.7796 120.974 22.6646 121.31 20.1726C121.443 19.4726 122.01 19.3046 122.087 18.4086C122.164 17.5126 121.387 17.2466 120.687 17.2326C118.587 17.0016 115.696 16.8406 114.072 17.2956C112.042 17.8766 111.342 18.5346 110.201 18.5276C109.06 18.5206 108.444 17.8276 106.505 17.2326C104.783 16.7006 101.962 16.7916 99.883 17.0506C98.833 17.3166 99.295 19.0246 99.82 19.4516ZM112.651 19.3046C114.051 17.6666 118.874 17.5616 119.896 18.6046C120.463 19.2416 120.099 21.4606 119.819 22.5036C119.784 22.6296 119.742 22.7556 119.693 22.8886C119.329 24.2886 117.887 24.9886 116.431 24.9886C115.915 25.0147 115.4 24.9329 114.918 24.7485C114.436 24.5641 113.998 24.2811 113.631 23.9176C113.158 23.3906 112.825 22.7525 112.665 22.0626C112.427 21.0756 112.273 19.8646 112.651 19.3046ZM103.761 17.7926C107.485 18.1426 108.955 19.0036 107.891 22.7486C107.527 24.5406 104.979 25.4996 103.131 24.5896C101.731 23.8896 101.367 22.3286 101.192 21.6076C100.534 18.6046 100.695 17.8136 103.761 17.7926Z" fill="var(--fill-0, #455A64)"/>
<path id="Vector_23" d="M106.239 25.8916L110.621 27.9916L111.321 21.2576C111.226 20.9327 111.047 20.6383 110.803 20.4036L106.239 25.8916Z" fill="var(--fill-0, #F0997A)"/>
</g>
<g id="freepik--arm--inject-77">
<path id="Vector_24" d="M143.332 54.9066C142.877 51.5046 141.743 47.2906 135.401 45.4216C132.562 50.4548 130.013 55.6456 127.764 60.9686C125.398 66.4636 121.464 75.1716 121.464 75.1716C114.016 70.3556 104.972 64.8116 102.354 63.1876C99.736 61.5636 93.898 58.3576 91.707 57.0906C89.005 55.5366 88.963 55.3616 86.17 55.0746C83.377 54.7876 78.722 54.7806 76.804 54.7806C75.4787 54.7395 74.1534 54.857 72.856 55.1306C71.8071 55.4455 70.7824 55.8362 69.79 56.2996C69.09 56.7056 69.433 57.9936 70.882 58.1896C69.9419 58.3523 69.0235 58.6224 68.145 58.9946C67.214 59.4776 67.697 60.7726 68.502 61.1716C69.0141 61.4243 69.5546 61.6147 70.112 61.7386C69.986 61.7961 69.873 61.8786 69.7799 61.9812C69.6867 62.0837 69.6154 62.2041 69.5702 62.335C69.5251 62.4659 69.507 62.6047 69.5171 62.7428C69.5272 62.881 69.5653 63.0156 69.629 63.1386C70.035 64.1816 71.12 64.4266 71.925 64.7066C72.73 64.9866 73.822 65.2736 74.627 65.4696L77.322 66.1696C78.4265 66.3673 79.5413 66.5028 80.661 66.5756C80.661 66.5756 77.364 67.0166 76.594 67.0166C75.6762 67.0817 74.7625 67.1962 73.857 67.3596L72.009 68.4236C72.6265 69.0655 73.4534 69.4652 74.34 69.5506C76.034 69.8376 78.05 69.6136 79.338 69.6556C80.626 69.6976 81.599 69.5436 83.034 69.4736C84.3528 69.2623 85.7035 69.3875 86.961 69.8376C88.7343 70.2102 90.5392 70.4118 92.351 70.4396C94.164 70.5236 97.741 73.3796 100.639 75.5146C103.537 77.6496 109.221 82.5146 112.441 84.7826C121.415 91.1736 122.871 91.4116 125.041 90.8516C126.343 90.5086 130.592 87.5126 134.876 79.6516C141.267 67.7796 144.095 60.5836 143.332 54.9066Z" fill="var(--fill-0, #FFBDA7)"/>
<path id="Vector_25" d="M73.773 67.6116C74.312 67.5136 75.047 67.4786 75.593 67.4086C75.873 67.3736 76.153 67.3456 76.419 67.3316H76.853L77.287 67.2966C78.421 67.1916 79.52 67.0516 80.64 66.9046H80.71L83.671 66.5266L80.689 66.2606C79.585 66.1975 78.4861 66.0642 77.399 65.8616L76.769 65.7006C75.887 65.4766 75.005 65.2666 74.137 65.0006L72.534 64.5386C71.9994 64.4017 71.4753 64.2262 70.966 64.0136C70.5153 63.839 70.1509 63.4947 69.951 63.0546C69.8979 62.9707 69.8632 62.8764 69.8494 62.7781C69.8355 62.6797 69.8427 62.5796 69.8705 62.4842C69.8983 62.3889 69.9461 62.3006 70.0106 62.2251C70.0752 62.1497 70.1551 62.0888 70.245 62.0466L71.113 61.6266L70.182 61.4166C69.6249 61.2961 69.086 61.1031 68.579 60.8426C68.3723 60.7197 68.2063 60.5387 68.1017 60.3221C67.9971 60.1055 67.9586 59.8629 67.991 59.6246C68.04 59.4286 68.159 59.3166 68.411 59.1976C68.6715 59.0775 68.9406 58.9768 69.216 58.8966C69.7832 58.7213 70.3606 58.581 70.945 58.4766L72.989 58.0846L70.931 57.8466C70.68 57.8391 70.4369 57.7564 70.2335 57.6091C70.03 57.4618 69.8755 57.2568 69.79 57.0206C69.7609 56.9328 69.7616 56.8379 69.792 56.7506C69.8224 56.6632 69.8807 56.5884 69.958 56.5376C70.2201 56.3959 70.4913 56.2719 70.77 56.1666C71.344 55.9356 71.932 55.7326 72.527 55.5366L72.975 55.3896C73.1105 55.3464 73.2484 55.3113 73.388 55.2846C73.682 55.2286 73.99 55.1936 74.298 55.1656C75.5388 55.0613 76.7842 55.0239 78.029 55.0536C79.2843 55.0536 80.5373 55.0676 81.788 55.0956H82.488C83.51 55.1306 84.525 55.1726 85.54 55.2496C86.7687 55.2926 87.9828 55.5289 89.138 55.9496C90.23 56.4606 91.308 57.1606 92.4 57.7556L95.676 59.6106L102.228 63.3276L108.591 67.3246L121.387 75.2766L121.499 75.3466L121.548 75.2276L128.149 60.1776C129.241 57.6716 130.387 55.1843 131.586 52.7156C132.783 50.2656 134.036 47.8156 135.387 45.4636C136.442 45.7739 137.46 46.1964 138.425 46.7236C139.381 47.2773 140.237 47.9871 140.959 48.8236C141.67 49.6703 142.218 50.6409 142.576 51.6866C142.625 51.8196 142.667 51.9456 142.709 52.0786C142.679 51.9429 142.639 51.8095 142.59 51.6796C142.23 50.6325 141.682 49.6599 140.973 48.8096C140.254 47.9706 139.397 47.2604 138.439 46.7096C137.47 46.1753 136.447 45.7459 135.387 45.4286C134.022 47.8016 132.762 50.2376 131.551 52.6946C130.34 55.1516 129.192 57.6366 128.093 60.1496L121.422 75.0246L108.822 67.0376L102.459 63.0126L95.935 59.2396L92.673 57.3496C91.567 56.7406 90.573 56.0546 89.369 55.4876C88.769 55.2267 88.135 55.0523 87.486 54.9696C86.856 54.8786 86.233 54.8086 85.603 54.7526C84.567 54.6756 83.503 54.6196 82.502 54.5846H81.802C80.542 54.5496 79.289 54.5356 78.029 54.5286C76.769 54.5216 75.509 54.5286 74.235 54.6266C73.92 54.6266 73.598 54.6966 73.276 54.7596C73.1077 54.7875 72.9417 54.8273 72.779 54.8786L72.331 55.0256C71.736 55.2216 71.134 55.4246 70.539 55.6556C70.2319 55.7767 69.9326 55.917 69.643 56.0756C69.4539 56.1931 69.3067 56.3674 69.2225 56.5736C69.1382 56.7797 69.1213 57.0072 69.174 57.2236C69.268 57.5965 69.4912 57.9239 69.804 58.1476C69.5427 58.2083 69.2837 58.2783 69.027 58.3576C68.7241 58.4487 68.4272 58.5586 68.138 58.6866C67.9526 58.76 67.7866 58.8753 67.653 59.0235C67.5195 59.1716 67.4219 59.3486 67.368 59.5406C67.2833 59.9165 67.3407 60.3104 67.529 60.6466C67.6882 60.9676 67.9297 61.2406 68.229 61.4376C68.6067 61.6436 69.0058 61.8079 69.419 61.9276C69.3391 62.0383 69.2777 62.1612 69.237 62.2916C69.143 62.6385 69.1727 63.0072 69.321 63.3346C69.5778 63.9351 70.0606 64.4103 70.665 64.6576C71.1963 64.8784 71.7411 65.0655 72.296 65.2176L73.941 65.6796C74.599 65.8686 75.257 66.0296 75.915 66.1976L77.217 66.5196L77.805 66.6316L77.21 66.6946H76.797H76.37C76.069 66.6946 75.782 66.7506 75.495 66.7856L74.613 66.9116L72.268 68.2626L73.773 67.6116ZM143.339 54.8996C143.563 57.0099 143.409 59.1433 142.884 61.1996C142.38 63.2529 141.715 65.2635 140.896 67.2126C139.24 71.1087 137.385 74.9171 135.338 78.6226C133.357 82.3396 131.04 85.9656 127.911 88.8146C127.144 89.5318 126.282 90.1396 125.349 90.6206C124.866 90.8096 124.355 90.916 123.837 90.9356C123.318 90.9414 122.802 90.8586 122.311 90.6906C121.335 90.3296 120.397 89.8723 119.511 89.3256C118.601 88.7936 117.719 88.2126 116.837 87.6316C109.704 83.0606 103.642 77.0686 96.635 72.2316C95.7646 71.6032 94.8418 71.0505 93.877 70.5796C93.3753 70.3263 92.8278 70.1764 92.267 70.1386L90.685 70.0406C89.6421 69.9766 88.6041 69.848 87.577 69.6556C86.5543 69.3053 85.4862 69.1048 84.406 69.0606C83.846 69.0606 83.349 69.1446 82.81 69.1586L81.221 69.2706C80.703 69.3056 80.178 69.3336 79.66 69.3266C79.142 69.3196 78.589 69.3266 78.064 69.3266C77.0211 69.3805 75.9757 69.3642 74.935 69.2776C74.4326 69.2336 73.9382 69.123 73.465 68.9486C73.1358 68.8275 72.8267 68.6576 72.548 68.4446L72.268 68.2556L71.771 68.5426C72.6029 69.3412 73.6987 69.8069 74.851 69.8516C75.9198 69.9389 76.9933 69.9529 78.064 69.8936C78.596 69.8936 79.093 69.8936 79.639 69.8936C80.185 69.8936 80.717 69.8936 81.249 69.8306L82.824 69.7186C83.349 69.7186 83.902 69.6416 84.399 69.6136C85.4333 69.6636 86.4557 69.8567 87.437 70.1876C88.4931 70.3706 89.5589 70.4922 90.629 70.5516L92.218 70.6356C92.7052 70.6723 93.1806 70.803 93.618 71.0206C94.5589 71.4719 95.4604 72.001 96.313 72.6026C103.313 77.3276 109.452 83.2706 116.613 87.8066C117.502 88.3806 118.391 88.9546 119.315 89.4796C120.226 90.0337 121.193 90.4912 122.199 90.8446C122.713 91.0149 123.253 91.0954 123.795 91.0826C124.336 91.0604 124.869 90.9444 125.37 90.7396C126.321 90.2478 127.196 89.6206 127.967 88.8776C129.515 87.4265 130.897 85.8091 132.09 84.0546C133.297 82.3122 134.389 80.4931 135.359 78.6086C137.397 74.8993 139.241 71.0861 140.882 67.1846C141.695 65.2296 142.355 63.2146 142.856 61.1576C143.385 59.1164 143.548 56.9978 143.339 54.8996Z" fill="var(--fill-0, #F0997A)"/>
<path id="Vector_26" d="M82.614 58.3086C82.537 58.3963 82.4413 58.4656 82.334 58.5116C82.1018 58.5443 81.8662 58.5443 81.634 58.5116L80.115 58.3296C79.1 58.1966 78.092 58.0566 77.105 57.8536C76.86 57.8116 76.615 57.7486 76.314 57.7206C76.046 57.7032 75.777 57.7032 75.509 57.7206C74.984 57.7206 74.473 57.7906 73.962 57.8536C72.933 57.9586 71.932 58.1546 70.903 58.2106C71.9253 58.3781 72.9626 58.4344 73.997 58.3786C74.508 58.3786 75.019 58.3786 75.516 58.3786C75.768 58.3786 76.02 58.3786 76.216 58.3786C76.412 58.3786 76.678 58.4696 76.916 58.5186C77.9376 58.7073 78.9718 58.8196 80.01 58.8546C80.528 58.8546 81.039 58.8546 81.564 58.8546C81.8368 58.849 82.1067 58.7969 82.362 58.7006C82.628 58.5186 82.691 58.2806 82.894 58.1056C82.7961 58.1667 82.7025 58.2345 82.614 58.3086ZM78.946 62.3266C77.994 62.1586 77.049 61.8996 76.048 61.7596C75.047 61.6196 74.074 61.5846 73.087 61.5356C72.0844 61.46 71.0762 61.5236 70.091 61.7246C71.0714 61.7788 72.0482 61.8863 73.017 62.0466C73.99 62.2006 74.984 62.2776 75.936 62.4106C76.888 62.5436 77.854 62.7606 78.855 62.8376L80.325 62.9496C80.8153 62.9543 81.2967 63.0818 81.725 63.3206C81.3584 62.9639 80.8965 62.7208 80.395 62.6206C79.891 62.5156 79.429 62.4246 78.946 62.3266Z" fill="var(--fill-0, #F0997A)"/>
</g>
</g>
</svg>
